<mxfile host="app.diagrams.net" agent="Mozilla/5.0 (Windows NT 10.0; Win64; x64) AppleWebKit/537.36 (KHTML, like Gecko) Chrome/130.0.0.0 Safari/537.36" version="24.8.4">
  <diagram name="第 1 页" id="vpaAbOfG9gAEfCpSWnba">
    <mxGraphModel dx="1665" dy="2076" grid="1" gridSize="10" guides="1" tooltips="1" connect="1" arrows="1" fold="1" page="1" pageScale="1" pageWidth="827" pageHeight="1169" math="0" shadow="0">
      <root>
        <mxCell id="0" />
        <mxCell id="1" parent="0" />
        <mxCell id="urfwJ74LONXbReBFOj0j-1" value="" style="shape=image;verticalLabelPosition=bottom;labelBackgroundColor=default;verticalAlign=top;aspect=fixed;imageAspect=0;image=data:image/png,iVBORw0KGgoAAAANSUhEUgAAAt0AAAFyCAIAAACm9/EDAAAgAElEQVR4Aey8eVhT19b4T4AwhCFhEkIYFAG1glrQto69OM+KAyrWEeexttqrrVXb22pra63aWmsdK9ZZ61T91TqBoKiPA2rVV0XhCSC8TF8gN8mbnGf/nnOSnHEfEkBk6Mof5mRn7zV81tpnr+yz0Q7BCwgAASAABIAAEAACDYOAXcMwA6wAAkAACAABIAAEgACCugSSAAgAASAABIAAEGgoBKAuaSiRADuAABAAAkAACAABqEsgB4AAEAACQAAIAIGGQgDqkoYSCbADCAABIAAEgAAQgLoEcgAIAAEgAASAABBoKASgLmkokQA7gAAQAAJAAAgAAahLIAeAABAAAkAACACBhkIA6pKGEgmwAwgAASAABIAAEIC6BHIACAABIAAEgAAQaCgEoC5pKJEAO4AAEAACQAAIAAGoSyAHgAAQAAJAAAgAgYZCAOqShhIJsAMIAAEgAASAABCAugRyAAgAASAABIAAEGgoBOqnLnn59/VrVy2vaxkPCwyvmAdRcPaLyWOTvr1cWkPB+pe3Tuz8YcOm7ceu5+kZGfhmfCtCyFD05Ob1u9nljAC4AgJAAAgAASAABMQJ1E9dkuApsWNe0thVma+4MNGnL27lKJF2+s8Do7jvot+UXfmsu6+DyUSJg1/c2psasi++Gd+KUHnmnnmdmzlKJPKEA9RwUXXwBRAAAkAACAABIGAiUD91yQg3iYNy9OZUasvkWsajAmvVg65EnZ1bqhNETVuUW1BJmJsJTVFOTqHG9LFSfe/2w5f0CF1xznN1ic7SlRohItT495rOrhLHsNEbTp1LXtDJQ2KvGL67gMA3/x++s/76qlgPqSLAz0Ui8YS6RBA3aAACQAAIAAEggCVQf3VJyOy/6KqBNM1we3VcSFDEoO8yDUh/Z22/lsGxSy5oEJF3dkX/lh4OEjuJg2fE0K9SSwhEqHckhLccunRVfHNniVt8ciUyZv++OC5YZi+R2LsG9Vpz7b+5u8ZGBEVOOVCMUMX19fGRnqQAe1nYzBPkQxWcUAse4sX6fzlLLHs4RdsGySQOgUl//BfbfOoxtrPOcHfHig0Xsk5OVzlAXWIhC+9AAAgAASAABKwRqLe6xF4eO3bRhx9++OGSzw4+pJ7iGJ9vGeBlb99s5K93dsX7Obh1XnPPQOT9OsLP3jF48GfJh7cv6uptL229OE1vfLq2q1Ti4CAN6DJx3sIf07XqbUO87B38e/57+8HktVPipu8vJnvYOfX6Ic9QsG2Qm8Slw8xtRw5u/XzemjNlCC/UQkp3cV4LBzvnQdvLyBbdudkhDhLnwTsKsM0/n8R2poYipDsDdYkFK7wDASAABIAAELCBQL3VJRKpXNmcfIXFfPCneeNEd2NFjLPE0T+wmaNjxLzzFQgV7xziLpFGv38q8/79+zfXD/CQSN9e/ZCqS+wcw2b8UUK6SBRsHSCTSNt9cpM+pWLqYapLfhnoJnEMHrDy0G3z8VoRoWZa2lNJSnuJbMRe6lCIPmVhuKOdc7+fc7DNP+zFdi40yYK6xIYMhC5AAAgAASAABBgC9VaXOPCf45A2GbPW9XAmz5s6tl5yVY+Q8cF/OkmZA7J2dnYSly5fmesSsuqgzosYMlfFmDZH6OMjTF1CoMob64e3dCMf43hEjtx4s1JMqBmK7gK1BTJwG1Xz6P6cGeQgcR/5WzG2efdpbOdKkyyoS5hEgysgAASAABAAAjYQaFB1iSb1wzekDj4hwR72Dsox+14ShHpjnJNE2nn131o99TIYjARC7KqD3C95vq671M4xclGq6S96jUYjrwfS51379cMefvYSz/hfi/BCLbCMz77pKrVzbPMRWRgROZt6ukik0Z/c1GGbMx5jO5v3baAusUCFdyAABIAAEAACNhGot7rE3ifug02byddPPx+7Qx7IMP79TQ93e1nnNTdTlrSVSqRtPkipNNxZFeskcYoYs/5U+s3rl3/f+p+1x14Iqg7D9Y+jpRJ7Reykz7/7atGQ6KGbsv/Hcr7k/7K2zZm4as+59JQ9Sa0dJZ7xe0rxQmlchjsrY5wk9n7d5qz5elFvlaPEqf3yGwaEb8a3IqIw48CWnza9/66XvcS108yNP/1y+qGW1gAXQAAIAAEgAASAAJZA/dQlSUrz/w5CPaORtv/0tgGVH5+icnAKn00eTH25b5xKai8fuFVNlGesG9bSzd78n4lIfftvemwkXmzs5ebgMXi7+RwHIoovroxTSslOEnuPNxaeKaN7EAUHJoZQz4bsJE6qPl9dq0AI4YSy8JSlftFL5USplLi2GLougxyDEL4Z26q7MLe5A+sBlMT53fXPWRrgEggAASAABIAAEMAQqJ+6BGNIVU3Gshd30i5fTr/zrJj1f6/yR2jz7qdfTrmZVSb4z1B0hY+up6bdelrI/sNkK0J1L/++lpp640kRfZaW0odvxrfyDYTPQAAIAAEgAASAQNUEGkVdUrUL8C0QAAJAAAgAASDQRAhAXdJEAgluAAEgAASAABBoAgSgLmkCQQQXgAAQAAJAAAg0EQJQlzSRQIIbQAAIAAEgAASaAAGoS5pAEMEFIAAEgAAQAAJNhADUJU0kkOAGEAACQAAIAIEmQADqkiYQRHABCAABIAAEgEATIQB1SRMJJLgBBIAAEAACQKAJEIC6pAkEEVwAAkAACAABINBECEBd0kQCCW4AASAABIAAEGgCBKAuaQJBBBeAABAAAkAACDQRAlCXNJFAghtAAAgAASAABJoAAahLmkAQwQUgAASAABAAAk2EANQlTSSQ4AYQAAJAAAgAgSZAAOqSJhBEcAEIAAEgAASAQBMhAHVJEwkkuAEEgAAQAAJAoAkQgLqkCQQRXAACQAAIAAEg0EQIQF3SRAIJbgABIAAEgAAQaAIEoC5pAkEEF4AAEAACQAAINBEC/7i6xFBRkFtQYWgi4TO5obv767I5CzZcLqlHr5oi13rECaqBABAAAv9UAvVal1TmZJz4dcvGDZt+2f/nvUKbagXjkx+Hh4e2X3RWV4OIaTK+6q1ykthJ3Pr+lFuD8bYMIcqfpBzZtXnTlr1/3i822jJCrA+RuzsxMqR10iFr5UbF8cmBDo4tF1xiMzGWPLt17VrG7awSrhH6wsc3r127fk+tEdNb/XYOV6L64xvAiOqnIp2JdWC9oejxjWtXr167dv3W/efF7LDWRpk2/++btx4X6msjA8YCASAABOqaQH3VJUTe2U/iVM4SO/NLYu/RJnHbfau3YMPtT9tLJW4j9tZgWa04NM7b3sG//6o9yafvVtYFWf3fW4aHOEkkEgcHB4nEMXgWWT4R+Uc+6N9zyOeXtNVTaXy6tqvUzqnXD3lVL/WlB8f52Tu2XpLOXnC0R8d729vZ2UkcQ6edKqMVlxydqHIgoUs7rLhDt9byokZca0rFiq01EFvDVKQz0YpFNfhac2icgpkZUu+o0d9dZWJoRaAoAc1vI90kDqoZZ60IgK+BABAAAvVKoH7qEmPW1sG+9hKpqs+/t5+8eOn0rk8HhUolEtnbX2Syd020RbkFleZFmdAWqdXFOr2gLtGVqLNzS4UFDXswhZh4sf5dJzunf32fw1nnuf0MFS+zX+DEIaQrzs0rNa/9xsqCnPxytq2kCs2JyQH2Es+4rzMrjBXPL239z/YbeoSMf3/xltTOefAOztIioojQFOXkFGpIC22sS4qSR3rZS9stv8mxRrN3hJvEQRmsktp7xe8pNHlM5G0d6OnoFxIskzi2XnKVTjxdae7zFy8ruBsr5Lf60lyzMXRf4QWOK14iyzkRKkLplhZumMSCLiJWBDYp27ZUZGvnZ6LFQiRqFHs03buKCyp49s1GbEpJ+WPHwi5e9hJp1LIMS3zxbBEya8GnG5mdVEqopp+pQjN8BQSAABCodwL1UpcY7q6MkUocQqedppfqspNTgxzspNEf3zAQ6h0J4S2HLl0V39xZ4hafjJD23tZxbTwdJBJpQNeRvUIdzfslRN7ZFf1bejhI7CQOnhFDv0otIRB/sGVbxPjo+wEqOfkMx1nhH9znm3vZXCWViCi8tGZElLdUYmcncXBv0XvpKTWBLPJWbJz3TjOpRCL1f3fVmYsbRkZ62EskLiFDNt5lF0RFWwc4S+wV/X98ZllDkPHhd/1Mel0UAYHhSYcrRBQhZMz+fXFcsMxeIrF3Deq15pqG2S/R3Fo3tE1Iiz5rOWUbmTxE/vYhcom04+f3aJVUTlGLkPTNGXN7uNp7DtyaSxU6z75719UxNGnRSC9yf4WsSzS3fpr4tkpGbqFIpF7RE7b/radd3rSga4CTROLg2Xbqb1lGcgXfEt8yuM2ck+S+j/HxpqFhwdELTvG4PijHSCT7c5z7cv9aHhWs8DMWW+hcqES4oFtmUTVgW4ZUmYp6XiZWYjORjAImEzG2W5Rae6crCDK5Kg+OVUjsnAduK60qWmZCw9eu4YFldNFSmSa4AgJAAAg0PAL1UpeU7BjsKpEoxh5kPYwp3TlUJpHI4pMrqX0CiYODNKDLxHkLf0w3Zm3s6SGRyCIHzZgxPEphb2dH1SVE3q8j/Owdgwd/lnx4+6Ku3vbS1ovT9PzB9LONkrRfPugX6mjnGDbw/RVbUwv/Z21XKUuJNn/vaH97e5+u7289fOiH6TGe9va+o5ILCJM8e3snVdf3pg1t7SaRODhKPVsNSprUQyWV2PtNOMaKqfHhunc9JHYSR6+o+KU7rxWQGxAlaVsX9FI52DlGDv9o+ZeH/taLKCLU24Z42Tv49/z39oPJa6fETd9fbK5LNj08935bF3v32I8uFHN2esgFUb25r7vEucvXj3ibHaa6JHbF2e97ySSyuA3Pjchw7/OOTo7hC//cl2ipS4zPNsV3HPr+d8nHju1Y+I7c3kE17YzO4rJU+U7ijLGx3vZ2jhGLUhEy3P88VmrnPHRXBUKIforB5/oEIxEJnNv2/3GpGPDCTXtG7DBhg06HwFbY9ABUZSr+PzICLO3/xWYiwmeiwHY6FRntIld0BaFDyPhwTWdniX1g0mldFdGiZ8vZSzywjApaKtMEV0AACACBhkegPuoSIpt8oOKgmn6GtdmgPZzoZU/+LCyh1kU7x7AZf5gOfBb+MsBV4hA66xxZxRSfTGruQNUlxTuHuEuk0e+fyrx///7N9QM8JNK3Vz/kD2YRN2Z9211q5xS3kdwH4fcr3DbITeIYuSiVWj0qj01oZm/vPf6o1tRP2uGTG1qEyvcnKOztvYZuVxPI+PirzlI7afdvWRoQMuae/WwouZlCnuwI6PXV1XL+cxwRRZqCrQNkEmm7T5jHMRbVgwaGSKVh4397wSs9qIcQ38e5Slzjvif3Mzgvc12y6u6LzX3dJM6dv3qovfbvNxzJbZIykjT7OQ6hK1E//fuvf5NVx6DtpRa9H1/XIKS/8kGko8Rl2G6xuoTcR2FxNRnBk0gIneM/cKmqLmHlAj7oLM+5TzFEYDMHfapOxf+lKkNrmYjwRhn5KWaxsuTwzDdbt+K9WsfMPU7We9SLCp7ErXX/ie/Fdw52kdh7vvP5dctc4bEVaOESsIiE5zgsEnAJBIBAgyZQH3UJKtk+yFUi8Rz5G30nRkT+j72dJfbNJh03lwL0eU/jg/90JMuJDWQ5wfxOL3/wn05Sy6lZ6l3i0uUrc11CD2az56yfpts53c+QuSpGaufUcxP1wAPpM/79hqOd84BfzEWSuZ/uzHSVg6WeKtzSz9lO2nUtW4Xp2vDy2vZ5XfwcJBJZ7x+yCc5CIaao0GQA+5CryUTqjIjEqc37F+hnXrRG4+OvuzhL3PtuptDQzeSFpS7J1Of9TJZsby7bNLOFA1X3UBWguS6puPlDYkwzZ4nllKXAZdp4W+sSnESz02znqlWX0GEy4oPO8py2l6QlBpv1B05VpmIl8ySNVCGSiSJGmesS2nbaSO31rR/Om8t7zVuy4za9oWKqS5yaRca+1bXX8KSVv90ppTbKcGx5icwvg2mtcL6EhQIugQAQaMgE6qUuMdz4OFpq56CacKTI/GDC8Pj7OE+JRD5ke77p0QnzdyhEzoY4JztyHSXv25qL88Op8yUV6o1xThJp59V/a/XUy2Aw0vsgwsWA2lxg/a7n3c5Nv5ul7T+9RR3T0J6cqrQXFklW6xIjaQL1Mtxc3k5qJ223/JbB+PeX5LnXgdvI5VBMkeb5uu5SO3rDBhmNlnWt55o9M8OlEue2H15myjiTjnufd5SSzF5atJqVs+sSA5G/bbCnxF7mJrOXxn52z4CYuoRQ/9hHJnGK+eDP56WVz9b1cBKWYvQ6b1nwzGgrzs1pScWBu1+Cl0gInUMcKqLC+WHCB51xmytWDDazX4KqTMX/49YlIplIiBjFs51lpLVLqi6x1L90ZzxbgRYeWHo4nHtlUMAVEAACDZlAvdQl5GnQOLm9xMEnNnHZ2u/Xfz6vb5irROIStfhSheURC1NaGK5/HC2V2Pt2m7NmzcLewVLy/x8ZsVdjuLMq1kniFDFm/an0m9cv/771P2uPvbAs5pyf5mb+Ve2XIJM0x9AR689cTT3wUTcvewfVxGMl3D+KsVKX6K8sjomMm7z0q++/Xz2/VxB5snfm2UpErVt2DgE9P1j7zb5bGspsoSKzl4rYSZ9/99WiIdFDN2VbVsXcwuNTmztKnNt9lGo5xku6ZLi1vJ3U3ntkchEmwej9EgMiCnYOI//sVOLcec1DI2LVJcYnX3eRSpzazzt46ezPM2MV9lXWJah41zAPicS1zehPv1jQU2WOA7cuwUtEQufUBnI1p6noRYTzV1180Fn+2wabNaCqVBRox2aiOXf4mchNHZZG65f4ugTPlm8jL93oPRjYL7HOHXoAASDQIAjUT12CkDHn9PIBLd3Jgxjk/7Jh79ai90fHsqjNCuLFxl5uDh6DtxeaCREvTy18U052tfeImrBwRJiTd+Jh8rhHxrphLd0sIqS+/Tc9NgoGM5SJnB/7uDm4D9xKbi8I+5Vf+3ZIC5nZHpfg3ivOCfrpLi4Ml0rDF14kn/WX7BrmYS/ruZGloODU4s4BTpQIib1by8FfXqL2g4xPfx4S4EhWBtSjK7wiRBRfXBmnJP8cyE5i7/HGwjNlDAfi5eGpLV0cPPr88JxWp7+6pI2jvV/ioVK6iXWhPfKej6Os+zfUedii/YlKqYO8z6Zn5DEU7elpKqlLzIpbCBmf750Q4UodhvHpNGpApJP78N2lHDTGp+velTnIR/1Gyi69sDSWjIPEwSt2xkdjqDggxOGKlYiEzpUjHhW8cI4tlHu4oLP85osVgc0ZIZqKAu3YTET4TMSkGFtrVdfaI+/5Okgj3r/EqirIDT+r0aKE8sFaNGmPTjBJtTTAOxAAAkCgIRKor7rExEKT/3dG6uXUjPu5lv+mRIyRoehxRuq1R4L/FNZY9uJO2uXL6XeeFXNv4mKCqmw3lGTdunI59cbTYu5f3VY5iPulofjZrSuX0+68KGcfRTWWPr1+OeXm83LLcysRRdq8++mXU25mlbEHcxWYP+kuLwh3dAiczJyWxHaz3qh7+SA99foz0wkGq92pOGQ85f0nstxhYhIFzgmokEG2IpxUZSXoArEisDlW25yKrycTObaxPoixZXUhAfHSjfstfAICQAAINGQC9VuXNGQyDds2fcrCcEfH5rOpP1Jq2KaCdUAACAABIAAEbCYAdYnNqBpYR31FSblOeOC1gVkJ5gABIAAEgAAQqA4BqEuqQwv6AgEgAASAABAAAnVJAOqSuqQLsoEAEAACQAAIAIHqEIC6pDq0oC8QAAJAAAgAASBQlwSgLqlLuiAbCAABIAAEgAAQqA4BqEuqQwv6AgEgAASAABAAAnVJAOqSuqQLsoEAEAACQAAIAIHqEIC6pDq0oC8QAAJAAAgAASBQlwSgLqlLuiAbCAABIAAEgAAQqA4BqEuqQwv6AgEgAASAABAAAnVJAOqSuqQLsoEAEAACQAAIAIHqEIC6pDq0oC8QAAJAAAgAASBQlwSgLqlLuiAbCAABIAAEgAAQqA4BqEuqQwv6AgEgAASAABAAAnVJAOqSuqQLsoEAEAACQAAIAIHqEIC6pDq0oC8QAAJAAAgAASBQlwSgLjHTNVYU5BVpiLpkDbKBQHUJQFpWlxj0BwJAoLETqN+6RPfy4a07z8tEqoHKnMzrt54WG/iM9YWPbl5/kKflt9f4s+HvLfGhHp5+zSJmnNbVWIr1gcbs89u2nn0mcMj6SOjRWNnp01d067DgTE3S6nWlJSQXEAACQKAhEajPusSY9X2cTOIQNO2PSgwSY9a33ZzsHZxbfZDCqUC0lxe1cnZ0kMXvqcCMqkmT4fqytm491j0zIoPB5ppBn7Zm5Hub7trcnzSs/PCkEFXCrwUidVhNbP/HjGms7HTnZoUoRu/XVD9QNUrL6qupixE1mRx1YQfIBAJAoDESqMe6xPhwTRf/vomD/QMnHC0TsjM++aqzLDquu3/ge0dKma+L9o8JbN2ndwu3ITvLLa1GTWH2c3WJ8DepvjQvp9DqwxntqamBAZOOM9UPXh5RWZCjLtKaiwrNoXHeIbPOCXVajGK/60vz8kr17BbLNc5C8d7UKK4dVJOhPD87p7DSaJFKv+tKcnNLzIoJTaE6v1zYx1Cery7gjsUDQAjhzKWV4S943uhK1Nl5ZbxyDuMSwnbEq7C04oboitXZ+eU8feYBNXRTlDbHVX1ZXk5BJSGoS3BGmsjyUkSQlqTVHBWihiBb4k5BEEVgRoSLjPkrzhsXM25y1MJYm5FxTIIPQAAINFIC9VeXGO6siA1I2JdzfIrKb/RvxQJ+ZF3i9s6qX2aGeQ36JddcDRizNvby7b7614WR5rpEf3vTqOgAhZ9K5S2Tt0rc8YhcgfSpH3fts/TH5b2bK9xdpfKoaQeyyeVYd/7D2LeXXjYt0/q0T7u0m3daW5yc2Nxb5uAg81aqYpZcLMfJQ8TLs8t7Bbu5enrKPIJ7fnnl+Y7Rod6u9o5uPsrAkPgt2QRWtMmQ3h99O6eDj5tH28VpFamfdI5dRNYyIhai0iur+7fwC2zZQunbTKkMDBm44Qm7kODZka5FqCxjw5hob1c3ubuzq7Lz7H1PGACblsWFKNycXYIGfJeRuScpNsBTJpWFj9nxmBKpT/2428CPNy3pGarwkEndWo7YnElWZrYDLTuc1KbTRxfM5Zz+6opuUdOP0bUi5SLLdz1CpenrRr6hDIxoFeKn7DjrQBZlBsYlbEe9id3LQ0ltOi25YN5+0Kev6Bo1/Wg5Xrbh8e5J0QEB4a1bBAQP32pSZ0kz2920jKDesbQFrhJ5Jz/sEuDi6u7u037CjP5KuXm/BAeAzAQuJkoRLy11/G7ihvRZWnXcaX+wCOhvET/p07X4CYR4mP8vnz858DlqngNWjLUBGctkuAQCQKApEKi3ukR/7aO2geMPlyHN2RmhXkN3vOQ/3DDVJWseXFsW7dF17SNqETPcXN7Bb9jO7JRFdF2SeXzPpWxybdQ9+Kq7R+T7KXqEdGemq6Se7afte6QhSi4ubOvSdtl1A0La3yf6q5JOmxZS+nesviwneZy//7jkF/lFlUY9Tl7ZianBiq6rrpYQSPv8z817rmp0Zdnb472CJh98kf+yVCcmmjLERRYxLjlLb9DqjLoz04N8xx/VillofLy2m/ytz+7qECo5MzNSNWaP2rzqm1JNaIfmwoJIj3bzTmTrEFF89Ys4H0Xfzc+NlF4nzw4zDz7V6rN+GugtkzfvvepSgbH86tI3XcPmXyR3eUhIji6Ridsyy4nKzHW9vRUDf1YTSAjA3FcAlMj7ZZBCNfUk9RBOd3lhhNfgbflMFEn5LN+R5sL8SP9+Gx5oESLyj05u0WxkciGBhC6JdDSz06i39JcHJZ02Kb00P1wx6Jc8Aitbf2lBeLPRvxWR9uc9V3OfpNjuJmuWi9Dmh7nidFKwR6dlKcWE7vnvC2I97T2ougRrJH8srY2blrxu5fiwU72sxZ3RgEt1+ltcZLATSIiZNzmw1MxJZcXY6iFjbIcrIAAEGjOB+qpLdJcWRARNPk4eEdFdnN/Ss8+POcySRgE11yWPdI++6uIetTRDj1DlmRktgqecKNel0nWJib2+VP304d09E0O8xhzUUEtukM/YQ6ZTK7qL88IUo/ZpRIsHpD0xRamccoJVAnDl6f6YplLE72E9TEIIcbeqsXds09rv2f/nPLNrnLoEY6Hu4vxw1ZSTpCFEzoY49+7fcn7kC+3Q/Tkz2GPQNsuBFc2JyQHug3cUk+sTLZ6UJIuiCjOE9CnvR5h3msg+3gn7zRsc5XtHKhRjSXjUiw3AtITQ8hADtGjvKF/lBHK7Qndpfrhv/J5C83DyjaxL2L5fmNtC3n/djfvU6/aPw3xCZv6pE7qEdNiOlEtkTUe83DnUy1QN6S7Oa+kTv7uQwA8x3FkZ495qwvZbRewtJ5aF5FMRJm/E3bQMEaPNc1V3cX6YW98t5kJb+8c0FbVfgjeSN9aiinznpCWHZlWG0HESiztbBfVgiEFgiT7ZBRMZfGGPw8yeHHhjebTxxlYbGc83+AgEgECjJFBPdUnlH9ODXVoNW/Rv8rV4dDuZa491T7nLh6UuMRLqLf0VoTPOVrzcHd+szeJ0PdIzdQmRc+Kjni18/FtGx8S0DnCRJxww1yWmfQnyxpu2uJVHfLKNdQlOXvnOIbLQOee5R0nYt17RkocpRKjkYD4yVxwLS45NDFLGLd198viWpHbesStucs5FCO0gW4JmnLVYZri5vJ2s69qn9CJOaS3c0s+t3fJblCh9xtK2bgO3kSUWxwSkOz8n1LX/z0VICIDflwGKyo5ODGw29kCJ9sK8lv5jD5SwpwBXPtLsG+Uh9YuMibW83hr2zQ2D0CWRjixzi/eO8g2c9Hs5qbRZwv4SJDYEVdzZPqOrSiaP6L/k4GMLJJON1XLT7JYYbXqOKbAAACAASURBVJZtZE/NwTEKvwnHzGUuvS+HB8AbywbIr0vMW23k+Wl82Kl9MqaXSNxpFUIE7LoEExl8XYIwmNmTA28sP6mwxlYbGe0bXAABINCICdRPXVJ2dIKyWddpn64wvxb2C3F964sHnMKErksQKt6X0Mxv5JpPuyk6r/nbSJ7OsOyX6M7NCpX/6xvy4QDSX14QrqiyLjkxJYAuV8gfoObn/qwFACtPezjR23vMAe6f/2gPjaN+8Ztir8WL5q3NzEfmil2X6K8sbttqyLxZY4YNTZjzzdkXvJOyQju0R8b7yEckW04Na08nqeTDd5dyFzvsLd9SlxwxL5/l+xO8vBMPazAA+EsIqy5BmrMzQ31H7Dg8O0w1gXW2hITCcREh7amkQPnIvcz5Ewqc0CWRjmxxpYcSAwLe2398TpiK2qwRG2IKjV59cXU/pWffzTmmz9S/1XTTNFKMNts20vHTSYHuQ3aat9d0Z2cEUXmGB8AbyzJRsF/CVBy2GSISd4sKDAJ2XYKJDGkRdgKRIhnMBELsyYE3lp8gWGOrjcziG7wDASDQmAnUS11C7v8HTvqdWej11/79hkv7T2+xSbLqElT5x/QQJ6lUYT4Ay9QlmkNjvXxH7yNPzZamr+wir3K/xHBnxZsurd+/XIGIosufdlU4mJ77sxcArDxCvWWAwm/QT0/0CBny/vp2/elihLSnkwIVw3aRpxcQQiKieWsz85G5YtclFYfG+QX1WfL9z9t3Je///fLDYk6hhoR2/G/ejqFeXnFf3yYfWekebRkS4Dd8Vx7BXeywt3zTcxZHRedPLhYSyPD0p4G+XkO25xEYAPwlhF2XIF3KokjP0ObKkKRTpsdmdAg5LiJEFCSP9PMb8MNDUyFEVOTmlhAYl4rxHTkuVZyYovJp1VplUYofon187UY+uUtkfLT6HbcuXz+hTSOfwgnypko3qaGECG2ObeTpmW2DFT4DNj8xIKIoZWUPb1Oe4Y3kjWWZyE5LXpVnmyEicbeowCBg1yXCZCvGZ7kAs5E7OfDG8mljjbUNGZFz4vM5yw89404Wi5vwDgSAQKMjUB91Sdm+0X4h004xZQlChhufdnB7cwUbnzFr3bsK6n8VIZfu9KVRsqApx007A/qr/26rGJFMCij9a0mMQhH+dpf2bbpPTuioHE9uAOjOzw1TWQ6MGDKWRftQ2yjImLV7THMX12YtQoOixq2a846pN9KdmRESMt30X19h5SHtnY1DQlzd/FtGqLxVcauvahAiin5PauHsoQoPG7Q+yygimmMI2y7OF7SFRPbO+MDATvGJY0fH9+8U4hnQb9MDzpMcoR2Gx79OjpK7+oa1Dvf38Os49/AL8vbMEV+8fbCi42eZlCDDrU87KIbvJjGSdYO80+B+Lf1DIoLkbs2Hb75HPuoQAuDLo82lomW4uby9k0Po7HPmjRc6hBwbyFbDs33TO3h7BL7R6e3Y1irfiLlnyCFCl/AdOeI0f82PcHKKWGD5YyDskOIjU5t7qdp2jAn39Y6eeUTNOb9UXTdNbuFpc3GTT3JufNNb6SwPigxVth61YuY7AYmHSVexADh+0fDIC3Za8lXYYohI3GkdQgTcEGIig5tAOMzcyVELY21BRt4bPCIWUoe5aefgAggAgcZLoD7qkldMy1D06FpqxtMS234vVarvXEm//5J72oBjkYg8bf799JS0e6z/ZpYoy7qeciWTbrEumqNH8IHcBmo2yvIn04Zby9vJ4jZa/kKa7i20w1j+4vaVlLTMXPbvXbq/2IV5P0NTmXP7SjrbLSQCAC+IyNncVx4+/1IVQFkDiUp1ZtrllGv3cytZZYLQJYTvyJIkvMQM0RU+ykhJuY7PjWq5yaizjTZRkX3rSvq9fO5Sj2riF6Oae2WbIdwxvE9WEWAig8lyHGbe5KiFsZi48tyAj0AACDQpAk2gLmky8dBnLI1ybzPhh1NpN29cOb5+fBuftz6/zdkveZWu8p6z1FC08cm33d0jqL/OrqEEGAYEgAAQAAJAgCEAdQnDov6vKh8e+WLGiD49unSNG5j44U+p+bbtAdXIcMPNdaOGfpnGO1tbXVElxxb1TthQd9VTde2B/kAACAABINC4CUBd0rjjB9YDASAABIAAEGhKBKAuaUrRBF+AABAAAkAACDRuAlCXNO74gfVAAAgAASAABJoSAahLmlI0wRcgAASAABAAAo2bANQljTt+YD0QAAJAAAgAgaZEAOqSphRN8AUIAAEgAASAQOMmAHVJ444fWA8EgAAQAAJAoCkRgLqkKUUTfAECQAAIAAEg0LgJQF3SuOMH1gMBIAAEgAAQaEoEoC5pStEEX4AAEAACQAAING4CUJc07viB9UAACAABIAAEmhIBqEuaUjTBFyAABIAAEAACjZsA1CWNO35gPRAAAkAACACBpkQA6pKmFE3wBQgAASAABIBA4yYAdUnjjh9YDwSAABAAAkCgKRGAuqQpRRN8AQJAAAgAASDQuAlAXdK449dYrTdWFOQVaYjGaj7YDQSAABAAAnVEoD7qEm3uvYxrVzmvazeeFCP9leVdYj/4S1dHrjZYsbX0u5bDXw8WY/b5bVvPPjOQ2gx/b4kP9fD0axYx47RosBuIV/r0Fd06LDgjauYro8cG9MqEWhPUQCBbMxO+BwJA4B9FoB7qEsPN1X1aRYSHh4cFuNtLFUHh4eHhEW2TDiDdmelBvuOPav9RAUCotn5XF5s+bc3I9zbdpUqE14a6/PCkEFXCrwUEQobry9q69Vj3zIgMBrYRXLuq61UdeaI7NytEMXq/po7EM2JZgJhGW6+46GwdVevMs10R9AQCQAAI2EygHuoS2rairf1lLRdc1lsa6KVIX5qbU8jf5NeVqLPzytgLmWUc9U5UFuSoi7TsJwOG8vzsnMJKI6cf9UFXkptbYtZLaArV+eWCTobyfHUBd6xRU5j9XF0i/O2sL80T2ivUymrhWFt9v/HDWfJNXhars/PLBcQ0h8Z5h8w6x3VDnJWYKHw88K0cy7SnpgYGTDouKD+5dlUfCkuJvjQvr5TOK/MXIi6KNOvL8nIKKgleXaLDIyU1iGUH1xYb+NB+VJlWHEu46Kr017bUoW2ACyAABIDA6ybQ0OoS796z5/cIVri7SuVR0w5km8qF0vR1I99QBka0CvFTdpx1IItXRBAvzy7vFezm6ukp8wju+WW6FqGyjA1jor1d3eTuzq7KzrP3PaFWZ33qx137LN20LC5E4ebsEjTgu4zMPUmxAZ4yqSx8zI7HpFh96sfdBn68aUnPUIWHTOrWcsTmTHIB1d/eNCo6QOGnUnnL5K0Sdzwi5ZnE/bi8d3OWvWWHk9p0+uiCedXVX13RLWr6sXJWWIXWkkuwzX7jh5u2mSpvfx8fHTv3RDFheLx7UnRAQHjrFgHBw7cywIj8HaNDvV3tHd18lIEh8VuyCTFWtMUYUfh44FvNcvSpn3SOXXROV5yc2Nxb5uAg81aqYpZctBRHQruqBYU2FqHSK6v7t/ALbNlC6dtMqQwMGbjhiVEkHcSaibyTH3YJcHF1d/dpP2FGf6Wc2i/BcLCoFc2O3h99O6eDj5tH28VpelQlH2QBJJJWFlXkO9eSp2pbQ2pb6rA1wTUQAAJA4PUTaGB1icpBFjVt3yMNUXJxYVuXtsuuGxDSXJgf6d9vwwMtQkT+0cktmo1MLmRvi5SdmBqs6LrqagmBtM//3LznqkZzYUGkR7t5J7J1iCi++kWcj6Lv5udGatta5eTZYebBp1p91k8DvWXy5r1XXSowll9d+qZr2HxyldSdma5ydIlM3JZZTlRmruvtrRj4s5pA+szjey5lk8WG7sFX3T0i308xPX9RST3bc+0l8n4ZpFBNPVlJxlJ3eWGE1+Bt+SxzhdZSOm31Gz88yHf8kfInu0Y39++2MqWEQPpLC8Kbjf6tiDQh77ma/RRCV5a9Pd4raPLBF/kvS3UkXTwrSyoKReHjgW+1SGGeVenLcpLH+fuPS36RX8TejuLbRQbCVii0FmR8vLab/K3P7uoQKjkzM1I1Zo9aK+Yi1nOEUMXppGCPTstSignd898XxHrae5B1iZADo1WYHXpTJrnIIsYlZ+kNWp3RCh8GEJUOgrRilAkt4aPDOmZEtqUOSxFcAgEgAATqg0ADq0uCfMYeolZ0pLs4L0wxap8G6S7MbSHvv+7Gfep1+8dhPiEz/7T8ziYX3j+mqRTxe0oZero/ZwZ7DNpGnmUgX5oTkwPcB+8oNj1OtyggcjbEyaKowgchfcr7EW5Ddpabungn7DdvcJTvHalQjD1oWdf1peqnD+/umRjiNeagqS7B2IuK9o7yVU44Sgq7ND/cN35PIWMaxlquWVb8/n8CZ83D+8+eGqXquuJyMeW04c7KGPdWE7bfKuJtLVE82M9xRFlZbBaIwscD32oRYjLSfHZIe2KKUjnlhA3PcSyxsgKFnQwX54erppwkZZMBdu/+bZZRxEV8M0K6i/PD3PpueWnKHu0f01TUfomAA+Ob+YqdHRrKY5Vn/5/zTHKs8eHWJbi0ovVhLOE8x8E7ViycJ9jUodXABRAAAkCgfgg0tLqEPveqT1vcyiM+WYM0+0Z5SP0iY2Itr7eGfXODdWiifOcQWeic86zFiWwJmnHW0mK4ubydrOvap5zFEaHCLf3c2i2/ZXrAk7G0rdvAbaW8Lkh3fk6oa/+fixCRc+Kjni18/FtGx8S0DnCRJxww1yVCexEqOzoxsNnYAyXaC/Na+o89UMKOrNBans6q/S4ROGsaLm/3TrRnyNjfyOcy1KvizvYZXVUyeUT/JQcfW0iYvuIsYqKszHLI/QOuKHw88K2MEPq4CEK21yVCuNbUoJJjE4OUcUt3nzy+Jamdd+yKmwYk4mIpNksQ0hwco/CbcMxcNrHOl/A4ML5hssNUl7BOcVs1nAHEXJHPCi3TgKWOHxGEbAkp6S93noikDlsTXAMBIAAEXjuBhl+XaE8lBcpH7mUf0eBQ0h5O9PYec6CCadQeGe8jH5FcZm7Rnk5SyYfv5hcdVdUlR8yrUvn+BC/vxMMa3blZofJ/fUM+SkL6ywvCFVXWJUhzdmao74gdh2eHqSZwzpYgJLRWrC7B+i0+/MCtjX38fHt+d49VhOjVF1f3U3r23ZzDwEFIe2gcs+Ukyoo9gvSaFoW1C+FbGSGsxVasLuHYxdo/YK/O1tToryxu22rIvFljhg1NmPPN2Rfk2VcRF/HNCOlOJwW6D9lp3n/TnZ0RZDpfYvKF4cDyTZgdgrrEmuEsf1moROoSSjXbEg46vGOl1Usdxju4AgJAAAi8XgINvy4hCpJH+vkN+OGhqVYgKnJzSyy7AiQrQr1lgMJv0E9P9AgZ8v76dv3p/83bMdTLK+7r2+QTId2jLUMC/IbvIvfTOXd80bpE5ajo/MnFQgIZnv400NdryPY8QnNorJfv6H3FCKHS9JVd5FXvlyCkS1kU6RnaXBmSdMr0VIoOqtDaYq5Z9A9krN9VDSfU+8c39+yw5FIZ0j6+diOf3AkyPlr9jluXr5/Q+sl1+nRSoGLYLvLwCUKEGCvLCIEorF0I32oRwkEvWpew7aoOFEYLqjg0zi+oz5Lvf96+K3n/75cfFhtFXcR7Tp5h2jZY4TNg8xMDIopSVvbwdqDOlwg4MFox2SGoS6zxYfnLyVI6HRh1GEtsCamNqUNu/nw+Z/mhZ5gngIwNcAUEgAAQqDMC9VmXlOwcqmizJI3+e07d+blhKsvBA0PGsmifhAPk0Q7Ds33TO3h7BL7R6e3Y1irfiLlnzNsZZiraOxuHhLi6+beMUHmr4lZf1SDD418nR8ldfcNah/t7+HWce/gFdZflKCjePljR8bNM6jmO4danHRTDd5eZd7Y7De7X0j8kIkju1nz4ZmoDovSvJTEKRfjbXdq36T45oaNy/BGy5BGxlzT55vL2Tg6hs89xLSUNFlorJgfrd5XDSy8seVMROf98zpGpzb1UbTvGhPt6R888ombXcYgo+j2phbOHKjxs0PosoxgrS8YVC0Vh7bISJZaPujMzQkKmC/+rMq5drAEI2ZwMRPbO+MDATvGJY0fH9+8U4hnQb9MDg5iLIlmCNDe+6a10lgdFhipbj1ox852AxMNahOFgQYSE2aHlZYf1LGb8Za7IUcw0sKjDWMJFJ+avTalTqU9fGuURsZD+UymLWngHAkAACLweAvVZl1THQ6JSnZl2OeXa/dxKziJrkaHNv5+eknYvj6kDjOUvbl9JScvMtZxatXSt8t38Y1VTmXP7SjpbHDIUPbqWmvG0xKbfkUTO5r7y8PmXWA9V2GqF1rK/ZV9j/bZluK7wUUZKynW8vURZ1vWUK5k0rapZ4URh7UL4VrY/VV/z7RLpLapGn7oostmo38h9LXJNv7W8nSxuYy6VMCIuijQTFdm3rqTfy2fSiaxDq0BqW3aIGi7iqFgzxhI+OhHHbEkdMa3QDgSAABB4HQQaS13yOliQOjib6DVWanzybXf3iPdT6K2gGkuCgdUhoM9YGuXeZsIPp9Ju3rhyfP34Nj5vfX6bdUa6OrKgLxAAAkAACNQHAahLuNQNN9eNGvol82yJ+62tn0qOLeqdsAFWRFt5vbp+lQ+PfDFjRJ8eXbrGDUz88KfUfJu2t16dfpAEBIAAEAACtSMAdUnt+MFoIAAEgAAQAAJA4NURgLrk1bEESUAACAABIAAEgEDtCEBdUjt+MBoIAAEgAASAABB4dQSgLnl1LEESEAACQAAIAAEgUDsCUJfUjh+MBgJAAAgAASAABF4dAahLXh1LkAQEgAAQAAJAAAjUjgDUJbXjB6OBABAAAkAACACBV0cA6pJXxxIkAQEgAASAABAAArUjAHVJ7fjBaCAABIAAEAACQODVEYC65NWxBElAAAgAASAABIBA7QhAXVI7fjAaCAABIAAEgAAQeHUEoC55dSxBEhAAAkAACAABIFA7AlCX1I4fjAYCQAAIAAEgAAReHQGoS14dS5AEBIAAEAACQAAI1I4A1CW14wejgQAQAAJAAAgAgVdHAOqSV8cSJAEBIAAEgAAQAAK1I9BA6hJjRUFekYaonS8wGggAATYBmFZsGnANBIBA4yBQT3WJsfjp3SdFBoqR4e8t8aEenn7NImac1olR019Z3iX2g79Evxcb94rb9ekrunVYcKbuzTBmn9+29ewzE6FX7ISouGpBrlZnUZW1/uK1RaTWliJUR0HFI7BpWr0CpygRDSQZGHcanEGMaXAFBICAFQL1U5cYn3zdRRazMpNcdg3Xl7V167HumREZDOxlWJ+2ZuR7m+6am3Rnpgf5jj+qteJOXX+tOzcrRDF6v6au9aDyw5NCVAm/FtRoC4mLznZbrUDmirXS2Xattev52iJim5lcRrwxtQoqTxbrIxaB2LRijavdJcfTBpIMjEcNziDGNLgCAkDACoH6qku+6iyLWUkVHdpTUwMDJh0XVByaQ+O8Q2adM29N0PcZfWluTiH/iY+uRJ2dV8auajhu60vz8kr1nCaEDOX52TmFlUbbmvVleTkFlQRvCdAVq7Pzy7F6jZrC7OfqEsHOCtcWK4ZzbdOX5gldN3fhWMJFZ+6B95eoLMhRF2lN5Q8NmavX8okrlu78D4sIN4CIF0EuIws53hhLM38w3S684KkxdcAnpek77LTi2oHPCISQriQ3t8Q8XwhNoTq/nD9LEEIcT6tOhmr4KfQc1WgmVW2QqOcY9YgztagO2GDghkIbEAACNSFQz3VJcXJic2+Zg4PMW6mKWXLRsooT+TtGh3q72ju6+SgDQ+K3ZBPkfca79+z5PYIV7q5SedS0A9mme2Vp+rqRbygDI1qF+Ck7zjqQxbuDll5Z3b+FX2DLFkrfZkplYMjADU+MqCxjw5hob1c3ubuzq7Lz7H1PTJWFSDORd/LDLgEuru7uPu0nzOivlFP7JYbHuydFBwSEt24REDx8axabvf72plHRAQo/lcpbJm+VuOMRKV6f+nHX3h99O6eDj5tH28VpCFVtuD71k86xi6iqjBzZZ+mPy3s357lu1sm15KkAHRLxl3h5dnmvYDdXT0+ZR3DPL9O1iL6Zo8rb38dHx849UWzZr4GI8AKoF0bw/wTo+WOYoGLCX3ooqU2nJRfMe3H69BVdo6YfLReqoTIcn5SWLORPK74d+IwwJdqmZXEhCjdnl6AB32Vk7kmKDfCUSWXhY3Y8Zs0sQTb8V2x6Yvy0GIn0aZ92eWPy/iIyx4gXW0dGdvr3JeoOYHzyw9DWCTsQsmUm6bEqRO8X+EmuO/9h7NtLL5tqMdKudvNOaxHiTi3y3lL1rKVdgwsgAARqQaCe6xKkL8tJHufvPy75RX4Re+9CV5a9Pd4raPLBF/kvS3WIXDJVDrKoafseaYiSiwvburRddt2AkObC/Ej/fhseaBEi8o9ObtFsZHKhZSlFCBkfr+0mf+uzuzqESs7MjFSN2aPWIs2FBZEe7eadyNYhovjqF3E+ir6bnxvFmlHF6aRgj07LUooJ3fPfF8R62nuQdYn+0oLwZqN/KyJ/XeY9V3Me7Ogzj++5lE1uAOkefNXdI/L9FPLyzHSViyxiXHKW3qDVGa0YzioRqJFSz/Z81y1BF1jCRyfib9mJqcGKrquulhBI+/zPzXuuasxKj5Q/2TW6uX+3lSklLJSIL/YfGBF2ALGp919M1rKCztR9uPAb1Fv6y4OSTleSkdVdmh+uGPRLHoHrSYgkpSUlEH9aCZIPOwPIXk6eHWYefKrVZ/000Fsmb9571aUCY/nVpW+6hs2nfzVQ9nE9FUkGLCQmqcoPJzbzSdhXihBRuH2Ih8QxclGqHiEie2NPz5iVmQgJZ5LexpkkYpDIXEDa3yf6q5LIUoRkb3lYK5ha+GAw2OEKCACBV0GgvusShLQnpiiVU07Y8BzHZ+wh6p6NdBfnhSlG7dMg3YW5LeT91924T71u/zjMJ2Tmn5ZNF/IOc3F+uGrKSVI2kbMhzr37t1lG3Z8zgz0GbbOc3NCcmBzgPnhHsUgzKSLMre+Wl6a7qfaPaSpqv8RwZ2WMe6sJ228VsX5GcgKiL1U/fXh3z8QQrzEHzXWJZ/+f80xyrBnOq0uChK7TujCWcLfYRfz9Y5pKEb+nlJZjsjHIp//sqVGqrisu01sldA+OWMpCoVnWHGvUEVExARRLPQEjzhjLISk8JeLlzqFeqqknK8nEndfSJ353IYHvKZKUdKQQb1qRqzRju2iqn5lOJxo5XWRRVO2PkD7l/Qi3ITvL2fKFz3GEySAGiZZT8tson4CJxypQ+eFEVed+cb7tP7lpIF7+MkjR7pOb9ONR9kzSmOoSljP4WwBZAgoNEvNcpC7hTy18MGhv4AIIAIFXQ6Ax1SX0uVd92uJWHvHJGqTZN8pD6hcZE2t5vTXsmxv0/QwhVHJsYpAybunuk8e3JLXzjl1x04DKdw6RBc04a6leDDeXt5N1XftUpNmoOThG4TfhmLlson9KIVRxZ/uMriqZPKL/koOPLdKooBA5Jz7q2cLHv2V0TEzrABd5wgHzmk87YN1w5qc1u0RBiHadFX6BJZzFUcQxsjl0znmO4aRSebt3oj1Dxv6WzfystajiiBUx6x8RERKIiKNVMKJWVNPhbZHBqHjvKN/ASb+Xay/Ma9ksYX+JmBrRpLSESliXsE6Ni2SEkZVzCBVu6efWbvktajLpM5a2dRu4jVPDCusSOruZHBXzkzazcNcwRfCMs6V/zgp767PLWwd7vfXFg8K9I33bLLlKPlMRziRTXcJyRkQFxxfaIBHPkUhdwp/kIrpob+ACCACBV0Kg4dYl2kPjWLsf+PuM9lRSoHzkXu4PORYX/ZXFbVsNmTdrzLChCXO+OfuCvNdpj4z3kY9ILjN3055OUsmH7y4VaUa600mB7kN2mu/JurMzgkznS0zD9eqLq/spPftuZinVnZsVKv/XN+SzJaS/vCBcgalLrBnOXvXxrrMUUpdsSzjoRBzTHk709h5zoIItx6TpwK2Nffx8e353j1OzkOQgIsxfhIlEsApGrLpEZDBCpYcSAwLe2398TphqAnm2BOF7Vp2UVEg525CcFBKbAeycs6Eu4XjKUUCXASLWs1KOyN86QB4+9/sPolsvStVmb4hTvPvFxkRl5MIUcqpiZpKgLsED4vpCGyQyF6gqLoCuq8jdJewk/58TVd9uWI7BJRAAAjUn0IDrktNJgYphu8gTHPztBvo+QxQkj/TzG/DDQ9N2BlGRm8s5E1FxaJxfUJ8l3/+8fVfy/t8vPyw2IkTk7Rjq5RX39W3ymZDu0ZYhAX7Dd+URIs2IyN82WOEzYPMTAyKKUlb28HagzpdoH1+7kU/+mDQ+Wv2OW5evWRHQHBrr5Tt6XzEiT8mt7CLH7ZdYM5x9XxW551s0YizRstGJOEaotwxQ+A366YkeIUPeX9+uP11MKyXU+8c39+yw5JKleDPp4oilO1Pf/bMiQrosEsEqGLHqEpHBCKGKE1NUPq1aq0KSTlHPLPE9RZLSkhLkexV1iUhGcCNqdb+E46lIjuKtZ5tJ5PzQy71ZgH/g5BMaZHz45dvu/gF+YXNM/1ERZiYJ6hIRFXiDxDxHhjsr3nRp/f7lCkQUXf60qwI/yR/nYW83RM6Jz+csP/RM7Iku21+4BgJAwDqBeqpLsr57V/72lw/Imaw7MyMkZLrwvyojin5PauHsoQoPG7Q+y6g7PzdMZTmFYshYFu2TcIA8bGp4tm96B2+PwDc6vR3bWuUbMfeM+YkL5TqRvTM+MLBTfOLY0fH9O4V4BvTb9MCADI9/nRwld/UNax3u7+HXce7hF9QdRaQZaW5801vpLA+KDFW2HrVi5jsBiYe1qPjI1OZeqrYdY8J9vaNnHlGzSZf+tSRGoQh/u0v7Nt0nJ3RUjj9Cusl2wKrh7O6ckSzXzSoxlnDRifmrvbNxSIirm3/LCJW3dPbdbQAAIABJREFUKm41ee6VsbH0wpI3FZHzz5sO9JhUccWyOiPEMusfEBETDqyjVTDi5AB2MClX89f8CCeniAUXLHmM74lNSnNGUG+cacWJFZl82BnA6VW8fbCi42fU/zCEDLc+7aAYvptbpXI81TCZw0kGK/OTrOuzNvX2dPQe/RtZxxturYx1lYbO+tPsvHAmaTkUKU+xgDi+sLMT6zlpxu4xzV1cm7UIDYoat2rOO8rxR4STnMC7o09fGuURsZBzLpgdCrgGAkCgegTqpy6x0UaiLOt6ypXMPMstWmQYUanOTLuccu1+biX3UIQ+dVFks1HUHY+66S1vJ4vbmEv1MZa/uH0lJS0zl/OXNEikmajIvnUl/V4+xxBd4aOMlJTrT0swv5MMRY+upWZgv2I5IWo4q48tlxhL+OhEHNPm309PSbtnjTBtBF8s/QX3QtSxphYRnKM2MkIIN5jL0fIJ2xOblJYR1t9FMsL6QKaHjZ5irWekVH1VBzNJzPNK9Z0r6fdfch5f4qaW2O2makfgWyAABGwl0KDrEludEOunz1ga5d5mwg+n0m7euHJ8/fg2Pm99fpt9LFZsILTXEQGISB2BBbFAAAgAgaZCoEnXJQhVPjzyxYwRfXp06Ro3MPHDn1LzMXsbTSWUjcMPiEjjiBNYCQSAABCoJwJNvC6pJ6qgFggAASAABIAAEKgJAahLakINxgABIAAEgAAQAAJ1QQDqkrqgCjKBABAAAkAACACBmhCAuqQm1GAMEAACQAAIAAEgUBcEoC6pC6ogEwgAASAABIAAEKgJAahLakINxgABIAAEgAAQAAJ1QQDqkrqgCjKBABAAAkAACACBmhCAuqQm1GAMEAACQAAIAAEgUBcEoC6pC6ogEwgAASAABIAAEKgJAahLakINxgABIAAEgAAQAAJ1QQDqkrqgCjKBABAAAkAACACBmhCAuqQm1GAMEAACQAAIAAEgUBcEoC6pC6ogEwgAASAABIAAEKgJAahLakINxgABIAAEgAAQAAJ1QQDqkrqgCjKBABAAAkAACACBmhCAuqQm1GAMEAACQAAIAAEgUBcEGkhdYqwoyCvSEHXhIcgEAkAACAABIAAEGguBeqpLjMVP7z4pMlCUDH9viQ/18PRrFjHjtE6Mm/7K8i6xH/wl+r3YuFfcrk9f0a3DgjP1bYbNXhmzz2/bevaZCbTNo2rXsVqhqlbn2tnVoEbX0u/aDa/d6AbF0TZjrEwDEw/bRNnWi1FoZi02TCQU/PHkcKZNTBi0A4EmQqB+6hLjk6+7yGJWZpLrpeH6srZuPdY9MyKDgb1+6tPWjHxv011zk+7M9CDf8Ue19Yxdd25WiGL0fk09myFQz4XFfF1+eFKIKuHXghrtRIkJZcRjr6yFiiPWWmeshibQWEu/qzucwxxVd3TD4s31xSbbrEwDEw+bJNnYiVFoZi02TiQU/PHkcKYNoRowELMA2oFAwyNQX3XJV51lMSupokN7ampgwKTjgopDc2icd8isc+atCXr+6ktzcwr5T3x0JersvDJ2VcMhrS/NyyvVc5oQMpTnZ+cUVhpta9aX5eUUVBK8ukRXrM7OL8fqNWoKs5+rSwQ7K1xbrBiOENKX5gn9FdjOhcVzifsRK9DSheMQVqhANTWUqCzIURdpqfKHDpVFKO+dI5buXJO4srValODtQwjpSnJzS8xJQGgK1fnl/NCTKaEu4GaEWBjxcbEYgX3nWFsDv9nj6eF8TZwAMl9ymDN1SU2gUylJTydRPoxuK1fW4iLQwPXFLF1kInFnm8USvkgTTcu3rHd+R9ZX3EvxjuZIWbrzO9KBNFA3GEFKmmNlGW55xzKwfAnvQKCxE6jnuqQ4ObG5t8zBQeatVMUsuWhZxYn8HaNDvV3tHd18lIEh8VuyCXL+eveePb9HsMLdVSqPmnYg2zSHS9PXjXxDGRjRKsRP2XHWgSzezC69srp/C7/Ali2Uvs2UysCQgRueGFFZxoYx0d6ubnJ3Z1dl59n7npgqC5FmIu/kh10CXFzd3X3aT5jRXymn9ksMj3dPig4ICG/dIiB4+NYsdh7ob28aFR2g8FOpvGXyVok7HpHi9akfd+390bdzOvi4ebRdnIZQ1YaT3fss/XF57+Y8f4VGCmExxuhTP+kcu4gs7kQFWjpzHXqq5kcAiWAjXp5d3ivYzdXTU+YR3PPLdC19q0WVt7+Pj46de6KY3q4R2PrfGsZVoBWJ2Gfye9OyuBCFm7NL0IDvMjL3JMUGeMqksvAxOx6T6aJP/bjbwI83LekZqvCQSd1ajticSVbJomEUxKXscFKbTh9dMJfW+qsrukVNP1ZuAYsQElpbvXwWjMcx5gaQmQgC5jWdTLwUrhCmuT7t0y5vTN5fRMabeLF1ZGSnf1+i5rTxyQ9DWyfsyGOY2BAXTASEvuAnEt9UZhoIjUbYtR8T/dJDSW06Lblg3izVp6/oGjX9aDmmI5lSlnlnjpRYPlF50Hf+hz1DyNxzjxy9xZR7vPEkN4tMHoP1P02tOvkY5nAFBBoJgXquS5C+LCd5nL//uOQX+UXsX6q6suzt8V5Bkw++yH9ZqqNuHSoHWdS0fY80RMnFhW1d2i67bkBIc2F+pH+/DQ+0CBH5Rye3aDYyuZBeBBEyPl7bTf7WZ3d1CJWcmRmpGrNHrUWaCwsiPdrNO5GtQ0Tx1S/ifBR9Nz83ijWjitNJwR6dlqUUE7rnvy+I9bT3IOsS/aUF4c1G/1ZE/hDPe67mPNjRZx7fcymbXKV0D77q7hH5fgp5eWa6ykUWMS45S2/Q6oxWDKe6Sz3bC/3F2c6HxeQes36R+jEC6a4Ch/hCRbCVnZgarOi66moJgbTP/9y856rGpPNI+ZNdo5v7d1uZUsIKCEI8saRZ1Y8rEmoVix+pwMmzw8yDT7X6rJ8GesvkzXuvulRgLL+69E3XsPlkKUx2cXSJTNyWWU5UZq7r7a0Y+LMaIWEY9aa+AoxE3i+DFKqpJytJmrrLCyO8Bm/LZ3mNsbZafgvHYxgLAkiHls+ccrgG0EmbWSmM41N+OLGZT8K+UoSIwu1DPCSOkYtS9QgR2Rt7epqf25rNsiEu2Ajw8kfkDsAzlZkGQqNNczPIdzzDi7wSdtQT6i395UFJp01hvjQ/XDHolzwC05FKE/NjZ7NqrETzbcHBOfK9nffKicq73/Yy5x5jsOmKtIjVxr45/tdK8nHdgk9AoDEQqO+6BCHtiSlK5ZQTNjzH8Rl7iLolIN3FeWGKUfs0SHdhbgt5/3U37lOv2z8O8wmZ+adl04Wcyhfnh6umnCRlEzkb4ty7f5tl1P05M9hj0DbLkQvNickB7oN3FIs0kyLC3PpueWlaZrR/TFNR+yWGOytj3FtN2H6riLdBQwddX6p++vDunokhXmMOmm9Anv1/zjPJsWY4dRPC+Iu3HSGxfV3WvezM9CChQNpahHGII1SEj+6PaSpF/J5SRpDJ9P6zp0apuq64zGyV0D24YrFmWcOD0yqChiRg8ZvMAVkUVdAipE95P8JtyM5y0w3fO2G/eYOjfO9IhWIsGTLqxQ6jxtTXIo7JQ1S0d5SvcsJRUtil+eG+8XsKLePJ0AsZicUXm8+Y8ZRXXMaYADI2cJhXSzkjgxymYlLY/AWPT8lvo3wCJh6rQOWHE1Wd+8X5tv/kpoF4+csgRbtPbrIfeNoQF7wGbq6LZArPVGYamGSyjaZXfJan9CW7owYRL3cO9TLVn7qL81r6xO+mfwRxO1KETcfhzKqxEs2qvRP2V5i+L9s7Qk7lHmOw6Yr8mmnjzfcqk49WDBdAoPEQaEx1CX3uVZ+2uJVHfLIGafaN8pD6RcbEWl5vDfvmBvvuV3JsYpAybunuk8e3JLXzjl1x04DKdw6RBc04a6leDDeXt5N1XftUpNmoOThG4TfhmLlsYp0vqbizfUZXlUwe0X/JwccWaVTgiZwTH/Vs4ePfMjompnWAizzhAO+ugqwbzr4JIdpfMSO592pW9jFimCvyp5sFIKsrEjjEWcxEVJfuHCILnXOe7T+pSd7unWjPkLG/ZbN2DSy6OGLxZlmLK2kMT6uIfZy7OSrc0s+t3fJbVIboM5a2dRu4rZR7w0dId35OqGv/n8lKlh9Gc10izEOEyo5ODGw29kCJ9sK8lv5jD5RYnCXfMdZyzaLDgfcbMx7LWBBAxggO82opZ2Rwh4nwQYW7himCZ5wt/XNW2FufXd462OutLx4U7h3p22bJVc4JL07g8XHBR4Cb63hifFMZZcKg0nOT5Sn1OwYTfVS8d5Rv4KTfy8kwN0vYT4ZZKJGTJmbV2I60ast5ft1fZO5tZaekaTxpG+MEry6pMvm4XsEnINAoCDTcukR7aBxr94M9KZllVXsqKVA+ci/7UT6Huv7K4rathsybNWbY0IQ535x9Qd4ZtUfG+8hHJJeZO2pPJ6nkw3eXijQj3emkQPchO80bArqzM4JM50tMw/Xqi6v7KT37bmap1Z2bFSr/1zfksyWkv7wgXIGpS6wZzrkJsfzF244QFxZjDIONuRKrS6hRtEM5PKEifLSHE729xxww/96jRJg0Hbi1sY+fb8/v7rFLFup7jq14s6zhwWgVsY8LEr/+mWw4Yi49y/cneHknHkaYMHIWHB5GzdmZob4jdhyeHaaawDlbghDGWq5ZdF2C9xszXpwxE0B2SchhXi3lTC5xh4nwQUT+1gHy8LnffxDdelGqNntDnOLdLzYmKiMXpnDKEq4wkbgIJxL5vJTjC54YVzprSccElV7xWZ4iMe9Q6aHEgID39h+fE6aitsdEOjJpbb7CSqRVW3Kv4sAYbzL3WPabxpO2MTJ5DBCqIvk4XsEHINA4CDTguuR0UqBi2C7yBAdvUjLrNFGQPNLPb8APD01rClGRm8s5zVBxaJxfUJ8l3/+8fVfy/t8vPyw2IkTk7Rjq5RX39W3ymZDu0ZYhAX7Dd+URIs2IyN82WOEzYPMTAyKKUlb28HagzpdoH1+7kU/+7jY+Wv2OW5evWdHWHBrr5Tt6XzEij+St7CLH7ZdYM5xzE2L5i7cdIS0HFmMMcy9jrngLqrkz36EnPKEifAj1lgEKv0E/PdEjZMj769v1p4stmgj1/vHNPTssuWQpAS2a2LZaOlPf0euzNTwYrSL2cUGKrH/k+RJF508uFhLI8PSngb5eQ7bnIUwYq6pLkC5lUaRnaHNlSNIp09NGOgoYa7lmWfEbM96CjcVYEED2A0ZuflhGVw8612YRPuT+wQ+93JsF+AdOPqFBxodfvu3uH+AXNof/Xw9xbMDHBR8Bbq6LZApHOmtJx4ikby50vMgLTEfTGbKKE1NUPq1aqyxhxndk9JuvsBJNqsnc+/hCAZl7W8y5x0JtGk+axMjkTU3yO37yETknPp+z/NAzdhJwHIQPQKABE6inuiTru3flb3/5gJw1ujMzQkKmC/+rMqLo96QWzh6q8LBB67OMuvNzw1SWUyiGjGXRPgkHyBuF4dm+6R28PQLf6PR2bGuVb8TcM+afvRRzIntnfGBgp/jEsaPj+3cK8Qzot+mBARke/zo5Su7qG9Y63N/Dr+Pcwy+o2SvSjDQ3vumtdJYHRYYqW49aMfOdgMTDWlR8ZGpzL1XbjjHhvt7RM4+o2SEu/WtJjEIR/naX9m26T07oqBx/hHST7YBVw7nd2f7ibefCYoxhtDJXpHIGoKUv3yECIZ5QET7aOxuHhLi6+beMUHmr4lZf1bA0lV5Y8qYicv55zkLNEathY2GZVXVcERJoRSJhZVmDUPH2wYqOn1H/bQ4y3Pq0g2L47jLTDV/eaXC/lv4hEUFyt+bDN1ObPMIwanlhZNlLQr25vL2TQ+jsc+wMNOEVWssxiyUH77dgPGu4hXEOLyPZ2yW8ULJGc3IBr9ySIdycRAjLh6zUszb19nT0Hv0bWZkbbq2MdZWGzvqTD4VjAz4uIho4+WPE3wE40tlRExpNz03aT+pC2NHsgeav+RFOThELLH9+he3I6DdfkT9SsLeFv2aHR4+a0ae5X3BEkFwWOuxHKvf440mTmDbB1BQmnz59aZRHxEL6Lxy5zsEnINCwCdRPXWIjE6Is63rKlcw8/j2NN5yoVGemXU65dj+3knMzRvrURZHNRlH3R+oWubydLG5jLtXHWP7i9pWUtMxczl/SIJFmoiL71pX0e/kcQ3SFjzJSUq4/LcH8JjEUPbqWmoH9imW8qOGsPphLvJE2wsLIszRhHOILxatG2vz76Slp96wFyqII8cXSX3AurOHBaBWxjyNW8MH8Q1RTmXP7SjrHCdvCaBZI5GzuKw+fb/rDWIGSajDC+43xlq8EE0Cmi23MEV45I4ZzVS0+nJG2fsBr4PtSN0bjdWMsfwUdyRuM4G6EUcU0cRlYST5mGFwBgUZAoEHXJbXlp89YGuXeZsIPp9Ju3rhyfP34Nj5vfX6bfSy2tgpgfFMgwN4gr7k/xiffdnePeJ93jKLm8mAkELCZACSfzaigY2Mg0KTrEoQqHx75YsaIPj26dI0bmPjhT6n5mL2NxhAmsLEOCRhurhs19Ms07rnMausrObaod8IGKHurDQ4G1J4AJF/tGYKEBkSgidclDYg0mAIEgAAQAAJAAAhYIwB1iTVC8D0QAAJAAAgAASDwughAXfK6SIMeIAAEgAAQAAJAwBoBqEusEYLvgQAQAAJAAAgAgddFAOqS10Ua9AABIAAEgAAQAALWCEBdYo0QfA8EgAAQAAJAAAi8LgJQl7wu0qAHCAABIAAEgAAQsEYA6hJrhOB7IAAEgAAQAAJA4HURgLrkdZEGPUAACAABIAAEgIA1AlCXWCME3wMBIAAEgAAQAAKviwDUJa+LNOgBAkAACAABIAAErBGAusQaIfgeCAABIAAEgAAQeF0EoC55XaRBDxAAAkAACAABIGCNANQl1gjB90AACAABIAAEgMDrIgB1yesiDXqAABAAAkAACAABawSgLrFGCL4HAkAACAABIAAEXheBBlKXGCsK8oo0xOvyGvQAASAABIBAbQnAjbu2BGE8jkA91SXG4qd3nxQZKIsMf2+JD/Xw9GsWMeO0Dmcj2aa/srxL7Ad/iX4vNg7aXzsBY/b5bVvPPjMFV6j9nxVJBobJbyEPc4sIFiujRMXBhBFBo09f0a3DgjP/7BsJk5VYSuZcxH7HarTpxs3qX81LK0ZWU1ptujNzs+HYVBt/GsHY+qlLjE++7iKLWZlJrl2G68vauvVY98yIDAb2WqZPWzPyvU13zU26M9ODfMcf1TYCpE3KRG4UbHKt/PCkEFXCrwUiu18NNZI18NQGHAwMk9+iQ0SwWBnFFsd1QEQee8A/8lp3blaIYvR+TZNxnht229xishLb35w72O+YRrEbN9OjdlcsI2viY+2Uc0Yzc4llE6cHfHjFBOqrLvmqsyxmJVV0aE9NDQyYdFxQcWgOjfMOmXXO/MOGTg19aW5OIf+Jj65EnZ1Xxq5q+Jj0pXk2DiMqC3LURVr2qooTrytWZ+eXs1QKGpBRU5j9XF0i+GmmL83LK9XzLRT5zO4sJlBkKKZZV5KbW2JWTWgK1fnlRnYvoQJuFEx9cTjILS2sWwKRdCTNwvgcGXsEQ81fcRWJWMOIIQ0Txt5Qnp+dU1jJuI/zlBYiZgrdwXIh3tHkt6WfIDloLIayvJwC2i7eKISQqL9cB2h5NZkwmDkg4GXxxEpKUd0M5flqxieqSRQUNloWZfh3Mds4iaKnuBKCukSEJ2escG6zDWF3FXWLPaDKa2s8+Rq4YTeLtsUpxgq+SHPuWGSJzFDcjZuNAiGxuJBJXOV9iDHNdCX0saqIVPUdXzImM8ku3GZ6LvFHi85GDofq2CPU8M9sqee6pDg5sbm3zMFB5q1UxSy5aFnCifwdo0O9Xe0d3XyUgSHxW7IJMjW8e8+e3yNY4e4qlUdNO5BtWlJK09eNfEMZGNEqxE/ZcdaBLGahIQOqT/24a5+lPy7v3dyWYcTLs8t7Bbu5enrKPIJ7fpmuRQgn3vB496TogIDw1i0CgodvzTIiXgOp9/amUdEBCj+Vylsmb5W44xFZwJDG9P7o2zkdfNw82s7/IqlNp48umMsx/dUV3aKmHytnkpDTeXEaRqA+7dMub0zeX0RWUMSLrSMjO/37EgXQ+OSHoa0TdjCyzBg2LYsLUbg5uwQN+C4jc09SbICnTCoLH7PjMckMo0AYBSwOvqX61E86xy46p8OJJNdVeueLh40dOYw1PH6L0/RYaxivRWNflrFhTLS3q5vc3dlV2Xn2vicGjKe0HIwppYeS2nRacsH8m1ufvqJr1PSj5ZiOpM1mGGa/SbHYjlSC953/Yc8QhYdM6h45eksmmRsmWmZjcMlo+kroQA0nDMLMASEvczL3WVplSpFp123gx5uW9AwlfXJrOWIz5RPWf2y0yg5XPUkQErWNnmiL0xCRd/LDLgEuru7uPu0nzOivlJv3S3A8ednMn9ucJGXP58VpFcI5b22K5jG/fkz+W+HJ16AX3Cfxdyy+U0xWYmNhnqKoCud5N+5yLgo9Pi623IfoeWeZOv/l+6jn336ZIUKDdec/jH176WXTTzEyHO3mndZStxJsZuIT1syDGmeZzjaB1ldxi2NZDZcCAvVclyB9WU7yOH//cckv8ovoH4nk/bgse3u8V9Dkgy/yX5bqqPuzykEWNW3fIw1RcnFhW5e2y64b0P/P3ptHR1Fte/zrXUQyd6eTkKEzQEgCyGgAB1DfDSLzTAgQBNEwQ1Cu4gNE8N6l3usVrhdRjMgoIFNAjCIspkAgAYQFGPQKPxBIfhkgL9Ovk37dvbprnd86VV3DqTqnh9CQIDt/kErVOft892fvc87uqiJB5uPZKZGDVv9qQYir3Detfdtx26rkuS50ax3Sw7Nu9Xmvxen7vXemlkOWW4fXbj1jppq3nViQ1Hb8N9VYZcWtMjPSnEDIVvzd1hMl/Mby6z+eD055o0DYY4x+AcmTtt202S3/9/9+NUxvfO37RhwS68nXk0OHr69USLcenCE3tjpoBk25mW3DMnbUIcRVbRgR/F+PpSw8ZUOIK/m0f0jqimJFrLGxx0N6ztp9w2K7+cVQQ4Cu3YD3Ttx1mM4sftI/MRvXg9oBbJooUHHgrVOpVC48tCZ5X8W6hIJNkqztitWQA9HVSCb45tTYL0gJ7j4/r8SKuJoz76eF6QeuvaXJN9mMVgriynIG62KzDgixO5GdpB/2VQWnbShodj5/lCsMVkNjqzYpL2+6YuIaf175okE/9MsyzgmTV+PaXx9NGNocoPBy8HTdpBTf5jG/lMz1xSausXjVAN4nVqodnGHURIurcD1JzMeZ2qSJZnU0HMiKC+6zpKCGs97av6BXyJ+C+bqEzlOVZK6SVN1UM+dtyM0UVd5udT9FKXNUk7ceOeXMKvxUnJWLOGlpC5s0L8iFW4WCERePkkYaQaoGyNR2FRHtNcv+qZHGLFyK4GVWeoaH9VIyk3panIQYl6SJsfOoOGj1SN7BgUsCzV2XIGTJezU6+tU8540DWSx57w4nRNjEPfxOgKz58xP16TvMyHp8Xnvd4FXnf+G/Ln0+Kix+1mHxpgs25U0364/TjfoxW+tkCXTz9ssrUoM6Ttlwsdr54UlzQrRgqyu78dvPW6fGh07Y7axLQgZ/KX5Iqt6eHh49ZZ8JIeuJ7KTwMVurxH5O5UZFY+GSymDtN+lhUVO/bcDLn/HZQWnhPd65YOfufDVM3/2dC4o1j8DAla5OC+jKV3UI2QreSA4csUm6T6McgL8doIwCHQe/2CiVynOXF6006XRM2KmZ2ARf8WdyBT+zUJfIAzHUSJ0JpxUpc3hWXPCw9eLbL+a8aVFBw/G9JaWnshHxSCkFIe7OppGhQlFpzZ/fIWzMFqkaVjYUNGvqEsEmpaEhY2eDcLF++1idfuJuM+9E+GR80q2/pAPeZL7oJEKUOUDlVUPQZaUU1mDI2OnMLtP2cXr9RDwR+C+K/9oJjlxOEitbm2LuWPOzEwMH5twRin7Lj9ON/P0SBk+8s8hJhlwlqaop1S3fT1FiVqjz1jOnnFklv61HiQWuS1w5Ty7cJApWXDxKGmd6KGsAYm66EqW9xq5LaJlJTVhxEhJ1iWegtXok7+DAJYGHqS6R3nu1Fb7VMXjMNjMy70gPbh2RktpL/Hpq1Mfn1Ruyp91Mm0YEJMw9pihrWOYbLm+Y2c8YoEsevGj3Ndxec4IrzXu7f/uwyA7dUlM7RfnpMnY5iyRJDEKoft/UmLYTd9Vajs/vEDlxVy0RKNXuTjWIqjaP0sfNPFR3eHbiU389uW546FPv/1q1fVx450VniPdXCGNVOYMCuy+7yGOynVvcJXDoenzLRaNYU5cwcBDGlW5qTWIPFc012CQC2q7EHo/bMdRIJpQDISSlDI5y7MxDYpTtF5Z1D+j3T/X6LluhgMEXa7anh8e8st+EY9c2YyeOnRvNgt+4r5uGuIn16NwE/8Hrqp1O4FNu/dXWJVKySd67M6KdA3ReNxyKMCJETykyAsh6DPv0pSf+S3pdTxKPtCHz7gn6iCnfOj/4SJ+ZGSgIvzB3dpKqmlLD6sspSkkcdd566JSsnCraedml85q6xFl+Y2SsuJAJwUgabID/kkUSdYmriGivuahLpNkhZ6ZiSDwJhYQVJyFRl3gI2kX2iG7CdxqBlluXWPZMUtz9IDJGWrYsP2TF6MZtlz7uazz0ppslN9NgmLDL+YkVm3Jp3laW/+Gg6JCBa0udT1+kE/wNwwTdnz/Gj5eQ7eSCJD21LkHmQ7MSwsduzJ2TaJyifLcEj00ox3cgKQYRV7luiC5p3r//0q3TwlOWktVp+v9+/9PM6JTXC4iyhDRGXQ8oA/B1iTIKDBykUlk5xaTWMYQkbKVy9ChdNXUJQ43CiPjACJ+SU2bv5DDd2G31znaWA1lG3egtONhEvklmKFL4a3V7MqOiXt47gSuUAAAgAElEQVT53dxEI3/PixYiQrOACUdWG0up4V7n7tmwa4LBkJkrflTDI7r1l3SAiIrsvZsJQ5kDVF51HqSUmAmiT6adGaGGzFyX/js/wkt68b7LniQWT7Qh64GsmKARm5z3Qa2HZsby90sYPAluUhbISUo+alVsxvSw+nCK0sCp89ZDpyQn6aKdl0XvZefFM/x35Y1uyaBwhREXj5JGGkNhk0xtvoUsShERZ1/5Gr4bHyUVIPiujvBukWBbnZlOfarT4iQk6hIPQQuCFHok7+DAJYEWXJccyIrRj9qMX+NQb9PSssXd3TYuImLIZ78JyznXUF5eS6SpIrcVexO9G1eWM0QfMeyL6zaE7BVHV35y4H+p5i3Xzp6vxHcbHFc/fCaw70fXG1Un8DOBiaHh43fUIPx21Iq+Ovr9EoSsBQtTQhLaRcdn/SA8oZJjRShnGMQfPT97MahtVGTMtDwzcvz2wdNBkVERiXPVv+eFMEatSyiKhbpEEQU6NnKxUYSKYpKIpIaj7Dylq7R1O7cuxFAjGyGcllOmYuPI0NC0jy5h4NarOSOiIkZvrsDru8JT2QiTPGrIe9UY1rGTUYydO82CHP4DriY5BOeMj+mfXXr8LofsN3KGhoeO2FAhPtrGetz6SzrA8J6a0bK7lDlA5SUKcwaDmlJ8XYJ9eie/Cvv0heATjag6uFK0sDL2JOE80Ya4yvXD9WFD1l63I666YMULhlb8+yUMngQ3hDRJqnjxlWxKj78PpygNnDpvPXNKnrJ00U7HtM7LiYIHVjyAJ1Gw4iKPiw0xkkYaQ2FTmdquIqK5huyXlz/p1+mNkw2Iqz75bj+9EHsshJKZ9NPKXJc0eQZaq4crzfvb3GV7flekkeQwHMgEmqkuufmv/9Y9/cGvODrWgzPj42dof9ERV70/q32bYGNS4rBPbjqsx+YlGsW3UOznlnQLy9iFN0777ztm9DQExzzR5+lenYzhyfMOOj9xCi56181y+dMR8f6BkR2SjQZj2odnzFTzNXtfaxdq7NI7NSnc0G3W3jJOfQJXI0cXper1SU/37dH5+WkZvaMn78WeKn0Q9NkvLOvxeKuEOUcI1fiaqjHVIK6Nbq4ZEPKYYfw3uAayX1zRy791wuzDamuEsZoNw/W9/8r/7hhkv/huT/3oLfU0xbwRMgpU2oRxpXK6Zqm5GpuyoNR2xS+dqfhR1cipTTRXpsy1r6d11fmHJ3ZKigyO6D0v9za/SJCeyma0UpzXzEezkx9/PHmB+H+qtA0JzYIc3Jfe8OicpG7pM19qFxGXHKsLSBj1+RX8rEnu5TbXSQeY3rueMIgyB6i8CPv0lOK3IV2f4YM6RMYnx+oC241ey/tE918ZXEW0cFozJwmyu9eGK8HzHw+IbqOLTUmI7pS+fNYzUZm5OLmp+UP4hZCrJFU1pbrlyylKSRxcrxLrpEdOKWYSVbTTMZfOkwu3CgUjLopx8aNQ6jokTzyFTaWPF3erll+5B02w4+aWCe38/Nu2T4jtOum9uc9ET8a3Q3B9QclM1mkpNxWampY9tqLFXYOTX5f+56lCPBwqCDRPXaIQ4OqQq7/5U8Hp4gr1NqvqwzWWFReeLDj7S3mjcm9TtdL8SO9mqfylqKDwimJMSjtr1dVzBQU/3agVy17NCYTs1VfPnjonN9GMj09wpWsH6pKyhf/fS20hn/TIoNzc+yPGAKooUHCwh2KYFDtQsImXPOOHvFIj2UYO0+1LpwsKi8v5m0LieZWn4mkPpeCdzpOYY7Pshg0lF0+rdUlCkBt/WQ4oDOBDd9C0c4DOS2VW86Pz06W5sfTS6SLllHLhv8aI20nikTYOcy26UqleStyhwKWherJTJDpPscPK7uPdFeoI6rB74JRiVKpJ8boXzotdxO8exUVs7Pa70kdXomjXGssuny765Y74ThmOqfCMV52ZjNNMcR6Apulh2oMLIoEWXZeIIv+w3x3XVz4flPyG6m2QP6y74NijRcC5zKtrAS8hwCTxEhg0d0uAkZmM027NQQNfE4C6xNdEvbFX++3CARmrLyn/B5E33aEtEGjJBOwXVqWP/KCQfAfba8EwSbxGBh3cEGBkJuO0G2Nw2fcEoC7xPVOwCASAABAAAkAACDSNANQlTeMGvYAAEAACQAAIAAHfE4C6xPdMwSIQAAJAAAgAASDQNAJQlzSNG/QCAkAACAABIAAEfE8A6hLfMwWLQAAIAAEgAASAQNMIQF3SNG7QCwgAASAABIAAEPA9AahLfM8ULAIBIAAEgAAQAAJNIwB1SdO4QS8gAASAABAAAkDA9wSgLvE9U7AIBIAAEAACQAAINI0A1CVN4wa9gAAQAAJAAAgAAd8TgLrE90zBIhAAAkAACAABINA0AlCXNI0b9AICQAAIAAEgAAR8TwDqEt8zBYtAAAgAASAABIBA0whAXdI0btALCAABIAAEgAAQ8D0BqEt8zxQsAgEgAASAABAAAk0jAHVJ07hBLyAABIAAEAACQMD3BKAu8T1TsAgEgAAQeLQJOBruVlSbuUcbAnjfRALNUZdYyq+cO3uG+Dp7/noNsp1e1rfXX45am+jKw9HtkXDyAYbCUXJs/bpDv9sZQwq4GRd9e9oZWYSQG01NGZYxZzhIp6bQbGofW9Hy53ouOPjHXqFIOG5ymT6/7P/JGZMQHBLRNnnmgT8crHubcvfWm4zNH/inZqhL7Bc+fKljclJSUmJU0J9a62OTkpKSkrtk7ULWgzNiwyfvs/yBcSOfOWkr/Pu4l9f8zNqPH06GTXDKlPtKvDHj67uMD2ZCTj0QGs70RQi50dQENaw5U/tIzJkmALs/XaxHZsfrx+803x/r99/qA5pf9p+WdAl8YdXvDmS3/7EWKBwib6ccCd3b3vc/KVrkCM1Ql0gcqtcNDuiw4KRNPCGFzFZXXlqlvgVorS0rqahnpjnXeLe0rNqi3J7spsqS0qpGh2hf/m6tLS+vdY7LmavKKk2aRnZTZdldsq/DXFVyq6xW+wHAVleh1SuPRhy5cpI6gLWmrKTSpPHbvGeSIX72Ea0YYjTyBzYQsZ2trqKiTgwIVY7Y0qPvbjhrBqA6xQg8IVVSozYp4JYuywcMrHID5RElGfBl8rQzssp+4rEHLniop9nmjJtQanHwvqvDIQJByJs5I/Zyp4E9mmhB+501J8j0stVXlN5t5DR1iQeBJYYkrDZFLmHNax60+eWdC2rN1Pll+eG1mKhXviM+YBKe81OHvja780kBgBU6em4x/JTssayphCvqEjufFKqdQ2uGhO5q/Ze0wEFLq0sMA+ZkvxCnD/Jvres6fVeJEPS6olXjnoiOSe4YHxHde/aum6pU4O4cWvZiXKB/SEhAcFz/D4osCNWfWz2hm8E/UBfUxj/62Tk7rvP7uu3U0n4vLV6zJC1eH9jGL3bIv84Vb83qFRUS0DogacLGa9is7dTS54YuXbOof4I+OKB1YIexa4vx9LJdWpPeLUofYTQaAnQdMzdexfYEc58vG9BOobc+N6tzn7ePO+ek7czy57rO+NYkJxrOS4qT1AHs17a80i0qKqlT+6i40etkt7nKjeMTDP5/eiwwLDomfkzO9VPv9n1i2s5qXJRxt9eNS+nzPyf4gsVx/bORnTI2VnAMIJIs7MqAt1fO7RkWGNzlrUKbVo6t0M0Yki0RjGvOGqBqp0o4hGiBV0ltOPXOs70W4vpMq1n6cKPQhssJNVbrsTd7Pb3YWSBjR7vPP8BHnZEM9NNyXWKTNHnkglmth5RL/ESrSyjpRB9XYcnTOePjKdOkOeOBBkrw3U1ExiKhSi+EuIrv3+wb5ecfFBTWY8rMwdE65/0SD3JTLPCFGeGz+dU0HpT55YkLci57OL9qtmW2MwS0ahVgiDamLso3kSsLcoHdzdKsyF76ciZwUa3HuBfNT4+sKUMmdeBX8IHZb/aPx1tEUMr4HH6LoDqmhc5Y/yXrcMATaGF1ibFVQNfpO66audr817v4dVnykx0h8/HslMhBq3+1IMRV7pvWvu24bVXK2yL1ea/F6fu9d6aWQ5Zbh9duPWM2H1+QEtx9fl6JFXE1Z95PC9MPXHvLwVe6xsdDes7afcNiu/nFUEOArt2A907cdZjOLH7SPzE73yo0ecwvJXN9sYlrLF41wKAf+mUZh2zF3209UYL3Kuuv/3g+OOWNAmHPM7YO6UHq5Sq+GqY3vvZ9I8ZrPfl6cujw9ZUKudaDM2hOagewIduJBUltx39TjQ1V3CpT3j221pdsGBMaO2337co7dVZkys1sG5axow4hrmrDiOD/eixl4SkbQlzJp/1DUlcU21lApEmAVfkFJE/adtNmt1gdNH/djSHZ8ogzzV+VU4zAq6Q6qwELomkWP9wotCEKVsv+qZHGLL4UQUjxmRgPRUkG6mlxqH1CYjgfSNJzl3Th/9hhJnTzP1DqElo60ceVzXk4ZzwKJRUHY8rgm+Bezxncx820pQTf4mYiMuYEGRsHajiQFRfcZ0lBDWe9tX9Br5A/BfN1CR2wurMEXH1Bm/5u57Bki2foPQ8bUs0vz1xowvyqL902KTJy0rbbldWNDrXnLrC780kiQLUh5KpmPXa/f7iwplwSpdGxR63apLy86YqJa/x55Yv8FoGHoW46Kuh88CibnGQdDngCLawuiQ2buIff0ZE1f36iPn2HGVmPz2uvG7zq/C/816XPR4XFzzqseHxh/XG6UT9ma50cUOvhWXHBw9aLrxyY86ZFBQ3fWCPsHOIAXOnqtICufOGDkK3gjeTAEZtMQhNDxk7nDQ7T9nF6/cTdYkVgqyu78dvPW6fGh07Y7dx+RHOyXlS9PT08eso+bOxEdlL4mK1VsjRSg6KT0EQ5gBnZL69IDeo4ZcPFatUNItyYvDtY+016WNTUbxvw6mZ8dlBaeI93Lti5O18N03d/54KdCUQShudayOAvKxQFFL4hRPjregzJlAoMgzPNX5VTjMCrpMrrptakVCIoxVGwuqhLYinJwH/kUeeIENnwyURd4pELLsNMKEcIUeqS+zhnyHRlhJKKgzFl+Ifz3s4ZPIDYh6HBiUmZsGbXE5E1J9TplZ+dGDgw544wMSw/Tjfy90s8CqwidiqrFLkIeTy/msqDnF8euoAHU770p0RMn18IWfJejY5+NY+/Z6zy3AV2D2OMEN0Gmavy0srwUwqOC2uUJdHpsiFjZ4NgoX77WJ1+4m6GqBrNSq0MnixSUgMHAoGWVpdIU8BW+FbH4DHbzMi8Iz24dURKai/x66lRH59XvG5h2jQiIGHuMUWlgs/EzjwknrFfWNY9oN8/b0g7h/CMpSpnUGD3ZReFBzznFncJHLq+TtUEWY/NTfAf/GU14krz3u7fPiyyQ7fU1E5RfrqMXdKcdL6nK+lFqH7f1Ji2E3fVWo7P7xA5cVctkWvEPJc7aQfAK3vD5Q0z+xkDdMmDF+2+JvojmCPrElS1eZQ+buahusOzE5/668l1w0Ofev/Xqu3jwjsvOmNDTCCSMkIVfhpE89flGJIpNRg6Z+0A2F/CKUbgVVLlH7UmJSlKcRSsruoSKSHlZJCHxHadOSKljjToPgsrd0kDLsOsUk6tSySJUjox0EnGPJ0zklO+mjJ8XaLV63rOELjo6URJWLNro4w5gT/fK/dh8+4J+ogp3wr+y/fSGIBVnSXepNv3Or+IUbzhQcwvD12QB/N8fqnqEiVPj7AzfBJx0m2octWruaDdLVTWxKHxd5kI/9NRvEWsc7HGEosa2VsSqbQPxwihll+XWH7IitGN2654RYMMnCU302CYsMtZvuJrlr2Tw3Rjt9U721kOZBl1o7eoiw568gtJt9e5Dpl2ZoQaMnPN1iOzE3R//hg/SkK2kwuS9C7rEmQ+NCshfOzG3DmJxinKd0uwICKrpbykDCB+4kS2svwPB0WHDFxbqrybYdkzSXnjiKtcN0SXNO/ff+nWaeEpS8nqNP1/v/9pZnTK6wU2F0AkkoQq/lkGxV+XY0im1D5SOTP8JZxiBF4tVdxHKCYlKUpx4rGMFX++i5I2S/wBz/kOAT0ZnCFU5YgUWWnQfRbkmQuCIoUeUSLlO+1+iSRdSifGuJI9T+eM5JT7ukSFgzFlGOmPS1L2nCEiTk0nXDCoE5avc9lGWYsEMRhC1gNZMUEjNjnvxloPzYzlc4MBWNVZ4k26fa/zixjFKx7K+eWhC9JgFMRSqsuO8kcu6hKPsNN9kgah21DlqudzgbpbqKxJY0sui/nesGuCwZCZy950kBK6yqwkUmkfjh+KuoS7u21cRMSQz34T1kauoby8VrlBc2U5Q/QRw764bkPIXnF05ScH/rdi48jQ0LSPLuEnQtarOSOiIkZvxo8opDmGQ09PfrwrPaZ/9p38Kg7Zb3wxNDx0xIYKzrxnYmj4+B34rlxd0Yq+Otf3SxCyFixMCUloFx2f9YPwVErONUKDlJeUAczIcu3s+Up8P8dx9cNnAvt+dF35OMdyICtGP2ozfvmE/+JKP3sxqG1UZMy0PDNy/PbB00GRURGJc/nfBsOxgIidSTL4vgXNX+RqDMmUNHOdN5KonCkD4H2EcIoReAKgIqYUk5IUpTgtVmS/vPxJv05vnGxAXPXJd/vpWwnvEGAqlGSgn5aUSIPusyCPXNCEGX/4/9vcZXt+V8bb6YJndQljXAmDp3NGcspNXUKhRA8HmWhS+mNh7DlDRJyaTrSE5et6tlHWnCAGw2+0rR+uDxuy9rodcdUFK14wCLnBAKzqLPEm3b7X+UWM4hUP5fzy0AVpMHpAhcuyo/yRi7rEI+x0n6RB6DZUuSrlFsNP76xJrYXZjfN96fG7eIvIEbYIRBeFNyoldJZIpX04bua6pHbTSH3nRYXSW+vWY/MSjc7Hksh+bkm3sIxdeHWx/75jRk9DcMwTfZ7u1ckYnjzvoLBMigG0XP50RLx/YGSHZKPBmPbhGTOyX/t6Wledf3hip6TI4Ije83Jv80s8MUDNhuH63n8t5p/j2C++21M/eku9kDa6PsMHdYiMT47VBbYbvfYKfn5Sd3RRql6f9HTfHp2fn5bRO3ryXpygDL1Y8oVlPR5vlTDnCKmU3Uk7gAXV7H2tXaixS+/UpHBDt1l7y5TVGOKq92e1bxNsTEoc9gn/P3UcN9cMCHnMMP4bXD3ZL67o5d86YfZh5/gMICJB0hWWvwi5HEMyRlqjc6b5i9ROUQNPUFcGQWtSwi1LQ4iG1XFzy4R2fv5t2yfEdp303txnoifzH4fwoktJBtZpIR2kQfnn6x64oA2zrWhx1+Dk1/F72OqvBz1nCNr0UDJwUMNBpoZijruaMx5ooExQIfPZE5GxSBCDYfrm8x8PiG6ji01JiO6UvnzWM1GZudi0B4FVxE5tlQ7Hw/lFGKPHhMGDXDQ8ckEejKpZuKzwFB9aD86Mj58h/Po5ub+zEX0pIpoxfJJH8cCGIreofsrGPE0EsYf16JykbukzX2oXEZccqwtIGPU5v0UwzKgXNcJRhUjROnznCTTncxxvQsA1lhUXniw4+0t5I7E9izYslb8UFRReqZDrAIfp9qXTBYXF5fwHJ7Gdu+94kQ2fvM/cWHrpdJHSHLJXXz176tyNWsqHWK1RrnTtQF1StvC/dbWXqWdoA1irrp4rKPiJPipXf/OngtPFCp+pdsWTXgKhyRFN+eQ7fQC1U+4CT0ihmySa8D/QsDaWXT5d9MsdZS3ASAbGae0wzjPuXaDpYZrz+IK7cX00Z9g4PA2H4FFT5oySBXU0N0Y9mxNcQ8nF00VXKuXFxanYzaKkVKc5psrVtLqHE/QBVPPLXY6Q49NNkm08+ckz7K4teWfDnZ/eWeOV4aRQby8MMyrorh2Dq818v6QlBsC5yKpXIC+lOq6vfD4o+Q38bgd8PbwEGMnAOP3w+nlvyn2E477Mmfti9N5wQW8gAATcEXhY7pe488NX1+0XVqWP/EB+ttQ0u7XfLhyQsfqS4n8NNc0O9GpWAoxkYJxuVqnNOLiPcNyXOXNfjDYjaxgaCDwSBKAueSTCDE4CASAABIAAEHgoCEBd8lCECUQCASAABIAAEHgkCEBd8kiEGZwEAkAACAABIPBQEIC65KEIE4gEAkAACAABIPBIEIC65JEIMzgJBIAAEAACQOChIAB1yUMRJhAJBIAAEAACQOCRIAB1ie/C7Gi4W1Ftpv7aN98NApaAABAAAg+GACxpD4YzjKIi8IeqS2ynl/Xt9RfsoaPk2Pp1h36/P79AxHrnt4uXb9UTBYj9PzljEoJDItomzzyg/JWhKtxe/yi4xP+VG6/7PpQd3ERODrHsna8Y+cqOrOw+H7lh5X50W9Hy53ouEH5huNvWDx0etx61hAYMqsJpXwhkDODetGJJy/t/3CynLjKxyeMjr7LTvT/qFvfZvHo4+NkbAn+oukT4zZPYfVPuK/HGjK/vErWDN1zYbR03/50W8F+tYqf/qPiTfPaflnQJfGHV7w5kt9tthX8f9/Kan5tYFJG9ffTLNNnu3NcrpC8eDeUmcnKIZWu+YuQrO7Ky+3zkhpX70a1HZsfrx+9k/qUGIn4PHR73/reAFgyqwumm6SOipv6TgR6bVC5pte6WUxeZyHDQAx3ustMDE66aNMk8ydaVebh2LwSasS6x1pSVVJo83L3tpsqyu42av01DnnYxma21ZSUV9ZrBbHUVFXXO3xbvmR7Hb3/vGzkwc3hkzJR99RJ5yw+vxUS98p3w6+vNeyYZ4mcfIW+beCBAsEb2lma1ra68tEr9kIhhVJKFlP4hh7mq5FZZLalLbuv+yFpbXl7rpMWZq8oqTWRANAOQvggDMDQTSmUpapO0ELtipO7PW2ZEWrJjr68oVScbXTb9LMLctdGSvSLjghDNDNd4t7Ss2kJU1rR2CqvUQ2ofG+8h525pJuIn4aGmItUHWRDNG7upsqS0Sjupkbs8w2bJmc8PRI01vuIuGrJM4YhuSJM1mhP0QGKbbI8kqmTSCacVwmhhpAjAPYioyXUJNWw0s8KoxJKmEOI8dMlUKUxy0PPxPclOSvyFSEvruZAklAzzxLzsMJm5JFvcSumr3AuO7o1A89Ql9mtbXukWFZXUqX1U3Oh1N/k/wfpmr6cXnxQ2PVvhu327zz9gQch2aulzQ5euWdQ/QR8c0Dqww9i1xXjvZ5yWJ7Pt1DvP9loolAZ1RavGPREdk9wxPiK69+xd/B/ftZ1a2m/A2yvn9gwLDO7yVqFWD4uq/fLyXlEZO0q/e9UYIfzpXoRqtmW2MwS0ahVgiDY+OeftsQkG/z89FhgWHRM/JqeEQ8gDAc7huMqN48ne2CXDgDnZL8Tpg/xb67pO31Ui1AI0o7JolX8226U16d2i9BFGoyFA1zFz41U7ZvzEtJ3VeN/jbq8bl9Lnf4S/Mui4/tnIThkbK0hjLy1esyQtXh/Yxi92yL/OFW/N6hUVEtA6IGnCxmu8Hu0AWl88AWGTI6c1yf+pUvx3FWVt+IjBiNpfFWmiruLtDMx+s388TraglPE5fLJRZbOj+tLiz5cNaKeKlihYHRe6Ge7OoWUvxgX6h4QEBMf1/6AIpzwt3iKruj1ZnfssOu687WErWt6v64x9JnofxFV8/2bfKD//oKCwHlNmDo7WMe6XaOL3f6xUpGoTPUaI5k39udUTuhn8A3VBbfyjn52z4zr+xIDhuM0zxoKgyW/JHhmN+tyszn3ePu78+1e2M8uf6zrjW5Mslpo0SJU1SH0CpxE9QG49YiQdPi3mOc2ySpGUx5qocYzZQRcsglAuaamL8k3ScirEiGTKoxbXW40w78Z3l52MlV81rxBC1AxjJL/1GHXzUWfu6Vuq1dlGbmNSEESK8L3JBJqlLrGdWJDUdvw31XhPqbhVhtdTy/6pkcYsXIrgk9LtZevBGcbH/FIy1xebuMbiVQMM+qFflnF4J2Kcdk5mYVrvsyBkPp6dEjlo9a8WhLjKfdPatx23rUow4BeQPGnbTZvdYv0/rR4GUNvZt7vETM6tR+ZDMxNCR268w3+ctdWXbpsUGTlp2+3K6kZzfcmGMaGx03bfrrxTZ/VMgJzRVlVv7GmrgK7Td1w1c7X5r3fx67LkJzvLqCwad5P9cyBb8XdbT5RgutZf//F8cMobBciUm9k2LGNHHUJc1YYRwf/1WMrCUzaEuJJP+4ekrihW3FrCxh4P6Tlr9w2L7eYXQw0BunYD3jtx12E6s/hJ/8TsfHwDRjuADal88SQSDvnjHcWkswYR12vRXQYjmiRK5olW+PrG2KpNysubrpi4xp9XvigkG102/SxW0jqkhzpa5BDKuFDN1Oe9Fqfv996ZWg5Zbh1eu/WMmZ3F+I9fW7iynMG62KwD/INF64nsJP2wryo4qm3UcCArLrjPkoIaznpr/4JeIX8KZtQlSB0/BmaGNslnqjcLUoK7z88rsSKu5sz7aWH6gWtvCfzd5RkWQVkQaLHmVwl1NGwVXw3TG1/7XkB18vXk0OHrKxX3pKiGNFmjOcGAgNW68Yinqkk65zTAEKlh1AqQeKtmHU/B+xWEWNIc8nKK5aqZ2oWPBjgTkVYY76CnK5jb7MTWKPHHp8l5RckwByv5GZuPNnNJtlpfpSDAwT0SaJa6xH55RWpQxykbLlZLGzIjNfhiO2On8wONafs4vX7ibjM/aw3008KmJU0k6/F57XWDV53/hf+69PmosPhZh638ZA0Z/GWFsCJR9NCxWk8sSI6d9l0D3iDzszuEvPR5qWDBkvdqdPSreUJZRdzr80iAcjSiN+9p2MQ9wqss1vz5ifr0HWbEMCqbwfNU9k88b6sru/Hbz1unxodO2I1Q7TfpYVFTv23AFYrx2UFp4T3euWDn7nw1TN/9nQuKsoTQwJWuTgvoytdGCNkK3kgOHLFJ/ripHABXm0pfGJrVSqXIOUUrTbLrklgtI0p/M3IZaWey4ejiD1zbx+r0E3fXUhOI7QxbCQZlFBQAACAASURBVDaq8pZq5v/7cbpRP2ZrnSCD/5fajs9ivi5B3J1NI0OF3daaP79D2JgtVRy9jzU/OzFwYI5QTyPLj9ONrPsleGBl/Ig0QFIqustFK8Wbw7PigoetF1/+MudNiwoavlHY3MQ4svKMsSAIrJS5YibtyYKrt6eHR0/Bt5NwBRc+ZmuVArTzUGVIkzWaE3TYBDKGR9SkE1Y4fimjW9YIUPpARI3QIFOgm1VaUS5p8qTER2KMZGv8IHxdohVG70Ef3312OnFRNgTlemelZlgNyzx986FkLjkjtL4q+cHxvRBolroEoYbLG2b2Mwbokgcv2n0Nf96mp4ac77yP1mNzE/wHf1nt+jRuKk0k84704NYRKam9xK+nRn183i5fd7LT6KEybfxxRpxfx1EL/wd/vTW+e4D/C6tu8KWVchKTq7mHAuTxtKsKP+FxA1vhWx2Dx2wzI4ZR2Yjkv/MUV5r3dv/2YZEduqWmdory02XsQghVbR6lj5t5qO7w7MSn/npy3fDQp97/tWr7uPDOi844XyIRehPGqnIGBXZfdpGvW2znFncJHLoe76DaAdR1CUMzYVwZOYpJ6bLsKD4iTEiMKP2xJBeRJuwg61GcbOtKqQnkiTOyElkuOQQ9jrWbRgQkzD2mfA3I/XA129PDY17Zb7Icn9+hbcbOWkS3bTfvnqCPmPKt8zmGfGNSlqg8InKR0C47x9AmmjFpvcGnYmceEh20X1jWPaDfP1VxZOQZIQJJCwI1/Yi2suD6fVNj2k7cVYtRRU7cVSsq5b9TDVGyRpVGDAiEArpHRBMx6cQVDpeG1PyjKJLdIKLGmB0ss7IV5ZImi5SPlOuRchAVGeUltyuY++wkxpfjT55G9Ay7YWIkP33zoWQuWZe4DIIMEo6aQKCZ6hJeqa0s/8NB0SED1+K6JO/VKGn/xZ8qhY9xQr7tdS6jpp0ZoYbMXPHTBOM0ti3lqeWHrBjduO3yR3qBkXRdiUypR3lePK7fNyW6bb/p7y53fr0+KN7/qfd/xYWJchIjy55Jwl0Z3NEbAfxARG/ZEXxNWlsZRkWhCv+FU9YjsxN0f/4YP8xCtpMLkvR8XcJVrhuiS5r3779067TwlKVkdZr+v9//NDM65fUCoiwhNTBWV+0A/NM5BQmGZnUkpJ/pmoXLsqP4SOqCf5AYUfpjSfyXFGnn7S7hrGBHzKqGXRMMhszcGmoCeeKMpMQ5KP5GSGUkhyU302CYsMt524bv7MFwdXsyo6Je3vnd3EQjfzOAkXjWA1kxQSM2OW/GWA/NjHV1v4TIRUK77BxDm+g0zZu9k8N0Y7eJb41bDmQZdaO3qODQ88wJUIyRuCDQY80QjMyHZiWEj92YOyfROEX5bgmODz2PBWekrBF9k06UMiAQCugeCU1Eh5xJJ65w7PVDpahUlIS/E1EjU04KG0OwwoxySZP9kI+Uc40cBF8Rl/ZS8pKb8d1nJ4lLjD85CEIWaobVsczTNx9K5qrZ8rhkXxXPAxUg4bAJBJqlLrFcO3u+En/idlz98JnAvh/hN6cvL3/Sr9MbJxsQV33y3X76VsJjb1yhPKZ/9p38Kg7Zb3wxNDx0xIYK5/sl1NPq90u4u9vGRUQM+ew3obThGsrLaznVEoi0erjSvL/NXbbnd+k5E0II3wCOeWW/vF/Yzv7PE3493sX3DpSTGFkOZMXoR23Gr88g5JEAZeCI3uSEk2Y1w6hshlg+cJU/MTR8/I4a/vW8FX11wv0SxJV+9mJQ26jImGl5ZuT47YOngyKjIhLnqn9bCmGMvrpSBuDrEgUJhmbCuHLnppiULsuO4iPChMSI0t+sifR1ZYCdybb0+F2cbDlCstmpCeSJM5IShVpCKiM5uLKcIfqIYV9ctyFkrzi68pMDNZ4M15D3qjGsYydjfNYP/FM/eh+ucv1wfdiQtdftiKsuWPGCwTnRkOXc2uw3N19RPr9DZCYT2mXn6ONIPtO8qdg4MjQ07aNLWKf1as6IqIjRmytUcaTnGY41ZUGgxpqRF3jMgoUpIQntokVUkljaRDEjTdZoTlxnQCCQ0T2iJh2/wglLGd2yesW6LrugihqDAt0sYUXxaFr2Qz6i1yVaYfQe9PGZ2SkJo8efdBIhjpphHMs8ffOhZC7JVuOrA9+j1ewbknY48JxAs9QlNXtfaxdq7NI7NSnc0G3W3jIs13Fzy4R2fv5t2yfEdp303txnoifjzxA4qXV9hg/qEBmfHKsLbDd67RV8+5d1+ti8ROOr2JqVP+Lf97D/vmNGT0NwzBN9nu7VyRiePO8gtitfRwhp9diKFncNTn6df6XTCbN+x/iI+Ok/yGUJQvbz7/YMfHL5ZSxoZnz8DOcvqOKq92e1bxNsTEoc9slNB/JAgDJeZG9CqP3ckm5hGbvwjk81KpshuuFq5OiiVL0+6em+PTo/Py2jd/TkvXxbx801A0IeMwj/sch+cUUv/9YJsw87705J1ghjNRuG63v/VXgt1n7x3Z760VvwB1/tANgK6QtVM2GciJzWpHRZksYfECZkRtr+Fk2kiU841qNzkrqlz3ypXURccqwuIGHU53yyUWXTA8BQIsslGuDTVOOWy5+OiPcPjOyQbDQY0z48Y2a0I62Zj2YnP/548gLxP5vQbSPz+Y8HRLfRxaYkRHdKXz7rmajMXPxOeMVnL/q1neZ8Q0oUTMTPrJwzMmaGNtEEQjRvrn09ravOPzyxU1JkcETvebm3cX1IuMPIM8bMp8WatKcUjOwXlvV4vFXCnCPqVKfnsWZ9UJ/gGBA88IiRdEJPHiItRSgCZOBE1ByEBgUFmlnZBrmkyTbkI5y80nokndYKky5h43IPr7JT1sWIPzEIPxA1wxjJz9h8aJmrZHtxN7mNcQhR9g1ZOxx5TqBZ6hK8BlVdPVdQ8NONWuUH1sayy6eLfrkjPnjGzfj/LrfP3Fh66XTRlQpxGWGcZrrNNZYVF54sOPtLeSOxE8kdqHrky94ecfU3fyo4XSwJdi9AOYK6t/Ka4tg7o/bqq2dPnSOBK4zd+yF9AJUvD1YzTZL7SDeUXDxdWFwuPfXBBRY1gehnvSZJNWOp/KWooFBOeaYI18NRbXPYw6IrleJ0Qogr2zAyJnVpkdJnwbAqfqzRqOPIjSneOEy3L50uUHGWezCO2DOfFmuGEcSVrh2oS8oW/mO8uhHVkCZrNCeaGCBxdErSiZfolmkCpB6+iZpkzqsDl8JIS9Ss0WanohM7/opGzkN6hrHMazcf3ow2c5VsvfBVqw/OsAk0V13CVkRccaahvIAKVxmnia7wAxAAAp4RsJ1b2qf3kkLhf3151qWZWvlk5juur3w+KPkN1WtUzeQRDOsNAZ/E35sBoW2zEGjhdYn9wqr0kR8Uku9hIsQ43SwEYVAg8NATsDU2qOdYy/TJJzO/9tuFAzJWXyLfpWmZ/oIqkoBP4k+ahJ9aIIEWXpe0QGIgCQgAASAABIAAELhfBKAuuV9kwS4QAAJAAAgAASDgLQGoS7wlBu2BABAAAkAACACB+0UA6pL7RRbsAgEgAASAABAAAt4SgLrEW2LQHggAASAABIAAELhfBKAuuV9kwS4QAAJAAAgAASDgLQGoS7wlBu2BABAAAkAACACB+0UA6pL7RRbsAgEgAASAABAAAt4SgLrEW2LQHggAASAABIAAELhfBKAuuV9kwS4QAAJAAAgAASDgLQGoS7wlBu2BABAAAkAACACB+0UA6pL7RRbsAgEgAASAABAAAt4SgLrEW2LQHggAASAABIAAELhfBKAuuV9kwS4QAAJAAAgAASDgLQGoS7wlBu2BABAAAkAACACB+0UA6pL7RRbsAgEgAASAABAAAt4SgLrEW2LQHgi0FAKOhrsV1WaupcgBHUAACAABHxBo1rqkseTM/s1rP/30i6+/P19u8YE3rk3YTi/r2+svR62uW933q7ai5c/1XHCwuWW489NRcmz9ukO/2xFyw41xmXHa3bBuh3Nv4NFoYf9PzpiE4JCItskzD5ilWN1P35scUe9FPSRzxHvHoAcQAALuCTRXXcLVFLw/OD44vEvamPHjBveODQxKmfDlFV/XJrbCv497ec3PdoGD9eCM2PDJ+3w9iHvIZAvrkdnx+vE7zeTZFveTKfeVeGPG13c55IYb4zLjNM3PFhkmmtAWdM7+05IugS+s+t2B7Ha7HCvfKmy2wDwkc8S3tMEaEAACAoHmqUu46n1T4wK7zv+x0iHIaLjwUZoh6Nm/X3GWEPxZW11FaZX6LjXXeLe0rNqivHdtrS0rqahX9hSja94zyRA/+4jz1oS0U9rqyrWG2VZEMRV1NtGw87vdVFlSWtXodEK6yDhtq68ovdvIqdZca01ZSaWJph45zFUlt8pqNXdWbHUVCi2uhbNsSGLFA3ZDiZvQVN1Qumzn/RNhSKfFAdg6fRgmSnowooGQtba8vNYZUs5cVVZpErWLkhGymyrL7pIBVvsvNabmq3SVduCNWpV1yw+vxUS98h2ryCZTxL2v9Cz0YWAwSdpcQaRS+hxBjNwh+9IIwzkgAAQePgLNUpdwleuGBodn7KhV8LLmZ3dok7qiGCHbqaX9Xlr8+bIB7fRB/q11XafvKhH2C+7OoWUvxgX6h4QEBMf1/6DIglBd0apxT0THJHeMj4juPXvXTcXGwlVuHJ9g8P/TY4Fh0THxY3JKOLxTGgbMyX4hTmXYhRWssO70h4PbR8R0aB8d3jY6OiZ+6OrrDlR/bvWEbgb/QF1QG//oZ+fsuC5UFozTXMX3b/aN8vMPCgrrMWXm4Ggdf7/Efm3LK92iopI6tY+KG71OKR7ZLq1J7xaljzAaDQG6jpkbr2LzmMyAt1fO7RkWGNzlrUKbK/dxc62Nuj1ZnfssOu68V2MrWt6v64x9JkpDPNg7z/ZaiGs6ucKgNuSxDsx+s3+8PjigdVDK+JxivFvKvR5QmCjpQY2GkF9rlqTF6wPb+MUO+de54q1ZvaJCAloHJE3YeI1PIduppc8NXbpmUf8E7FNgh7FreZ+o/lPztT43q3Oft487ywbbmeXPdZ3xrUmR796pVc2Gmm2Z7QwBrVoFGKKNqYvyrXKs1CnCzyXXvqqyUNTou/lDnytqpYg+R6g5rukriobvQAAI/AEINEtdYj0yJ97vhVW3lDc9UP3mkQH6Cbv5Dc3YOqTH9B1XzVxt/utd/Los+QnvyvV5r8Xp+713ppZDlluH1249YzYfz06JHLT6VwtCXOW+ae3bjttWpbBprS/ZMCY0dtru25V36oT91dgqoKvasBsrjmv/fE731F9/tiJUe3BWinHC1jILMh9fkBLcfX5eiRVxNWfeTwvTD1x7y0E/jRBqOJAVF9xnSUENZ721f0GvkD8F47rEdmJBUtvx31TjTbziVhnxYMdW/N3WEyX8/v7rP54PTnmjwCaQ8QtInrTtps1usTrcCEcUG1xZzmBdbNaBRpy61hPZSfphX1Vw2oZEXSFXGNqGTlWt2qS8vOmKiWv8eeWLBv3QL8uUT3/c6PRNmKjpQQ2S9eAM4+MhPWftvmGx3fxiqCFA127AeyfuOkxnFj/pn5idj29P4TaP+aVkri82cY3FqwY4fdL672yryVeu4qtheuNr3wugT76eHDp8faUiN2nJzFSrsY5s9aXbJkVGTtp2u7K60aGoAbFwRYp44Cs7C30UGOpc0SQzY47Qc0fl5R9gHQYXgAAQkAk0S11i2TfZ4DfkqxpZBkLIvGeiPmD01/yCFRs2cQ+/oiNr/vxEffoOM0LWH6cb9WO21smdrMfntdcNXnX+F/7r0uejwuJnHSYeemjvQ2sNu7Nizc9OMr76PS4RuNLVaUHPr7zpsB6eFRc8bP1d50ZjzpsWFTR8Yw39NELW/OzEwIE5d4Tmlh+nG/n7JfbLK1KDOk7ZcLFacZtHdg/f8agru/Hbz1unxodO2I0RHJxhDBn8ZYVgx51wpyXSBndn08hQYb+05s/vEDZmi1TJKRsy6hLBpLKhoCrWkLGzQbhYv32sTj9xt1neK93r9EmYtOlBDxIvTEwDHNGArkLdi2wFbyQHjtiE72rw94AydjpvcJi2j9PzPmn9d7YV7SnytXp7enj0lH0mof4LH7O1yhkQ/I2SzB6oVVhHlrxXo6NfzRNuyMiVI5kinvjqKgt9EhiqY+pkZswRRu6ovFSAhUMgAAQefgLNUpdYj85N8Hv2H9eV2zF394uB/jFZB4Q9QXo91Vb4VsfgMdvMCJk2jQhImHtMUXeYd6QHt45ISe0lfj016uPzxIsa2nVVa9itldpvp8ZGpy3e8v13OVndDb2WX7DzWmJnHhK12C8s6x7Q75836jaNCNCeRsi8e4I+Ysq3zpv6ivdLGi5vmNnPGKBLHrxo9zXRGp9UXGne2/3bh0V26Jaa2inKT5exy1kBSA4gt8KpNlDN9vTwmFf2myzH53dom7ETP0vTNmTUJdqGGlU4tv6D11XLdYlbncgXYdKmBz6jjcYNWRgGXZUzKLD7sot81tjOLe4SOHQ9rnzljR43sh7DPn1Z7Q4UriSlfEX1+6bGtJ24qxaDjpy4S/nQkpLMHqlVWGfXJcp3uwk/GL4idhb6KjDaMKgRM+YII3cItx7+RRg8AAJAgCDQLHUJV/nV0GD9yI3OGwhYEFf1zfgI/YgNd1QLlrwSW3IzDYYJu5wfy3Efyw9ZMbpx25VP7QnfELLsmaS4h0KsZpJhd1Zsp9/q0nHE/NkTRo3MmPvxodv4RUnL3slhurHb6p3DWQ5kGXWjt9TRTyNkPZAVEzRik/NWj/XQzFjh/RKhu60s/8NB0SED15bK6q1HZifo/vwxfkKFbCcXJOkpdYk74XQbCNXtyYyKennnd3MTjfzHeURpSGzNEjdKQ6ku2eusuhp2TTAYMnMV90vc6fRNmCjpQQ8SWXMw9mrBZdEn086MUOwTxX8CFFmXIPOhWQnhYzfmzkk0TiHeLUGoiWqlpEUu7pd4XZfwaSdloZyEPgoMNQyqac6aI4zckTJSKRaOgQAQ+IMQaJa6BHHV+16J80vK3Pwf/mkNZ/r5qwmJgSnzj+Cdnlh05JWYK8sZoo8Y9sV1G0L2iqMrPznwv3e3jYuIGPLZb8KWyDWUl9cqHuHj+uFAVox+1Gb8BgfTMOfGSsOeSRGxLy3695cbNm/buf/kbzUOhLiKjSNDQ9M+uoTlW6/mjIiKGL25gqOfxi+/rB+uDxuy9rodcdUFK14wtOLfL7FcO3u+En9Sd1z98JnAvh9dl3PKvGdiaPj4HfhJV13Rir462v0Sd8LpNvDbLnmvGsM6djLGZ/3A46c0JGhJAaE0FOoS42P6Z5cev8sh+42coeGhIzZUKN4vcafTN2GipAc9SGR+sesS7NM7+VXYpy+cPlH8J0Cp6hJkLViYEpLQLloELce3iWrl2eC7ukSdhbJIHwWGGgbVNGfNEUbuSBnpFMuV5v1t7rI9vytvwCr9gGMgAAQeJgLNU5cgxNUW/Wt8Z30bvTGlc4oxJCDqmZlb+LsD+K75vESj+OTcfm5JtzD+ZgFClsufjoj3D4zskGw0GNM+PGNG9t93zOhpCI55os/TvToZw5PnHXR+aneGgKven9W+TbAxKXHYJzcdLMOurXAlm8bExPQZkzlx/JjBfeJDogat+dWO7Ne+ntZV5x+e2CkpMjii97zc2/yayDiNzOc/HhDdRhebkhDdKX35rGeiMnMtqGbva+1CjV16pyaFG7rN2lumrKnqji5K1euTnu7bo/Pz0zJ6R0/Gn90JBxBy5z7VBiZjPpqd/PjjyQvE/y6ibYi3WykM8pG2IVZ1dE5St/SZL7WLiEuO1QUkjPr8Cn4kJfdypxP5IkzU9KAGSSEMoZoNw/W9/1rMP8exX3y3p370FrE21vUZPqhDZHxyrC6w3ei1vE9a/0lHEVLmK0L2C8t6PN4qYc4RMi1xDCjJ7F6twrr14Mz4+BnO384nuyQf8VOA+JHuqzoLnVOH/+abwNAnBSENj0adI/TcUfe1FS3uGpz8Ov/KslI/HAMBIPAwEmiuukRgZa78z7lTJwsv/l5LvBbiAqSl8peigsIrFfJCzzWWFReeLDj7S3mjcmMXbXD1N38qOF2s6CBeIb4zrdhOLUxpm/6N8x1d+8Vl3QPSPi3nR3KYbl86XVBYXE78TxrEOM01lFw8XXSlUlaO97Sqq+cKCn66UUv5pGevvnr21DnqJYV0pnC+jWc2cInj0WAuG2L/NDAkpa51onsNk3McbXowoiHpoh84P5CbG0svnS5SZpvnoLBhrnTtQF1S9gni1SF5RF+plS027chVFvooMJ6FgTpHEHKTO01zGnoBASDQUgk0b13SUqkodNnOLe4a1HnKZz8UXjh/+rtPJncOe+pvlzytohR24PBhIqB+UNA07Y7rK58PSub/i3fTDEAvIAAEgMCjRwDqErcxb/xt7/szx770Qt9+aUMz3/zilPg7at12hAYPLQH7hVXpIz8oVP9+Xy/9qf124YCM1VDFeokNmgMBIPBoE4C65NGOP3gPBIAAEAACQKAlEYC6pCVFA7QAASAABIAAEHi0CUBd8mjHH7wHAkAACAABINCSCEBd0pKiAVqAABAAAkAACDzaBKAuebTjD94DASAABIAAEGhJBKAuaUnRAC1AAAgAASAABB5tAlCXPNrxB++BABAAAkAACLQkAlCXtKRogBYgAASAABAAAo82AahLHu34g/dAAAgAASAABFoSAahLWlI0QAsQAAJAAAgAgUebANQlj3b8wXsgAASAABAAAi2JANQlLSkaoAUIAAEgAASAwKNNAOqSRzv+4D0QAAJAAAgAgZZEAOqSlhQN0AIEgAAQAAJA4NEmAHXJox1/8B4IAAEgAASAQEsiAHVJS4oGaAECQAAIAAEg8GgTaJl1iaPhbkW1mXu0Q/NIeA+RfiTCDE4CASAABDwm0Lx1ifXObxcv36onChD7f3LGJASHRLRNnnnA6rEf7hvaTi/r2+svR31pkjWorWj5cz0XHPR+KB9p9JEZlnu+Oq+IdN7/c2z9ukO/231lWmXHu4A8JPhUPt7zjwy3HSU+Cw1jhHtW7qUB77LBjXGPjTmdd2MOLgMBIIBQc9Yljpv/Tgv4r1ax039slENh/2lJl8AXVv3uQHa73Vb493Evr/m5idsV2dt6cEZs+OR9Fnmo+3ZkPTI7Xj9+p9nrAXyk0UdmvJbvXQdlpGtzX4k3Znx9l6hQvTPnqrXbgBCp8nDgc+Vvk64x3DbdS2gIrogxQpPU3kMnt9ngjW2PjTmd98Y2tAUCjyiBZqxLHL/9vW/kwMzhkTFT9tVL+C0/vBYT9cp3Qvlg3jPJED/7CHnjwVpbVlJRr6lVbHUVFXU2yQ5CiOwtLYq2uvLSKvVDIoZRyZzdVFlSWtXokE44D8hRbfUVpXcbOfVaxTBO9sUGXWl0mKtKbpXVqljUlJVUmtQsJDN2Xo9KNF0N/SxCtroKLS2JAtd4t7Ss2qIsJ1ikNKaISEsWxQM1HGtteXmtM7ycuaqs0uSJW4yAiINI34lUkfA1KVO8QeLWKYSQ3VRZdpdMPGoqYF9cB0vyVjqwKtPHtdtSH6oiwpCiKcHVZXojxMpApzl1QvCnGcnGOO0uG7zi6q0xJ14RDoUYQ7XYA74DgUeGQPPVJfbLy3tFZewo/e5VY8T4b2p44jXbMtsZAlq1CjBEG5+c8/bYBIP/nx4LDIuOiR+TU8IhVFe0atwT0THJHeMjonvP3nUTb022U0v7DXh75dyeYYHBXd4qFLeuyo3jyd54XTAMmJP9Qpw+yL+1ruv0XSXCzkYzqox//bnVE7oZ/AN1QW38o5+ds+M6LgM0o3IV37/ZN8rPPygorMeUmYOjdcL9EppxTV9pNIZG26U16d2i9BFGoyFA1zFz41WswH5tyyvdoqKSOrWPihu97qZkw1neGAZmv9k/Xh8c0DooZXxOsVDn0dSwqb60+PNlA9qpaEnjcHcOLXsxLtA/JCQgOK7/B0UWhKikeFQaU8pIpy7KN51659leC3EBqoLTcGppv5cWr1mSFq8PbOMXO+Rf54q3ZvWKCgloHZA0YeM1FxFkBETSLx1w6lT5v6ZmiqdIsI/unLKdWvrc0KVrFvVPwDEM7DB2LR9DaioI9shg1edmde7z9nHn7UHbmeXPdZ3xrUlyWp0+DqEopkwQmxgahiJmHmq4coz0pmegLBXVnf5wcPuImA7to8PbRkfHxA9dfd3BSDbWaXfZ4DFXLKtJxuS6hEKMPnMUCOAQCDxKBJqtLrGdfbtLzOTcemQ+NDMhdOTGO/xnblt96bZJkZGTtt2urG4015dsGBMaO2337co7dVaEzMezUyIHrf7VghBXuW9a+7bjtlVx+EOY0S8gedK2mza7xSp/iLaqeuN2rQK6Tt9x1czV5r/exa/Lkp/sLKNyCpiPL0gJ7j4/r8SKuJoz76eF6QeuvcUv4sSoDQey4oL7LCmo4ay39i/oFfKnYFyXeKdYsErRaCv+buuJErzFWH/9x/PBKW8UIGQ7sSCp7fhvqvHJiltlxDMj3tU2KS9vumLiGn9e+aJBP/TLMparbI2tQ3qoaclc6vNei9P3e+9MLYcstw6v3XrGTCUl7HdGrSki0g7nom3RgMWuPB7Sc9buGxbbzS+GGgJ07Qa8d+Kuw3Rm8ZP+idn5zLSgB0TWrzxSpUoTMwV5iETw0Y1TfFo/5peSub7YxDUWrxrAx5BD2lSwCfbUhG0VXw3TG1/7nn9Eaj35enLo8PWV8n0tSvow3JZCg69rFVEMSWhVXHmfKOlNz0DJiuPaP5/TPfXXn60I1R6clWKcsLXMghjJRj2NEHKbDVquQn1PydymGBOChJ8j02YuVbW8kkkk4AAIPCIEmqsusZ5YkBw77bsGPPvzszuEvPR5qbBoWvJejY5+NY/yHMd6fF573eBV53/hvy59PiosquXS/gAAIABJREFUftZhK7/YhQz+skJec8XQaW8ih03cI7zKYs2fn6hP32FGDKOiCWQ9PCsueNh68cUHc960qKDhG4WtQDGqNT87MXBgjlBcIcuP0434fgnDOF7gFX2lsXirsVqNzga2urIbv/28dWp86ITdCNkvr0gN6jhlw8Vq7QLGfy7N2InhIoTqt4/V6SfuZrjK1shWgoP243SjfszWOqc2fIZKqobtlDLS0uanDie+IBLhSlenBXTlq0mEbAVvJAeO2GRiuUUNiKxWdUSkinJM5HGmeIyEJEJ3SmhjyNjpvMNh2j5Or5+4W6w+lalgJu3Jgqu3p4dHT9lnQsh6IjspfMzWKoXTlPShu40DIryXhQ+0iiiGFMMQXHlTYjBlnYwMlKxY87OTjK9+j1cEDCvo+ZU3HYxko5/mlxjK9JRGkA6UXIW6REo+hV4PU0tpzBkkvi7REKOrFu4gS9LgAAg8QgSaqS5p/HFGnF/HUQv/B3+9Nb57gP8Lq27wG6xytyLfEDHvSA9uHZGS2kv8emrUx+ft8rqpiZp2UZTee7UVvtUxeMw2M2IYlWyZNo0IiJ15SHyrw35hWfeAfv8UtgLJGkLm3RP0EVO+dd41F98vYRiXVnppFPGAuCJpRFxp3tv924dFduiWmtopyk+XsQt3aLi8YWY/Y4AuefCi3ddEgbwlwgyyHp2b4D94HcNVTzTKSkShCHNJmHtMMSyd1A0HGSCFKWWkZcXykdaVqpxBgd2XXeRfp7GdW9wlcOj6OpZb1IBI8tUHRKoQEiTBDFCyJU+RqJKH6pSqDbIewzH8spqSCvKWJ2SfJBjV75sa03birlrL8fkdIifuqpWl4iNN+tDdlsNHXJcVaQ0pxiG4yqZwC0mnW7C1306NjU5bvOX773Kyuht6Lb9g59NPOy1v1DFmK316KnRSuDrrEmmSy3rdppZ2vspBoqBnzBylPDgGAo8UgeapS+r3TYlu22/6u8udX68Pivd/6v1fcWGi3K2QZc8k4aYIjonlh6wY3bjtimfkfKTI5VIZPKI3Y1FkGJXMWPZODtON3Sa+l2s5kGXUjd6i3jaQ9UBWTNCITc7bB9ZDM2Px/RKGcbZi4oq0EFqPzE7Q/flj/PwK2U4uSNILdQmv0VaW/+Gg6JCBayXF0nq611klNeyaYDBk5jL4eaJRUiIPYsnNNBgm7HLeksHn6aTqVKgUppSRlh2Xj/jBiB+pWzjdAXpAZP2qIyJViDElwfRxFHY8RaIiQnVKbCPG0LQzI9SQmWumpIK85anrEmQ+NCshfOzG3DmJxinKd0tk0VL6lIojOv/DmuS2PG8ELGpFTluSIdk2PiK4yqbwJWkEd2Btp9/q0nHE/NkTRo3MmPvxodv4DTJGstFPI8b0VEilcJXmkZqI29SiGJODJA0qE6OrVtyKlPrAARB4NAg0S12C7zDHvLJf3tRsZ//nCb8e717EK47yOY7lQFaMftRm/BIFQtzdbeMiIoZ89puw/nIN5eW1nGo5JYJG9GYsigyjkh2uYuPI0NC0jy7h5z/WqzkjoiJGb67QjMpVrh+uDxuy9rodcdUFK14wtMLvlzCME/ueNBI+IK5IC7d5z8TQ8PE78I3duqIVfXX8/RLLtbPnK/GdA8fVD58J7PuR0g7/JoD+2aXH73LIfiNnaHjoiA0VDH6eaJSUyINwZTlD9BHDvrhuQ8hecXTlJwf+l0pKHSCFKWWkZcflI34w4kfqFk53gB4QbNJybm32m5uv8DddJH+IVCHGlATTx5EsIOQpElWYqU7xbYyP6Z99J78Kx/ALIYYcJRXkLU9TlyBrwcKUkIR20fFZPyj+Kz5PQZU+11WqJLflnHRmlUqRqzxEiOAqm8IKpBHcgW3YMyki9qVF//5yw+ZtO/ef/K3Ggd88pU1Ljn4av45Gm56K2FG4MqdjU4zJQUJIQ4yuWvtcWqEXDoHAH5pAc9Ql9TvGR8RP/0EuSxCyn3+3Z+CTy/m1YGZ8/Azn7yTjqvdntW8TbExKHPbJTQey/75jRk9DcMwTfZ7u1ckYnjzvIH5R8ti8RKP4QgoRK7I30c5+bkm3sIxd+Hk91ajCjv3a19O66vzDEzslRQZH9J6Xexvf1iGs4dbm8x8PiG6ji01JiO6UvnzWM1GZuRaGcU1faTTiiqyx7uiiVL0+6em+PTo/Py2jd/TkvQjV7H2tXaixS+/UpHBDt1l7yyQbWNzROUnd0me+1C4iLjlWF5Aw6vMr/AMXuqvUswwlilEslz8dEe8fGNkh2Wgwpn14xozopEhUslPIelCOtDycfMSPRfxYs2G4vvdfi/mSwn7x3Z760VvwjSyqA4yAIK7isxf92k5zvsAk+kOkilmZUQrB9HFEE7jk8RCJJ07h4kjXZ/igDpHxybG6wHaj1/Ix1KaCegooBCNkv7Csx+OtEuYccd47k8Sq0wfXj3S3pdN0RWpD0gj8AcHVIZnC1xQ6XYPlSjaNiYnpMyZz4vgxg/vEh0QNWvOrnZVsjBxkZYOkVstVPckVeulzXbKFtMbkIFFnLku1bBKOgMCjRKA56hKv+HL1N38qOF1cIS6sXGNZceHJgrO/lDd68IlC3ZsxtDujDtPtS6cLCovLxRcPqXa4hpKLp4uuVIpSnY3cGafaUp+0V189e+rcjVrlS67WqqvnCgp+Ik8qO2I9atF0NfSzSlvUY0vlL0UFhVek4CDkGSmqsXs6SXWAEhCubMPImNSlRdpAepYq1HGUyn2FxHnTxtxYeul0kZIwoqWCUoHymCtdO1CXlH1C8R6QdNlt+kgthQOmIteGPOOKmGBtpxamtE13/iIBZL+4rHtA2qfl/NxnJBvjNCUbCA+94YruzRiNGEM1IRF+AAKPBoEWX5c8GmEALx8MAdu5pX16LylUPdR4MGN7N4qzClDVuN7ZQI7rK58PSn6jgPh1g17akJr7RJFkzeMD27nFXYM6T/nsh8IL509/98nkzmFP/e0S+RTOY1vQEAgAgYeBANQlD0OUQKOvCNgaG3yySftKD9OO/cKq9JEfiL8mkNnM9YXabxcOyFjto13cJ4pc66Vfbfxt7/szx770Qt9+aUMz3/ziVKXypiG9C5wFAkDgISYAdclDHDyQDgSAABAAAkDgD0YA6pI/WEDBHSAABIAAEAACDzEBqEse4uCBdCAABIAAEAACfzACUJf8wQIK7gABIAAEgAAQeIgJQF3yEAcPpAMBIAAEgAAQ+IMRgLrkDxZQcAcIAAEgAASAwENMoHnqEkfJsfXrDv3erL+FwHZ6Wd9efzlK+41TruLpS+k+tNVEb1x56rNrPnTTZ5rAEBAAAkAACLRMAs1Tl5hyX4k3Znx914Pf2OpDbLbCv497ec3Pzmqoib8mypfS78mWT7zxIV22qXtyk222xVwhI9FiZIEQIAAEgMBDSaB56hIVKmtNWUmlSXn3RHtG1UX60VpbVlJRr+yLEKM344+u2+rKS6vMqhKJZlYaU3Vgq6vQGlC14X+0mypLSqsamb8Wimu8W1pWbSGkMIX4wht3ym11FRV10u8ho0rxSjMNivMczTgjjqIVu6my7C5J02GuKrlVVuvZTTBrbXl5rdM7zlxVVmlSRYamCQ+uwkZGQlQH34EAEAACQKApBJqnLrGdeufZXguPWBGyX9vySreoqKRO7aPiRq+76aCcsR57s9fTi08KG4it8N2+3ecf4H89d13RqnFPRMckd4yPiO49exfurLYnIeEqN45PMPj/6bHAsOiY+DE5JRy+X2IYMCf7hTh9kH9rXdfpu0qEbYlmVrKDZOm2U0v7vbT482UD2ikM1O3J6txn0XHnn1+xFS3v13XGPhNC9edWT+hm8A/UBbXxj352zo7ruJKSbSHuzqFlL8YF+oeEBATH9f+gCDvIFnKP3lCVyy5iYUv7DXh75dyeYYHBXd4qtNGleKpZdJPFhuanKi9U4p4bunTNov4J+uCA1oEdxq4txrRsl9akd4vSRxiNhgBdx8yNV+2oPjerc5+3jzt/l7vtzPLnus741iR4v2ZJWrw+sI1f7JB/nSvemtUrKiSgdUDShI3X2ElAw6aNhFIqHAMBIAAEgIC3BJqnLpGeodhOLEhqO/6bavzHOytulZkR0p6x7J8aacwSShFkPTI7Xj9+pxkh8/HslMhBq3+14D9jvm9a+7bjtlVx2t4SEGt9yYYxobHTdt+uvFNnFf6QfKuArtN3XDVztfmvd/HrsuQnO8OsZET51+Dx331vHdKDNMCV5QzWxWYd4P8Ci/VEdpJ+2FcVnPn4gpTg7vPzSqyIqznzflqYfuDaW0pb9Xmvxen7vXemlkOWW4fXbj1jpvsnCbknb6jKJdM4FgdnGP0Ckidtu2mzW6wOKmrksWYx2iw23sWRF/eYX0rm+mIT11i8aoBBP/TLMoRsxd9tPVGCaxDrr/94PjjljQIbV/HVML3xte+FYJx8PTl0+PpKXJAaHw/pOWv3DYvt5hdDDQG6dgPeO3HXYTqz+En/xOx8KysJ6NjUkVByhGMgAASAABDwlkAz1yX2yytSgzpO2XCxWryFrj1Dr0usx+e11w1edf4X/uvS56PC4mcdtmp7K4CQ99vxbhk2cY/wJ9ys+fMT9ek7zIhuVmFE3GSFqkJrgLuzaWSosBda8+d3CBuzpYqzHp4VFzxsvfg6jTlvWlTQ8I2KusT643SjfszWOuU4VP8UDe7BG7rrCtt4Bw4Z/GWF8ESJzsRzzRIyKhuqn67iiM0ZMnaaBL2m7eP0+om7RfG2urIbv/28dWp86ITdZoSqt6eHR0/BN6xwjRg+ZmsVGTeudHVaQFe+IEXIVvBGcuCITSZWErCwkZEQlcB3IAAEgAAQaAqBZq5LEGq4vGFmP2OALnnwot3X+PcC1GfodYl5R3pw64iU1F7i11OjPj5vp9mTsJD7h7Rb4uu2wrc6Bo/ZZkYss5IRuZt8pDSAUM329PCYV/abLMfnd2ibsbMWIdOmEQGxMw+Jbz3YLyzrHtDvn4q6BDdImHtMbIAHcyvkHrxhKac4yZbiuWbFcFo2LD/VWSBpw/dLYsMn73M+nbEem5vgP/hLhLjSvLf7tw+L7NAtNbVTlJ8uYxd+mFa/b2pM24m7anEwIifuqhVuBsn9q3IGBXZfdpF/P8l2bnGXwKHr61jsiYGljEGIjIQsFI6AABAAAkDAewLNXpfwkm1l+R8Oig4ZuLZUfOdTccaS92qUtA/hT/I6/BzH8kNWjG7cduenZpXjUm/ivGXPJP6minCSvsu4NIs7yt3kI7IuQXV7MqOiXt753dxEI/9RHVn2Tg7Tjd1W71RjOZBl1I3eorBlyc00GCbsalDIdSvkHrxhKhfHJxowUHuuWWlNy8brOArm9jrrEtPOjFBDZi5+wJeg+/PH+LEesp1ckKQX6hJkPjQrIXzsxtw5icYp3/LZopSDqHUJgz3RUVGXkJEQGcJ3IAAEgAAQaAqBZq5LLNfOnq/EH1YdVz98JrDvR9cd2jP2y8uf9Ov0xskGxFWffLefvlUwrku4u9vGRUQM+ew3YX/iGsrL8csZKnsEEsuBrBj9qM34ZRaiwFCWFXSzCjPy5iQfKQ3gpg15rxrDOnYyxmf9wD8m4io2jgwNTfvoEv7JejVnRFTE6M0VirqEK8sZoo8Y9sV1G0L2iqMrPzlQ41bIPXjDVu50lGjAQO25ZsKaho3XccSl6WP6Z9/Jr+KQ/cYXQ8NDR2yoQOY9E0PDx++o4d8XXtFX57xfgpC1YGFKSEK7aDEYisoSIXpdwmBP+KGsS4i84krz/jZ32Z7fxQeTityBQyAABIAAEHBLoJnqkmPzEo2v5llQzd7X2oUau/ROTQo3dJu1t4yjnEGOm1smtPPzb9s+IbbrpPfmPhM9mf+wbP99x4yehuCYJ/o83auTMTx53kGtPcJ/rnp/Vvs2wcakxGGf3HRYRQ24jf3ckm5hwidsmlmFGbmbfEQawA9hjmYnP/548gLxv4Ig+7Wvp3XV+YcndkqKDI7oPS/3Nt62FBYslz8dEe8fGNkh2Wgwpn14xoyQGyH34I1iXMJ1yU2iAfaOghohTzWT1rRsKMbVeSEpcxaUuj7DB3WIjE+O1QW2G732Cn4AVnd0Uapen/R03x6dn5+W0duZJFj8hWU9Hm+VMOeI9OTHmXzYaM2G4frefy3mn+PYL77bUz96C76tRXWY8EORMWQkbEWLuwYnv45fn4UvIAAEgAAQ8JpA89QlSpnWqqvnCgp+ulErfcDUnkGosezy6aJf7qgXe66xrLjwZMHZX8obxSdAtN7SeFz9zZ8KThdXOLco6bzqgGJW1aIJPzpMty+dLigsLnf+J2KNCUvlL0UFhVeU4lwLeaDe0KV4rVnjNX+CYpwZR+dtC3Nj6aXTRQQte/XVs6fOKTJJsF26dqAuKfuEOnfoSuSzFE3yRdWRh5FQ9YIfgQAQAAJAQEOg+esSjSQ4AQRcESAep7hqKFxzXF/5fFDyGwXSr4dz3wVaAAEgAASAQLMRgLqk2dDDwE0jYL+wKn3kB4We1hm13y4ckLH6Ev+kpmkDQi8gAASAABB4cASgLnlwrGEkIAAEgAAQAAJAwDUBqEtc84GrQAAIAAEgAASAwIMjAHXJg2MNIwEBIAAEgAAQAAKuCUBd4poPXAUCQAAIAAEgAAQeHAGoSx4caxgJCAABIAAEgAAQcE0A6hLXfOAqEAACQAAIAAEg8OAIQF3y4FjDSEAACAABIAAEgIBrAlCXuOYDV4EAEAACQAAIAIEHRwDqkgfHGkYCAkAACAABIAAEXBOAusQ1H7gKBIAAEAACQAAIPDgCUJc8ONYwEhAAAkAACAABIOCaANQlrvnAVSAABIAAEAACQODBEYC65MGxhpGAABAAAkAACAAB1wSgLnHNB64CASAABIAAEAACD44A1CUPjjWMBASAABAAAkAACLgmAHWJaz5wFQgAASAABIAAEHhwBKAueXCsYSQgAASAABAAAkDANYFmrUsaS87s37z200+/+Pr78+UW10JbwlVb0fLnei44aHWtxXZ6Wd9efznqppVrGy6u3mfzjJEZozpKjq1fd+h3O6PXPZz2jLWnA/jWmqejtsh29xoyD1AykuV+4PBADX3Ye8VAtyqcZfh/z0M22VlXYuEaEGh5BJqrLuFqCt4fHB8c3iVtzPhxg3vHBgalTPjySguvTaxHZsfrx+80uw6j9eCM2PDJ++6XL/fZPMM3xqim3FfijRlf3+UY3Zp+2jPWntr3rTVPR/Wyna3w7+NeXvPzfSjylELuNWRUlKR0RrIoVfjqmKrGE+P3isHVGAz/73nIJjvrSixcAwItj0Dz1CVc9b6pcYFd5/9Y6RCQNFz4KM0Q9OzfrygXZVtdRWmVWbXlcY13S8uqLcqz1tqykop6ZU+Cs62uoqLORpxCCNlNlSWlVY3O8aWr9NO2+orSu42cal2w1pSVVJo040qrkq2uXK3fYa4quVVW68m9FJZXknk7L0rlAL0X/SxCVMIiC8I9aVSKU2IH4bvdVFl2l8ZVe5Yqi85aMQaTIc0bt9aEVFBrY46h0CEdWmvLy2udCcaZq8oqTR4FRYPfvGeSIX72EWZykIlMhUeZHYjaUBJPPaB2cYWSlO46WajGFTLoUxDxuOSJzFDDME6iUwwmHhLJLp4UvrNygbBJgHftP2ld/RPVAYaz6r7wMxD4gxBolrqEq1w3NDg8Y0etAqI1P7tDm9QVxQjZTi3t99Liz5f9/+1cfVBUZRefqVTYZdnLArrL8iEfu0qC+qpUajovhoooKspXmGWtQn5gOWWj5WsfU06l1msWYgpoaAr4iVFOGigCRjqaWKmjqTgIysvXADu7O8ud553n3t299+49DwuTRdLdP+Du2ec553d+55znnn2eCzFDKQ/3AcqIxQW17DpP3zu+7pkAubunp0wRMOWDKhNCrVWb5z+u8dMNC/TVjHu54KbTDaG1YkNssK9faLDGZ7BG4xcYt+V6F0Jt1VtSIlXucqXHIHfN+KX7rrOtBSym64+9NkHt5u7h4T1qYXqsRsnsl1iv7X4hUq0OGx6sDpj7pdAsXpVUMUszJwcI8Fsubk2MVFO+Wq1KphyWlnvV2lpkCI9aXWrbfrFUrZ8YseRQO3LhFaN+WuZrUwIphWyAhz4pu4bdmoG5gKREhu3xELtHcurMW+PHrsK3UsuZN5+Oe3Pr6ilBGJY8dF4WhgVLSS7CXNtB4TuTiEMsJOSLK20EbICNtgOG8Kg3Sm07YJaz65+OWHK4nbW7dW10ICUf5OY/45PqmnzDWLWnbIAsLCX3GpuKPaWfbshNClK5P/KY3FvjF5iQXctrvLGhmDc2LRvtLVeMeL3SAmc9UB3gQAsbsnuE5IMAo26pFEMnJIuLxEakynT2n4AGQu48lcslGw1mhMTJ7hgF5AKbb/xwiIkn+G83Sap7yIHuqXcAlS4kBvoVA33Sl5hPLA10m7z5Fm/tRaht12wZlVKIkPm7JdoBnqMW77tqpFvKXhnhNmLtT7hzaCt+KYCa+M7ZFhqZbn2flX/WaCzN1A+ZvuVXE0J0w6FFwYPn72nk6ey69vHTyifevWRGqOW7DL02Jb/OhJCxdKVeMXJFca0Z0c1n34/2pqZl3eqCxQh1lBgCFFFry5tp860jK8d6PqLAfYnl1MqwwUlfNyGEzPW36oQHOxj/o7IIZ/yWmqP5p2rxvc3864eTFPpXy0112bFKf0NJJ84o86nMMGrmjnoaufCKUT9I/1ze5Xa689KmZ1RU3PY60ixYF4lhe2YD7hGcwiswe2aFBzzmpk/bWdNOd9ZsjmFhgVIcAyhwMNd2UPi3mEMLMV9caiNgA2zQ9TtmUtqXjrGBOv2KzmvWzgYazx/oOTqj8IbJcnNbnEqmHBrzzqn7Xe1n1/zLPSSzzEzyE08UJ7i5rTYnwct/UeHthnutgj0TPN5Npnt2z02L1WTugskTVweBZVvIjGDywbpdUekMHQMGKgBWzsWXUJnMgsDzH0YDK3eijrOFlbKZCyS7YxiQC2y+8eAAxBP8t5ukHyD1DqjShcRAP2KgT/oS06EFKrcZO5oFPBqLUinZ3K+Yuvf3Ti1ibgLIXLYihErcZ0TI/O1iLZWQ38pNMpcuD1bGbj73C/O6+MUc78CM73krurksM0z74jHcCtB3tkR7TNp0swuZv88IUMzcaX8iwli8SO0xK7cZFiNzWWaIfFr2PbbbMX27WMvsl1h/fnuMx7CFOReanDZoMDi8/AD4WdyW1robVy7lPx/olVJopO/lzfZi73fmshWh3gm7G2nk0iu8HZO8v4PV17Z3npJKLTTCs2Bp9wjxwYbYPYJT9qWW9VqVvB9v9yCE2vfOpxhYLFihlOAigWtWIf+ngEMS3661YewixHY7Tjaa9ib6aBbizSzcP/ok5DcK7eL8kkWw/TOylL+qk8fntRP8JNIvPAyxI2EMaT1jt9ezSQjHVFwd3VnHrSSUfATdcBFwABESQoeTBVbOaYFLsFnkP4iGoBx3CBx1nC02ekxHDSQ7fxxzfsSrWREc0bLE6gZWAEexPFDqncBKbyUG+gEDfdKXmE8uC3Ib/yE+U3G86Pvbprn7GUp4Kwb+zFL5+jBFwh4jQu158bKgZT/w+g7jvkTFAF/9mLH21xNzNp7jP+7Rcvh5f030mt3HjmYbRqrGrj9vZdX4px+3q7GeXzdSNvHjG6158TKxGBkLUyjfhYdtO/i850s6fs5Jn6iVKXWxqwuv2ZWxzjiWHyF++k7xG1OCvYeERo4ZM1ztpkwuMCLUvDfRx++FI+2m0hWhg5P344MtV14J1CNMpXvsl03wLFjKfVcUImThMz9F7gmsckHhxNwVVmD+AcPa3gRKCS4SueZwgRwKbDigudYmmGdHjFtYIE6o7dDzfoNTC1pwoIakFuBACeY3Zk+Xj1x3gck+S/WaEfK4na0EP4UTHYCdb+6c1wJDBKXi6iAM5FkXJx+cL66pBPoSx5PfDgdh5Zyb2AVxCd5wIppQkgTlQuo4WwKlomR3jANzQagTIJ5HsWAF4018gNQ7wEoXEgP9hoE+6Uvohh1xCmp2rm0bApNJN36d5EvF59wTrBj8vsR0IE2lSimw7RPgOaZvDH7K+XttX8bFIbFUvD5iWPyKl1PmzE5etvH4bebRRNPBBd7KeXvabMNNJQatcu7uVliMzCUGP4/4PNsmjfl4uj/7fAk721JXtmG6xnNa1h3e6RFhVTKfeDlI+e+N+MwJWU6vDKOYvgS1FqWp1c/tP7osRMt8HXftFbu6HbS1Sh0FKSpV2gEjzAUsJSAUEci5RwwKt9QKYbXvT/bCsEApIXDdc43RwRxyGPh3gR5oY3by7UTaEBNsIGQ8nhHkMy/3wNIQ7cLDTMoJ7IJ9SS/pNxU967Tjx4ZEYIhAnrg6CAP5wRclHwzYNZVICF0A2NGXwMq5rINLsNUp9wglSVAuQMKZcu4qceIAtdyDfEMA8XyK+SsYH8yDo17glfRGYqBfMNAnfQmimw69EOAWlrbrN+a0hm6/tCMlRK5fcQK3C/zy5e2X0HXZMyjfmduuWxCy1p/c9GnJ/+7vme/rO+PzK+w9mu64e7eF3yB0FD3r6z919X+35+zas//I6SvNeH+Grs+d7eUV/dFFbNl8NTte7Tt3Vz0NixHdsHMW5T0j67oV0U3lb09WPco8X2K69uO5BvzduOvqhqfkEz4S7PzA+I1FqV4+Sfvw2VVr1dsTlOx+CUIdxS9qvYcN1wYavmFPrmgXXuGt6ceo8W+W3qeR9UZ2nI9XfE49Dc+CpSSGHQktco8YFM5XG6y3yhoxrG02WKAUwbAIXDtQ4Q0FiEMOA78vca0NxgbbwLlSvkrvGTRU4wiUwC7Yl8B+Euk3lRj8qDm78FNLgpfAEIk8UXU098C6c/LBU1xTiYTQBYAdfQmsnPMULkHaKffb1kqiAAADwElEQVQIJUlQLkDCmeKvMqJk53Zx4VwQ6hQvS82kAAsm/jHq6TvF7y1bV/Q7h1XgnPRGYuDhZqBv+hKE6JaqT5LCqUGUVh+u13rK1E+l72b2EvAZwPIQ7YvFbLNhrV4b6c1uLSDTz5/FB7rLh4TqtCpt9IazRmT9fd+S0SqF3+NRT44drvXRLf/Oto3ABIWuzUvw84tKSEtNSoiNCvRUT9/6qxU/f//Vogilu0/I8LAhCt9xyw/cZqqbIDae2xijGaT01wdphieuz3hKnXbAhJoPvjTUSzti3JgwH1VkxsE6fjdEwt96cvUYigp7csKo8EmLksdpFti+qRtPZuoGDtSttP+5B3Lhlfnk0rDIxPSpQ30DdP5KWdCcLy4z50gwF6CUyLAtlwH3CFM4MV50lVGzpocOCdT5K+VD52ZhWLCU5CLINb++QA45DPjRGC5fXGkjYANtYBDW8+tGDXw0aOkJW44J7DbnzKLGvVvDnONYL/xnNDV3N+6xe0U/3XTEEDxIoQ0Lmfkp/0+8BIZISoHq6IF1UfKBgJErKpEQugAwLyKwci7AhBIUqMMnnVBJ9sBZzhDuS+yrDJDsjoFgLjhm2oaJlyXBCM5/gRj9IeotVWsiFLpX8LPV0ktioP8x0Fd9CcukseG36jOnKy/83sJ/LKQ7lk0Nv1SVV16u5/oPurOupvJ0+Y+/3O0UtAfIcmaVfnDi17ana60X1o2URX92lx3T1X77YkV5Zc1d4Z/SwGK6o/ZCRdXlBs4mXtcar1aXl/90o6UXX1msTVd/PFPdoylErxzkYFDODsCzYKlDEXjRa/fwXd5nwSFj552LFVWO+MBS1iIIC+Saj7AXHCLUrTYyNtgGfSdrmjIs81Rv7wWgn3yXeNd0282fyitqeOnN+5B/CSsVVweCB/JVia7BKd1SiVX0EDqonAcBLkHeAOaSgMaVcmc1tvfdJTucC86KAOKdh/ToPegAwdkeKZQGSQw8jAz0bV/ypzJmqV4T4RG+8PNvKs+fqzj66YJw7yfeu9jT/udPRdYfldvu8oLezXkL/u/lN4yYiLHr+qZJHrpXy0X/oY84Q/pAYkBiQGJAYqD3DPTjvgShzisH30+fN3XyhInRcWmvbTtj/++yvadJmuGKAev5zYmzP6h0umvDUle6/prPe4mt5fCqmOQtUmP71wRHsiIxIDHwz2WgX/cl/9ywSp5LDEgMSAxIDEgMPJQMSH3JQxk2CbTEgMSAxIDEgMRAv2RA6kv6ZVglpyQGJAYkBiQGJAYeSgb+D1cp5in2Nu70AAAAAElFTkSuQmCC;" vertex="1" parent="1">
          <mxGeometry x="-390" y="-670" width="733" height="370" as="geometry" />
        </mxCell>
        <mxCell id="urfwJ74LONXbReBFOj0j-4" value="" style="edgeStyle=orthogonalEdgeStyle;rounded=0;orthogonalLoop=1;jettySize=auto;html=1;" edge="1" parent="1" source="urfwJ74LONXbReBFOj0j-2" target="urfwJ74LONXbReBFOj0j-3">
          <mxGeometry relative="1" as="geometry" />
        </mxCell>
        <mxCell id="urfwJ74LONXbReBFOj0j-5" value="Text" style="edgeLabel;html=1;align=center;verticalAlign=middle;resizable=0;points=[];" vertex="1" connectable="0" parent="urfwJ74LONXbReBFOj0j-4">
          <mxGeometry x="-0.1792" relative="1" as="geometry">
            <mxPoint y="-1" as="offset" />
          </mxGeometry>
        </mxCell>
        <mxCell id="urfwJ74LONXbReBFOj0j-2" value="&lt;span style=&quot;text-wrap-mode: wrap;&quot;&gt;receive order&lt;/span&gt;" style="points=[[0.145,0.145,0],[0.5,0,0],[0.855,0.145,0],[1,0.5,0],[0.855,0.855,0],[0.5,1,0],[0.145,0.855,0],[0,0.5,0]];shape=mxgraph.bpmn.event;html=1;verticalLabelPosition=bottom;labelBackgroundColor=#ffffff;verticalAlign=top;align=center;perimeter=ellipsePerimeter;outlineConnect=0;aspect=fixed;outline=standard;symbol=general;" vertex="1" parent="1">
          <mxGeometry x="-350" y="105" width="50" height="50" as="geometry" />
        </mxCell>
        <mxCell id="urfwJ74LONXbReBFOj0j-7" value="" style="edgeStyle=orthogonalEdgeStyle;rounded=0;orthogonalLoop=1;jettySize=auto;html=1;" edge="1" parent="1" source="urfwJ74LONXbReBFOj0j-3" target="urfwJ74LONXbReBFOj0j-6">
          <mxGeometry relative="1" as="geometry" />
        </mxCell>
        <mxCell id="urfwJ74LONXbReBFOj0j-3" value="check the goods in the stock" style="whiteSpace=wrap;html=1;verticalAlign=top;labelBackgroundColor=#ffffff;" vertex="1" parent="1">
          <mxGeometry x="-180" y="100" width="120" height="60" as="geometry" />
        </mxCell>
        <mxCell id="urfwJ74LONXbReBFOj0j-9" value="" style="edgeStyle=orthogonalEdgeStyle;rounded=0;orthogonalLoop=1;jettySize=auto;html=1;" edge="1" parent="1" source="urfwJ74LONXbReBFOj0j-6" target="urfwJ74LONXbReBFOj0j-8">
          <mxGeometry relative="1" as="geometry" />
        </mxCell>
        <mxCell id="urfwJ74LONXbReBFOj0j-13" value="no" style="edgeLabel;html=1;align=center;verticalAlign=middle;resizable=0;points=[];" vertex="1" connectable="0" parent="urfwJ74LONXbReBFOj0j-9">
          <mxGeometry x="-0.0722" relative="1" as="geometry">
            <mxPoint y="-1" as="offset" />
          </mxGeometry>
        </mxCell>
        <mxCell id="urfwJ74LONXbReBFOj0j-11" value="" style="edgeStyle=orthogonalEdgeStyle;rounded=0;orthogonalLoop=1;jettySize=auto;html=1;exitX=1;exitY=0.5;exitDx=0;exitDy=0;entryX=0;entryY=0.5;entryDx=0;entryDy=0;entryPerimeter=0;" edge="1" parent="1" source="urfwJ74LONXbReBFOj0j-6" target="urfwJ74LONXbReBFOj0j-28">
          <mxGeometry relative="1" as="geometry">
            <mxPoint x="180" y="150" as="sourcePoint" />
            <mxPoint x="470" y="145" as="targetPoint" />
          </mxGeometry>
        </mxCell>
        <mxCell id="urfwJ74LONXbReBFOj0j-12" value="&lt;span style=&quot;white-space: pre;&quot;&gt;&#x9;&lt;/span&gt;yes&lt;span style=&quot;white-space: pre;&quot;&gt;&#x9;&lt;/span&gt;" style="edgeLabel;html=1;align=center;verticalAlign=middle;resizable=0;points=[];" vertex="1" connectable="0" parent="urfwJ74LONXbReBFOj0j-11">
          <mxGeometry x="-0.0563" relative="1" as="geometry">
            <mxPoint x="216" y="-16" as="offset" />
          </mxGeometry>
        </mxCell>
        <mxCell id="urfwJ74LONXbReBFOj0j-6" value="" style="rhombus;whiteSpace=wrap;html=1;verticalAlign=top;labelBackgroundColor=#ffffff;" vertex="1" parent="1">
          <mxGeometry x="40" y="90" width="80" height="80" as="geometry" />
        </mxCell>
        <mxCell id="urfwJ74LONXbReBFOj0j-15" value="" style="edgeStyle=orthogonalEdgeStyle;rounded=0;orthogonalLoop=1;jettySize=auto;html=1;" edge="1" parent="1" source="urfwJ74LONXbReBFOj0j-8" target="urfwJ74LONXbReBFOj0j-14">
          <mxGeometry relative="1" as="geometry" />
        </mxCell>
        <mxCell id="urfwJ74LONXbReBFOj0j-8" value="checks the raw material availability" style="whiteSpace=wrap;html=1;verticalAlign=top;labelBackgroundColor=#ffffff;" vertex="1" parent="1">
          <mxGeometry x="20" y="-90" width="120" height="60" as="geometry" />
        </mxCell>
        <mxCell id="urfwJ74LONXbReBFOj0j-32" value="" style="edgeStyle=orthogonalEdgeStyle;rounded=0;orthogonalLoop=1;jettySize=auto;html=1;" edge="1" parent="1" source="urfwJ74LONXbReBFOj0j-10" target="urfwJ74LONXbReBFOj0j-31">
          <mxGeometry relative="1" as="geometry" />
        </mxCell>
        <mxCell id="urfwJ74LONXbReBFOj0j-10" value="&amp;nbsp;retrieve goods from the warehouse" style="whiteSpace=wrap;html=1;verticalAlign=top;labelBackgroundColor=#ffffff;" vertex="1" parent="1">
          <mxGeometry x="905.56" y="100" width="120" height="60" as="geometry" />
        </mxCell>
        <mxCell id="urfwJ74LONXbReBFOj0j-17" value="" style="edgeStyle=orthogonalEdgeStyle;rounded=0;orthogonalLoop=1;jettySize=auto;html=1;" edge="1" parent="1" source="urfwJ74LONXbReBFOj0j-14" target="urfwJ74LONXbReBFOj0j-16">
          <mxGeometry relative="1" as="geometry" />
        </mxCell>
        <mxCell id="urfwJ74LONXbReBFOj0j-18" value="no" style="edgeLabel;html=1;align=center;verticalAlign=middle;resizable=0;points=[];" vertex="1" connectable="0" parent="urfwJ74LONXbReBFOj0j-17">
          <mxGeometry x="-0.1833" y="3" relative="1" as="geometry">
            <mxPoint y="-1" as="offset" />
          </mxGeometry>
        </mxCell>
        <mxCell id="urfwJ74LONXbReBFOj0j-23" value="" style="edgeStyle=orthogonalEdgeStyle;rounded=0;orthogonalLoop=1;jettySize=auto;html=1;" edge="1" parent="1" source="urfwJ74LONXbReBFOj0j-14" target="urfwJ74LONXbReBFOj0j-22">
          <mxGeometry relative="1" as="geometry" />
        </mxCell>
        <mxCell id="urfwJ74LONXbReBFOj0j-27" value="yes" style="edgeLabel;html=1;align=center;verticalAlign=middle;resizable=0;points=[];" vertex="1" connectable="0" parent="urfwJ74LONXbReBFOj0j-23">
          <mxGeometry x="-0.2447" y="-1" relative="1" as="geometry">
            <mxPoint as="offset" />
          </mxGeometry>
        </mxCell>
        <mxCell id="urfwJ74LONXbReBFOj0j-14" value="" style="rhombus;whiteSpace=wrap;html=1;verticalAlign=top;labelBackgroundColor=#ffffff;" vertex="1" parent="1">
          <mxGeometry x="240" y="-100" width="80" height="80" as="geometry" />
        </mxCell>
        <mxCell id="urfwJ74LONXbReBFOj0j-24" style="edgeStyle=orthogonalEdgeStyle;rounded=0;orthogonalLoop=1;jettySize=auto;html=1;entryX=0.5;entryY=0;entryDx=0;entryDy=0;" edge="1" parent="1" source="urfwJ74LONXbReBFOj0j-16" target="urfwJ74LONXbReBFOj0j-22">
          <mxGeometry relative="1" as="geometry" />
        </mxCell>
        <mxCell id="urfwJ74LONXbReBFOj0j-16" value="Order Raw Materials from Suppliers" style="whiteSpace=wrap;html=1;verticalAlign=top;labelBackgroundColor=#ffffff;" vertex="1" parent="1">
          <mxGeometry x="223" y="-280" width="120" height="60" as="geometry" />
        </mxCell>
        <mxCell id="urfwJ74LONXbReBFOj0j-26" value="" style="edgeStyle=orthogonalEdgeStyle;rounded=0;orthogonalLoop=1;jettySize=auto;html=1;" edge="1" parent="1" target="urfwJ74LONXbReBFOj0j-25">
          <mxGeometry relative="1" as="geometry">
            <mxPoint x="590" y="-60" as="sourcePoint" />
          </mxGeometry>
        </mxCell>
        <mxCell id="urfwJ74LONXbReBFOj0j-39" value="" style="edgeStyle=orthogonalEdgeStyle;rounded=0;orthogonalLoop=1;jettySize=auto;html=1;" edge="1" parent="1" source="urfwJ74LONXbReBFOj0j-22" target="urfwJ74LONXbReBFOj0j-38">
          <mxGeometry relative="1" as="geometry" />
        </mxCell>
        <mxCell id="urfwJ74LONXbReBFOj0j-22" value="" style="rhombus;whiteSpace=wrap;html=1;verticalAlign=top;labelBackgroundColor=#ffffff;" vertex="1" parent="1">
          <mxGeometry x="400" y="-100" width="80" height="80" as="geometry" />
        </mxCell>
        <mxCell id="urfwJ74LONXbReBFOj0j-25" value="assembles the finished products" style="whiteSpace=wrap;html=1;verticalAlign=top;labelBackgroundColor=#ffffff;" vertex="1" parent="1">
          <mxGeometry x="650" y="-90" width="170" height="60" as="geometry" />
        </mxCell>
        <mxCell id="urfwJ74LONXbReBFOj0j-29" style="edgeStyle=orthogonalEdgeStyle;rounded=0;orthogonalLoop=1;jettySize=auto;html=1;" edge="1" parent="1" source="urfwJ74LONXbReBFOj0j-28" target="urfwJ74LONXbReBFOj0j-10">
          <mxGeometry relative="1" as="geometry" />
        </mxCell>
        <mxCell id="urfwJ74LONXbReBFOj0j-28" value="" style="points=[[0.25,0.25,0],[0.5,0,0],[0.75,0.25,0],[1,0.5,0],[0.75,0.75,0],[0.5,1,0],[0.25,0.75,0],[0,0.5,0]];shape=mxgraph.bpmn.gateway2;html=1;verticalLabelPosition=bottom;labelBackgroundColor=#ffffff;verticalAlign=top;align=center;perimeter=rhombusPerimeter;outlineConnect=0;outline=none;symbol=none;" vertex="1" parent="1">
          <mxGeometry x="690" y="85" width="90" height="90" as="geometry" />
        </mxCell>
        <mxCell id="urfwJ74LONXbReBFOj0j-30" style="edgeStyle=orthogonalEdgeStyle;rounded=0;orthogonalLoop=1;jettySize=auto;html=1;entryX=0.5;entryY=0;entryDx=0;entryDy=0;entryPerimeter=0;" edge="1" parent="1" source="urfwJ74LONXbReBFOj0j-25" target="urfwJ74LONXbReBFOj0j-28">
          <mxGeometry relative="1" as="geometry" />
        </mxCell>
        <mxCell id="urfwJ74LONXbReBFOj0j-34" value="" style="edgeStyle=orthogonalEdgeStyle;rounded=0;orthogonalLoop=1;jettySize=auto;html=1;" edge="1" parent="1" source="urfwJ74LONXbReBFOj0j-31" target="urfwJ74LONXbReBFOj0j-33">
          <mxGeometry relative="1" as="geometry" />
        </mxCell>
        <mxCell id="urfwJ74LONXbReBFOj0j-31" value="confirm order" style="whiteSpace=wrap;html=1;verticalAlign=top;labelBackgroundColor=#ffffff;" vertex="1" parent="1">
          <mxGeometry x="1105.56" y="100" width="120" height="60" as="geometry" />
        </mxCell>
        <mxCell id="urfwJ74LONXbReBFOj0j-41" value="" style="edgeStyle=orthogonalEdgeStyle;rounded=0;orthogonalLoop=1;jettySize=auto;html=1;" edge="1" parent="1" source="urfwJ74LONXbReBFOj0j-33" target="urfwJ74LONXbReBFOj0j-40">
          <mxGeometry relative="1" as="geometry" />
        </mxCell>
        <mxCell id="urfwJ74LONXbReBFOj0j-33" value="ship the goods&amp;nbsp;" style="whiteSpace=wrap;html=1;verticalAlign=top;labelBackgroundColor=#ffffff;" vertex="1" parent="1">
          <mxGeometry x="1105.56" y="240" width="120" height="60" as="geometry" />
        </mxCell>
        <mxCell id="urfwJ74LONXbReBFOj0j-38" value="receive the raw material" style="whiteSpace=wrap;html=1;verticalAlign=top;labelBackgroundColor=#ffffff;" vertex="1" parent="1">
          <mxGeometry x="500" y="-90" width="120" height="60" as="geometry" />
        </mxCell>
        <mxCell id="urfwJ74LONXbReBFOj0j-43" value="" style="edgeStyle=orthogonalEdgeStyle;rounded=0;orthogonalLoop=1;jettySize=auto;html=1;" edge="1" parent="1" source="urfwJ74LONXbReBFOj0j-40" target="urfwJ74LONXbReBFOj0j-42">
          <mxGeometry relative="1" as="geometry" />
        </mxCell>
        <mxCell id="urfwJ74LONXbReBFOj0j-40" value="issues the invoice" style="whiteSpace=wrap;html=1;verticalAlign=top;labelBackgroundColor=#ffffff;" vertex="1" parent="1">
          <mxGeometry x="905.56" y="240" width="120" height="60" as="geometry" />
        </mxCell>
        <mxCell id="urfwJ74LONXbReBFOj0j-42" value="receive payment" style="whiteSpace=wrap;html=1;verticalAlign=top;labelBackgroundColor=#ffffff;" vertex="1" parent="1">
          <mxGeometry x="705.56" y="240" width="120" height="60" as="geometry" />
        </mxCell>
        <mxCell id="urfwJ74LONXbReBFOj0j-44" value="archive order&amp;nbsp;" style="points=[[0.145,0.145,0],[0.5,0,0],[0.855,0.145,0],[1,0.5,0],[0.855,0.855,0],[0.5,1,0],[0.145,0.855,0],[0,0.5,0]];shape=mxgraph.bpmn.event;html=1;verticalLabelPosition=bottom;labelBackgroundColor=#ffffff;verticalAlign=top;align=center;perimeter=ellipsePerimeter;outlineConnect=0;aspect=fixed;outline=end;symbol=terminate2;" vertex="1" parent="1">
          <mxGeometry x="560" y="245" width="50" height="50" as="geometry" />
        </mxCell>
        <mxCell id="urfwJ74LONXbReBFOj0j-45" style="edgeStyle=orthogonalEdgeStyle;rounded=0;orthogonalLoop=1;jettySize=auto;html=1;entryX=1;entryY=0.5;entryDx=0;entryDy=0;entryPerimeter=0;" edge="1" parent="1" source="urfwJ74LONXbReBFOj0j-42" target="urfwJ74LONXbReBFOj0j-44">
          <mxGeometry relative="1" as="geometry" />
        </mxCell>
        <mxCell id="urfwJ74LONXbReBFOj0j-46" value="" style="shape=image;verticalLabelPosition=bottom;labelBackgroundColor=default;verticalAlign=top;aspect=fixed;imageAspect=0;image=data:image/png,iVBORw0KGgoAAAANSUhEUgAAAr0AAAC5CAIAAACqSBCwAAAgAElEQVR4Ae2deXgT1f/vO0nTJd3SDdqmLVDaUoQitqACgt+yyL6UfREFK/uOoqgIuIIgKqCIyCJSZBdFEC4o0LKV5WGprBcotLcL7e122+ab5JfMc+4zk2QySWaSAI3Q9p1/Opk557O8Pmdm3jlzkroRvEAABEAABEAABEDAOQJuzjVDKxAAARAAARAAARAg0A0YBCAAAiAAAiAAAs4SgG5wlhTagQAIgAAIgAAIQDdgDIAACIAACIAACDhLALrBWVJoBwIgAAIgAAIgAN2AMQACIAACIAACIOAsAegGZ0mhHQiAAAiAAAiAAHQDxgAIgAAIgAAIgICzBKAbnCWFdiAAAiAAAiAAAtANGAMgAAIgAAIgAALOEoBucJYU2oEACIAACIAACEA3YAyAAAiAAAiAAAg4SwC6wVlSaAcCIAACIAACIADdgDEAAiAAAiAAAiDgLAHoBmdJoR0IgAAIgAAIgAB0A8YACIAACIAACICAswSgG5wlhXYgAAIgAAIgAALQDRgDIAACIAACIAACzhKAbnCWFNqBAAiAAAiAAAhAN2AMgAAIgAAIgAAIOEsAusFZUmgHAiAAAiAAAiAA3YAxAAIgAAIgAAIg4CwB6AZnSaEdCIAACIAACIAAdAPGAAiAAAiAAAiAgLMEoBucJYV2IAACIAACIAAC0A0YAyAAAiAAAiAAAs4SgG5wlhTagQAIgAAIgAAIQDdgDIAACIAACIAACDhLALrBWVJoBwIgAAIgAAIg4ErdoH1w/VzWGdMr6+yNYl2tAqeLD306bmTalxkVj2hW++Divk3frly9Ye+5Qq3ZhvBuwb2q/PP709euWrV227HbVbTZBLZAAARAAARAoF4ScKFuUO0Y7k+5mV+y5MXZtSoctKffbuFOydp/ck3/CLWpPPlR5xCpIUBKGpqy7IKKsSK8W2iv/t6moVGepgwpr+avb8+HdHiESqALCIAACIBA3SHgSt2wdbAPJQ0ftuYEO+WQdfZmsf37u6Y8P7egQmMDT11aUFxjuiPTqtK8vBKV4W1N/j+XbjzgemjK8u7ll2tMTVlDIkb115d08KbcY4at3H8kfWZ7P0qiGLS5mBbe/T+CjbVXVowe+u4Pvx/7O316si/lRnl0/jLHfoY2qWEHCIAACIAACNQpAi7XDdFT/uLu64ToLn2eEh0Z1/erbB3RXl7Ws3lU8ryjKkIXHlrYq7mflHKjpP5xA5aeKKcJnb9xeGzzAfMXpzb1pHxS02uIPve3t1Oi5BKKknhHdluS9d+Cn0bGRcaP31FGSPW5r1Pj/RkDEnnMpH1VhAgaNdWGvv/1fzwp0wxI6fq+ckoakfbnfwV3778l2Niclv7ap+1lbm6yFz6/Cd1gQoy/IAACIAAC9ZGAq3WDJCB55Jy33nrrrXkf7byhI0R/b23vQImk0ZCfL/+UGir16bDkHx1d+PPgUIl7VL+P0ndvmNMpSCJLePuUVn9nWScZJZXKwjq+Nn3Wd6fV+ev7B0qkjbu+u2Fn+rLxKRO2lzEt3Dy6fVuoK17f14fyajtp/Z6d6z6evuRgJRE2aiqh5tj0ZlI3z74bKpk9miNToqWUZ7+NxYK7f/hDsDHblelO5/7QWyGhZK3mZ/FWSZhc4S8IgAAIgAAI1B8CrtYNlCwgvCnzikmae5j9hK45vzDJk3JvHNHI3T1u+t/VhJRt6u9LyRJn78++evXqha97+1GyFz6/weoGN/eYiX+WM7jp4nW95ZSszQcXuDUShhYG3fBjHx/KPar3ol2XjIsvRYwaK6fenxYuoeSDt7JrGrSZs2Ld3Tx7/pAnuPvbrYKNSwy2dLfXD4qQUh7xU/4stXhCUn8GCTIBARAAARAAASMBV+sGqeVzCsarPmdFF3Y5oXvCvDNaQvTXPmFm+XkvyqvjUqNuYFQBezfWZS9OMkwucDdns26gSc35rwc192EeU/jFD1l1oUbMqDFtzVF2CqHPelaTaA5PipRSvkN+KRPcvfmAYOMaJpe8PWkJXpQ0rNfKK2oMKhAAARAAARCo7wT+fd2gOvHWMzJpcHSUn0QaPmLbA5rOX5XiQck6fH5drWVfOp2eJoSvCpj5hnsrOsvc3OPnnDA8C9Dr9VYtiLYw6+e3uoRKKP/Un0uFjZrKqb+7vJPMzb3lO4xwofNWd/WiZIkfXNAI7j57S7Cxji4+PDfJTyJt1O2Lc8yCCrxAAARAAARAoL4TcLVukASnzF29hnl9/8Pey5VEf315F1+JvMOSC5nzWskoWcu5mTW6y4uTPSiPuBFf7z994VzGb+s+Wbb3vo0q0J17P1FGSRTJr3/81dI5/RMHrM7936b1Df+Ts37qa4u3HDmduSUtwZ3yT91SIWyUK6fu8qIkD0oS+tLUJV/M6a50pzyeXXBeR4R3C+9V/fmmUupGuYc/P/hV9jV23MLf8jkP2AABEAABEACB+kfAhbpB/UdauPH3EdhnELJnP7xU/vt4pdQjdgqzcPHBtlFKmSSgz7p8uursioHNfSTGH1OQhfRafUtP31/VzUfq12+DcR0BocuOLUoJlzGNKInfM7MOVnIt6OIdr0UbfkqB8lD2WJpVTQgRMsorYOWJT7spPViXlHezASvOMn0IEd4ttLdq+/BAY8jGZyzM6gueB2yCAAiAAAiAQH0j4ELd8JCo9JX3L5/KyDh9+W6ZnW8lqAuvns7IvJBTafOFR03JzXMnTl28U2L+fiQhDoxqHlzPOnHi/O1Sbq0lG7TwbuG9D5klmoMACIAACIBAXSbw9OiGukwRsYMACIAACIBAwyAA3dAw6owsQQAEQAAEQKA2CEA31AZF2AABEAABEACBhkEAuqFh1BlZggAIgAAIgEBtEIBuqA2KsAECIAACIAACDYMAdEPDqDOyBAEQAAEQAIHaIADdUBsUYQMEQAAEQAAEGgYB6IaGUWdkCQIgAAIgAAK1QQC6oTYowgYIgAAIgAAINAwC0A0No87IEgRAAARAAARqgwB0Q21QhA0QAAEQAAEQaBgEoBsaRp2RJQiAAAiAAAjUBgHohtqgCBsgAAIgAAIg0DAIQDc0jDojSxAAARAAARCoDQLQDbVBETZAAARAAARAoGEQgG5oGHVGliAAAiAAAiBQGwSgG2qDImyAAAiAAAiAQMMgAN3QMOqMLEEABEAABECgNgjUT92gqy4uKK7W1Qagp8aG5srP702duTKj/AlGVB+5PkGccA0CIAACdZCA63VDTd7ZfT+vXbVy9Y/bD/9T4tS9XH/7u0GxTZ6dc0jzCERVZ5d2V3pQbpTPK98XPEJ/Z7rQVbcz9/y0ZvXarYevlumd6SHWhi7YPDo+OiFtlyM5UP37uAipe/OZx/lM9OV3L2Zlnb2UU24ZhLbk1oWsrHP/5KvE/D78fguu9MP3fwp6PPxQ5EaiC6LXld46n3XmTFbWuYtX75Xxy/o4ztRF1y9cvFWiZWzwtx/HJvqCAAiAAI+AS3UDXXjogxSlJ+VmfFESv5aj1191eInUXfrwWRnlM3jrI9z2qneNCpJIG/davCX9wJUaXqa1tqm9vnZQtAdFUVKplKLcoyYz8oYu2jO3V9f+Hx9XP5wf/Z1lnWRuHt2+LbR/K67YOSpU4p4w7zR7QzD6UP86Jkji5uZGuTd5c38l57j819eUUga6rO3Cy9zex9x4JK6PSsVBrI9g9hGHIjcSHUT0CIdVu0YpzGeGLKj1sK/OmGvowKAoAdUvQ3woqXLiIUIIf9uBPRwGARAAAacJuFA36HPW9QuRUDJlj3c3/HHs+IGfPuzbREZR8hc+zebPOqhLC4prjDdNWl2an1+m0droBk15fm5Bha3g4Hdmc6bvf/2yh5vHf77Js7gPW7bTVT/IvS9kjhBNWUFhhfHerK8pziuq4sfKuFDtGxcmofxTvsiu1lffO77ukw3ntYTor3/6vMzNs99Gi0u/iCNaVZqXV6JiInRSN5SmDwmUyNosuGARjWrrYB9KGh6llEkCU7eUGDKmC9f18XcPjY6SU+4J885wI0FTUXDv/oNqy4kJ5qi2osAYDNfWdkOIq7BFXnIiVGytm/ZYlkms6CJmRWAztp0binzv1iPRFCERDYrfm2ttZ4MtnqTR4NWZmX9unNUxUELJWr931lRfYbaEGL0IDzdmdLJDQjnhoNW2nUBwCARAAAQeioDrdIPuyqIkGSVt8uYB7lZa+ccbkVI3WeL753V0/sbhsc0HzF+c2tST8klNJ0T9z7pRLf2lFCUL6zSkWxN343wDXXhoYa/mflLKjZL6xw1YeqKcJtadTdMK+pvf9FYGMM8oPBWNo3os/yfX0kkNoUuOLxncOkhGublRUt9m3efvz6eJyd7CVdNfbCSjKFnjlxcfPLZySLyfhKK8ovuvusIXLKXrentSEkWv7+6arvFEf+Ornga/XoqwiNi03dUijgjR5/72dkqUXEJREu/IbkuyVOb5BtXFFQNaRjfrscxCVjHVpIs29A+gZO0+/odzyRaZvUnInps4rYu3xL/PugJWiNz96mVv9yZpc4YEMvMTjG5QXfz+tReUcmYKgpIFJo7dcF3Lpbx6ZqcwD4qS+rd645ccPXOHXZvaPKrl1D+YeRP9rdUDYqISZ+634nqtSsAi094iuc+2L7OiImj8oCkWbizUEKGim4b1Q8A2dbE7FLVWI7FGcCQyVRAYiQKxm5w6+svd4ZnBVbNzpIJy8+yzvsJetYyEBi1bYgXW7IuzCt1ghoItEACBWiXgOt1QvrGfN0UpRu7kPWyo2DRATlHy1PQa9nM2JZXKwjq+Nn3Wd6f1Oau6+lGUPL7vxImDWiskbm6sbqALfx4cKnGP6vdR+u4NczoFSWQJb5/SWnfm5u7LT/04t2cTdzf3mD6zF647UfK/l3WS8Zyoi7YOayyRBHeavW73rm8nJPlLJCFD04tpgz2JxEPZ6dU3ByT4UJTUXebfom/a612UMkoSOnYvj7n+xoqX/Sg3yj2wder8TVnFzAf48lPrZnZTSt3c4we9s+CzXde1Io7o/PX9AyXSxl3f3bAzfdn4lAnby4y6YfWNI7NbeUl8k985WmYxU8LcsPLXvOJLeXb84qbVZIFBNyQvPPRNNzklT1l5T090/3zczsM9dtbhbaNNukF/d3VquwGzv0rfu3fjrBcDJFLlmwc1ppRl4S+OnjgyOUji5h435wQhuqsfJ8vcPAf8VE0I4WbprbneFrBIbJJb/78sqeiEjRvmXPhlEiw6VwJnYXMdiN2h+P+YCvC8/1dwJBLhkWgTOzcUzd5Ftrg7vIYQ/Y0lHTwpSUTaAY2danFny6HjVmDNLjir0A1mKNgCARCoVQIu0w10LvPAQKqccJD3YV29e3SghPlYVc7et9zcYyb+aVgQWPJjb29K2mTyEUZllP2R1lTK6oayTf19KVni7P3ZV69evfB1bz9K9sLnN6w784joc77sLHPzSFnFzCNYtytZ39eHco+fc4K9utfsHdtIIgka86va0E7W9oPzakKqtg9XSCSBAzbk00R/a2kHmZus85c8D4ToCw59NICZjGBWFoR1W3qmyvo5hYgjVfG63nJK1uYD8+MGk+u+faJlspgxv9y3kgbsJPs3Kd6Ud8o3zHyAxcuoGxZfub/mFR/Ks8PSG+qsd59xZ6YZKhnS/OcUtKY8/871v95lVEHfDRUmv++fUxGiPTk33p3yGrhZTDcw8xA8roYgrCzStslZP1Cwpxt4Y0G46LzMLWfpRWCbF5rYH4r/l1VujkYiEQ5Kbz3ETFGW7570XEILq1dC0rTfGT3GvtjiUT4JvV57NbVDlBcl8X/x43Omc8WKrY0XSwImk1Zaga8heE2wCQIgAAKPRcBluoGUb+jrTVH+Q37hrpSELvquuyclafT678ZbNbceUH/tk3bM7X4lc7s3f86tuvZJe5lpVSX7l/LquNSoG7jOfAAW9zfD5ZZrp8tenCRz8+i6mp3QJ9qz7z7j7ubZ+0ejiDG20xycoJSa9E7J2p6ebrJOy/guDNu6B1kbpncMlVKUvPu3ubTFhVzMUYkhAP4iSEOI7BoFyqPl7KPcMx3Oo/7WFx09Kd9X1rBouN3Mhkk3ZGsLf2Ak1XPvrZ7UTMrqElahGXVD9YVvRyc18qRMq/BsUuaCd1Y3CFk0Js1P7qF0A1cmvXDReZlz8TK0xGDzvqBidyjWmJ8UMS5ERqJIUEbdwMXOBak+t+6t6dOsXtPnbbzETUgYdINHo/jk5zt1G5S26JfLFexEkxBbq4FsLVM5r1jfwEOBTRAAARcRcJ1u0J1/P1HmJlWO3VNqnHjX3fomxZ+iAvpvKDI8GjB/j4DOW5ni4cbc55jrqurYjFh2fUN1/qoUD0rW4fPrai370un03DyC7cWa/XDO+1xsdbk1fO6UPfvhRXaZgPqPN8IltiLGoW7QMyGwL92FBW1kbrI2Cy7q9Nc/Y9ZF9lnP3K7EHKnuregsc+MmPIheb7rvdF2yZVKsjPJs9VaGWWYZfPzzcTsZw+yByavROV836Oii9f38KYncRy6RJX/0j46YdQOd/10POeWRNPfwvYqauyu6eNhKJe4+bLohGdFWH5nanK2D5XyDsEXaNjliQUXUuHWZhItuTtvSrBhs83wDsTsU/8dSN4iMRFokKKvYeUE62uRmA0xzDGwHYbY2XqzAmn1xVk3Dg1HA5sPYAgEQAIHHJuA63cCsFkwJkFDS4OTR7y375uuPp78S401RXq3fPl5teoRgvvXrzr2fKKMkIS9NXbJkVvcoGfP7C4O3qnSXFyd7UB5xI77ef/rCuYzf1n2ybO99083W4qOtkYS9+QZisObeZPDXB8+c2PHOS4ESqfK1veWWX2pwoBu0J99Oik8ZN3/pN998PqNbJLPyc9KhGsLeV9ykYV3nLlu+7aKKDdvWkTFLRfLrH3+1dE7/xAGrc013rYKS399o6k55tnnnhGmZJ5OS7uKCNjJJ0JD0UoFSc/MNOkIXbxrIfK2P8uyw5Iae8HSD/vYXHWWUx7PTdx4/9MOkZIXErm4gZT8N9KMo75bDPvx0ZlelsQ6WukHYIrFNLl/H3G05KloR49Z3ReGi8/J3Djavg72haONdcCQax471SLQcOjyPjje5O7yFbhBmax2j1XDj5jAw3+CYO1qAAAg8LgEX6gZC9HkHFvRu7sssBGB+ZUDi06z7O3tz2A/79P1V3Xykfv02lBgzoB/sn/VcANNU4td67KzBMR5Bo3czyw3OrhjY3MdkQhbSa/UtvU1nMwU677sePlLfPuuYj+e27aqyvuzfTG6Mxyuq+8IjNu00x2bFymSxs44x1/Pynwb6SeRdV/EcFO9/u0OYB2uCkvg07/fZcXY+RX/nh/5h7sydm300I+yI0GXHFqWEM1/ncKMkfs/MOlhp5kA/2P1Gcy+pX49v73HutGfmtXSXhI7eVcHt4m2o97wa7C7vvJxdL1m6fXS4TBrQY/VdZhmE+sCbSplX0sKLhOjvbR0b580uxghuP7R3vIfvoM0VFmj0d1a8LJcGDP2FsV1xdH4yUwdKGpg88Z0RbB0IseAqaJHYJldFrKgIG7eIhU1PqOi8vK3NisC26CE6FG28C45EIjwSBYYY36u9bfWeV0OksrjZx3l3fWbCzGG1WKPWYE2e1L+ONVhlxgBv23Qcf0EABEDgcQm4VDcYglMVXT97IuPE2asFpp9pEAtaV3rr7ImsmzY/KqmvvH/5VEbG6ct3yywvsmKG7O7XledcPJlx4vydMstvNdrtZHlQV3b34smMU5fvV/GXKuor7pzLyLxwr8r0XEbEkbrw6umMzAs5lfzOlg6M7zQZM2PdpRHjzKvpBJs53ql5cO30iXN3DU/QHTZn63D2jtWPUFp2E7Nok5wNFabIDowzrhwU3casCGyLqJ0eiv/OSLSIjfdGjC2vCQPIarhZHsU7EAABEHARgX9BN7go8gZgVps5K9bdvekU9ksmDSBfpAgCIAACIPDUE4BueKpLpK0ur9LYLoh8qmNGcCAAAiAAAvWYAHRDPS4uUgMBEAABEACBWiYA3VDLQGEOBEAABEAABOoxAeiGelxcpAYCIAACIAACtUwAuqGWgcIcCIAACIAACNRjAtAN9bi4SA0EQAAEQAAEapkAdEMtA4U5EAABEAABEKjHBKAb6nFxkRoIgAAIgAAI1DIB6IZaBgpzIAACIAACIFCPCUA31OPiIjUQAAEQAAEQqGUC0A21DBTmQAAEQAAEQKAeE4BuqMfFRWogAAIgAAIgUMsEoBtqGSjMgQAIgAAIgEA9JgDdUI+Li9RAAARAAARAoJYJQDfUMlCYAwEQAAEQAIF6TAC6oR4XF6mBAAiAAAiAQC0TgG6oZaAwBwIgAAIgAAL1mEBd1w366uLCUhVdjyuE1EAABEAABEDg6SHgUt1Qk5d97uKdMp11utqSmxfOXStUW+8Xfa89vfCltjMPagjR5/69ft2hu6xJ3fW1qU38/EMbxU08oBHta3tAe3JBx+S5fz1MF1sjhj21aErMBX+/MAd+C2yDAAiAAAiAgCsJuFA36HO+fMlDIvVsMTfTQiGoM+a08HSXylO3VDubmebI5GjFsO0qQqp2vx6tHP5zMU2I7tx7rXy6rLirJzqdjTSxtKw9tWTIq6uvGFtpDk6IDBnzq0VQlu2dfleLppzxKcjBmY5oAwIgAAIgAAK1QsCVuuH20g7yxJTOjSNe3VNhDrZ0+4iIhB7dm/n031Rl3qurKsrNK6nRm/ewW9rKwrziGtp8v+QdV+9/IyLs9d+duf2rdo0Kip58xDjDwN3stRUFeSXWDzk05fm5hZUiQkSvKsm9l1/OTVVwpnRsoNbhi2TFS4LbtOuW2OPAmLCOy2BWW1FYWKHlXJg2+LuFOzItNeUFBeXGzrSqJL+oyjo7kz38BQEQAAEQaDgEXKwbfF5c/OOkmMC+PxYYlyDoc1Z1C+n8+c+z4jndUHl25YjEIG+fAF9P7/AOU7bdNtyz6cI/3uoY5uXt6xv87NiJvcID2PkG7YkPOiTPOaIpSx/dNEgulcqDwpVJMxePa9n+naNGBaE9s/Cl1hP2mkQJXbRxWJMgb4m7T3B4RHTq2lyaudkHdZ8yo0uUwtdbFtD6zR25hltixekVQ54Jj4hrER0a3m7yjhyLG6X20uqhiWGKUKUySB7QYvTGm0yYrKlXZrzVNVrhJ5f5xg9bm22Mwjaril1pLdvPO6oyDC7t6YWdWk/4lYnSrltinwMhgnGRipOf92oWGtG8WXhIo/DwiOg+K2/rtSfe79T9nS+ntg328Wv19qlqoYQI06jH/NXvpUQrfDy9Int/dTZ7S1pymL9cJo8dsfGWBZKGc5ogUxAAARAAASMBl+uGJdey3kv067TsJnvH0V1Y0DZ04KbczDkm3aA6OjPer830fbkaQped+TQlWPHKmnt6QqoPpEX5tX8vs4zW3PttZrK/xI/VDdwHfG1lXvqoxo1Hpd8vKq36Pz/2VSjf+KOGSUqTMSsusN/6IvNaSU1l7obUwMhxO+8XPajQsDd7pVTe+s1tN1V0+bFZrbxavXdOR4jq6Iz4xj1XXlMTQhf9Oq5ZoyHpJWYjRJv9+5bjuYwq0Fxb2tkvfnamQTcopZ7xr276p4quufJltyBFnx/yCWPLNqu7+Wt7BUSmHTBEeXxGrKLvj4W0I7eOOAjEpSX6W8teCnj+oysaQsoPTopXjtiSrzbk7SWPG5Weo9WpNXrbhJjZBc3BCUoP/7aTdt5Ra3O+7xMkD2jaffHxYn3VmfnPecfMOMZNteAUAgEQAAEQaIgEXK8bbmpuLu3o23r+WS0hNQcnNosav69Kc8KkGzSHJ0X59V3PrFdgXqp948J8+20sI5pjM2J8Xln7wLBf/eebSsN8A6cbCFHvGx8ePn4f+/m+dOvQkPCxzKd3zfEZsSGpW0osimn7nCJ45C72/k00x6bHKIZuUxHN0WnNAnqtOH+VfV36bmBw9KTDNndJbUX+nRtXtrwWHThip+EuGxk0fLtxoUbl1sEBipE7CRHOin6waUCgQd5ojk1vHpy6uYR25NYJDmym/LhUDL1Y5fg/GDR03soU385fMnMnjCTw7/VDIU8MEWLZkW0UaYLD9JW3ZkUVIdrM2XHcHJEFXbwBARAAARBoOAT+Bd2gp/PX9lI0mXio+sHm1EYt3z6tJVpON1Rt6i+PnHjIdH/WXVjQRt5p2R2i2jlCETp2r3HS37y+QUQ3kMpfX4toNHJHufro9OaNR+4ot6ygrW7g1kVqT73dwi81XUVU24b6yULjk5JNr+cHLj/PW+ZA5+17p2uz4MbNE5OSEsK8AobvMOoGzhTR/DW1iXevdYQIZ0VI2dahIRGv/1bFRNlo+HYmSgduHXOwjUtFSPne1yLDU+Zv/uP3tWltgpIXXjA9VDEHSwQ7sk9euEYla3v6tFlwkaWgPTu/lU+f9byVKpaM8Q4EQAAEQKAhEPg3dAMhZduGNwodsuTDlxQdllzXE55uUO8ZExwwOL3SyFp9IE0ZMGhzBdEcSIvw7b/JeJfSHJoYaXe+gRDVoUlNQgZv3D0lRjmWW9tgqqB61yje7AFPexDC6Qb1/rSIgCFbTcsiTF1NfzVHJjcJ+M9y5ikG0WbMjFXwdMMeo7yp3jEiKGj0bkKEs2KWMuwaHRb26vbfp8Yo2dkRQhy5dcRBIC4V0Z58u1WL/tMnjxg4YPjU5YfuG5Y3WuRNBDsa5hugG0xVx18QAAEQAAErAv+ObiA1f06I9pDJFMYFkub5Brpw44DAwJQvLjFPDTQ31/YPCx30UyFN6KL1/RTBvdfc1hG6NHNRlyCp1foGy+cUTOfMOfH+TZqGR6ftNzyB4GWqPpAWoRj4U6lhl8X9k9MNdHH6kNDQ3t/eMIgAurqgoJw3o6/aNTIwZNi2MnYd46KOAdx8g9Jd0eH9o8U00d1Z2ycksP+GQkKEswrND8kAAB3pSURBVGK8V+8brwxukaDkonTg1iEHgbhUpHrXqNDIHvO++WHDT+nbf8u4UcYuLrHImwh2dEo30Hn7Pp66YNddrJHkDTFsggAIgEADIeBK3ZCz4mUF+/sKzEf00/NbyyPH/26YWNCeebeVYnA6uyxAd+vnca0DvENiEmIb+4W2m7b7vuF+pDq/vHu4Z0BkfJPwhKELJ70YNno3s7bv72kxSsOiBs3BidHRE5gfgzK8dBcWPOshbTLliPHTv2k/85C/9Le0Zp5+ytiYvl/n6Hk2CNGdfS8xePgO5lsOurvbJrQN8ot4pv0LyQnKkLhpB/mWKv6al6RQxL7Q8dmWnccNbxc+Zg8jVv6aEps4dGKPpqFRcZEB8iYDv/vHEI9YVkT114w4D4+4maZvfzhySxxxsI1LTejcTakREe1TR48cltqrfbR/WM/V13R8dgwboY4WgAkp29BP0e6jbPY5he7ih20VgzZXGmrpFzcLSyR5IwybIAACINBQCLhQNzwEQn3V/UsnM09lFxi/pGjsSlfnXjx5+p8i/u1b3Cqdt+aVgNgZxzkhYdGUrsw5l3ky29GPVNI1+dmnMjKzrhbU8CYbjJZ0pTezTpy9U277QZsJ1CZ8kawswjK+seuWOOJgHRczndNo6C/M3Agjhy4uaCNPWWX6JqzRo+GQaEL8VtgGARAAARAAAROBp0M3mKJ5nL/621929o2bnWn7O0ePY7VO9tWend/at+XYb/efunD+5O9fj2kZ/PzHl3hLPOtkUggaBEAABEDgaSBQf3RD+d453YevxO2RHVU1N/Z8OnFwjy4dO6X0Gf3W9yeKbKdInobRhxhAAARAAATqGoH6oxvqGnnECwIgAAIgAAJ1jwB0Q92rGSIGARAAARAAgSdFALrhSZGHXxAAARAAARCoewSgG+pezRAxCIAACIAACDwpAtANT4o8/IIACIAACIBA3SMA3VD3aoaIQQAEQAAEQOBJEYBueFLk4RcEQAAEQAAE6h4B6Ia6VzNEDAIgAAIgAAJPigB0w5MiD78gAAIgAAIgUPcIQDfUvZohYhAAARAAARB4UgSgG54UefgFARAAARAAgbpHALqh7tUMEYMACIAACIDAkyIA3fCkyMMvCIAACIAACNQ9AtANda9miBgEQAAEQAAEnhQB6IYnRR5+QQAEQAAEQKDuEYBuqHs1Q8QgAAIgAAIg8KQIQDc8KfLwCwIgAAIgAAJ1j4ArdYOu9PaV26U6MxS68n729SLze1du6XP/Xr/u0F2ed3vetCcXdEye+5fGXpun4dgTilPErT3GIl0eG6I9n4SIHhU98NgBsQZqL1uDpdqJymDlkVN/jKTo8muHfl6zcvX6XSdyqkWTMToQPW73QNX9y1lZZ7Kyzl64mlP21J+4dlOp7YPa0wtfajvz4MNAEam13bEj0ufhsqkVIwaXjzWchKK2m71QB25fLWbF2XyqNlyoG/TXP3te3v6Ta3ouYdXPA+VNp3FvXbpRtfv1aOXwn4tpp7xoDk6IDBnzq9qpxo/RSHtqyZBXV19xUs3YOvq34rTyLOLWHmORLlaGnXlrycyeT0J4Rx+mm/0wLC0Jtq29bA2WBJ084k4eE4cWLFJ91KR019f0V/pHvThwxJCeScrQwelVIn6NDkSO2t2tv7u8k4dXcHRsbExUqI+Hf2yPOb9cV9nt8hgHLbA8hh3hrrVuXXNkcrRi2PaHwSFSa7tjR6QPL0knMnNshGfP/uZjDCdhw3azt+5ikWstZmXt5+l471Ld8Onz8nY2umGqOXFNWX5uUZXFTVRTnp9bWGmxy9yeCHTgHXW0qSkvKCjXGlrRqpL8oipO0ljVWa8qyb2XX24r2LUVhXklKistIhSzSKSqXaOCoicfsTCsqyrKzSup4WKxToNviotTW1FgG4gjS9aWnX5v3y1nhq4pzssvVbN4nOsiDJpvhxAhZpxL8Q0H3R6raDZhc9naxCPkx7KRrqoov5grv8ES18LGk+GIJSF2n2NHnFEiOIyZwxbQuKQEB5uoP+3JufFeLy65aRjQ6uLiCtP5Yp2M0YE5LiGb/OFvbqm/vbSDPGmRQYGr7x/+pJfSs+n4vbyPCUK2mP6WuFmL1nGZ3GgrCgsrmAuGBRbTUWLnemJoIxaCFX5h60Y3YrEJ1lBbWZhXXEM/jm4QrDWXMuEPPPvjg+kjkJl1PpwRsw/Tlhg+03HrWloNJ2tPhm78BEyGHDsytSSC2NmjFrlyWQnjfBiHZtdP09aT0g26W5tfTwwLi01oFhY1aF0Oc42pOL1iyDPhEXEtokPD203ewe4zo7LqoD31Ycdnxm0vZS5J9P11Q+Lbv3ucvRvrb387IGH4xkLtiQ86JM9h7tDaE+936jF/9Xsp0QofT6/I3l+dzd6SlhzmL5fJY0dsvMVe3rg6E+2l1UMTwxShSmWQPKDF6I03GQ1jMPHdgu5NFb7esoDWb+7INVwVhWK2itTQkAmzaOOwJkHeEnef4PCI6NS1uTSpPLtyRGKQt0+Ar6d3eIcp225bCSYbU0ycQd2nzOgSZRWIgCWHiExwHTakRdyaGRP6waEF3aJ8vP395X5RXT87rRbpYvJJhEFb2zl5z5qZyWfFrrSW7ecdNX6m0p5e2Kn1hF+rjEf/a4Pa1I3x/1hFUwuND2IePzWXvklNTJ62r4wW9MPL/8T7L/V5f/W8rk0UfnKZT/PBa7KZ6S6DJaaZ4Egk1oROq4UT4juyPBMEhjHb2GZ8/ldssAkB5PnLmNncs9W8UzXmXSLJGKmx7YRs2gx/s0UL3cCcXCXbRzSWv7T8ttiVRCuMWxAyc7p3f+fLqW2DffxavbVvneVpq3bieiJYe6GriA10k8YSGwBCRhgsdOEfb3UM8/L29Q1+duzEXuEBFvMNjk5xdtgJXFj4p81DnuK2mQmyFjxzBPGZiy9SS/NwEvQkdObYd8TLXgy7ISibXEVPHfsOzSk+7VtPSDdoj8+MbTTsl1LmQll4L19FiOrojPjGPVdeUzM32F/HNWs0JL2Efw5Zd6jaPbpR8PBtFcwlY0N/P8o9fs4JLSF07qqu/kmLsnXm8ag5OEHp4d920s47am3O932C5AFNuy8+XqyvOjP/Oe+YGccYuWFurc3+fcvxXPYKfm1pZ7/42Zla9rBS5v/sm9tuqujyY7NaebV675xOJGbb1LgxoKnM3ZAaGDlu5/2iBxUaojo6M96vzfR9uRpCl535NCVY8cqae5zMYC4c1kkzcSql8ta2gQhYIo4QcXE5bCji1kytct8bUYpOi8+U00R97/CaLWdUIl04n8QWNCFEwI4lM65SdP7aXgGRaQfYu5Pm+IxYRd8fC1mBwz5vskLNdXvsogmGbTS/p+r2T8OaNn5pUWY57WhAs6V094ofvT67iq7JXtE9SNHnh3zaaInBZOuJ+ehrS8jBmcNLnamJwDDmamIFTaSEjvwR7eVlLwfJgpLGfrHvpukRhWAy5gu9oE3b4c9FSqx1AyEVmwf6+g/dphIBzyQjgFssLqWXPG5Ueo5Wp9boBbA4uJ4IpsNW3Ba/lXVzisIDQKSG1QfSovzav5dZRmvu/TYz2V/iZ6EbHF0L2NgELizmM1xg4ImMDy4D68zEWEeGjLE4c0QqyNllg7WpJXcRFzx1BM8cR4542Ytg52KyylUMjfDA4KzUnY0npBt0lxcl+bYYu+FiqfE+qTk6rVlArxXnr7KvS98NDI6edJg3nW/TgZT/MjQ47LW91cwpoezQMyXk2Q8u6OgHP/ZVtPnggs7yahkZPHIXe4Oh81amyFuzN31CtJmz43z6b2IubbwRwtZOW5F/58aVLa9FB47YqTIcNpkgmmPTYxTMBUo4ZttIeaOBP5mlOTwpyq/vetPUqmrfuDDffhvLeK1tTTFxCgQiaIk4QmT25IAli8fWrZma5s83lYrULRVmi2JdeC3YTT5oQgTsWE92cpWiH2waEKh8448awlSkeXDq5hLTXZddp8JHzSvwYxbNGL9l2MYB0mvKG62VnRZmlDF6V9gPL30mkaDh24031qqtQxSKkTtVRqbmdnxPzEi0Ie2UI8PaHeHRY/ZlxVq4uUN/jL3qazveH/SMwt1T2eWt3+5zWtg6GcOqIjFYtsPfHKqtblD/9lqIV5/1FSLxieA2WLSNS+nf64dC7nOLxVjiYxG+ntgJQeAsEprNNydKbGMTugIcmxHj88raB4aI1X++qbScb3B4LeAnZb7Cmc9wgYHnxCluwc2Yk1A+FmfOI5463DnOseN7EjpzHDpioBhXvYnw4Xw5deo4dMgz95RvulI33PjseXm7j69yVw1Ss3mgvNl0A5HqyxsmdlLKA+J6zdt5S0NU24b6yULjk5JNr+cHLj9vMWtv1YGQkp8GKqImHqo4PDnm+Y8y1vULfP7TayVbh4S0nHfGMEVgrDmv+oSUrO3p02bBRday9uz8Vj591jN3O3MbOm/fO12bBTdunpiUlBDmFTB8h1E3cMsmtafebuGXmq4SjdkmUvMY4J9IVZv6yyMnHjKJI92FBW3knZbdMeNirr+WlHhxMqraFIiwJeIIkTksByxF3Jp3MwE0mfq3KRXGsJkoP1KeS1vQhAjYsToh+XbLtg4NiXj9tyr10enNGw3fXm7plY+aF47YQLMmzYvUwpJQ2AbzAW1eTPSPHvlLLnvxFvPD2bUARDR/T23i3euHUmN+TCtbTyohQg/hyMIlN3q4iKwfSAs3d+iPs0eXZH07rLln4MBNIskYHZBHOJNsdAP9YO0r8rDxf6hF4rNIxoxbELJlW7tYBK8nzoTAw28xvjh69pkZVnBzRlQ7RyhCx+41rusWXN/g7OXS4nQ1kxA4Nc0HLfrwMrDMTJS15ZkjOho4wxaOTbXkznHBU0fozHHoiOeHt8m78HIR2R0jXJUcOuTbe7q3Xagb6KI1PeRNppgXAbLnevJHPCDa/GOf9wz3f2VNnnp/WkTAkK2maU1eG4tNrgMzOIrW9Q6InfbN3MSEOSfUuStTFC9/ump0ePws5skC7/5iUXLB85zXWnNkcpOA/yxnHpcQbcbMWIUd3WA3Zi7SPH4C6l2juIkU9Z4xwQGD0yuNx9UH0pQBgzbzP7Mbj/BMWeTCjUdhSw4R8QKzz5IH0+IKwUWj3j06KGjEDv437rhjjBcuUrNLAdCECNghhM+MVylmocKu0WFhr27/fWqMcuyv7NDheRXp5mTRuI+axDIAwbBNUe24uKpHaEjXr/7REGLXD4PBEOoe46W+avvwwKDRu3nzDQKeVEKEnHTEzMHw6AjWxDJVkeYO/ZlrTIj+1tIOXnGziXAyxngcwDIPf15RrHWD/t53ryiCB28poUXiE8ZtNy5jaaxGgCUWweuJ3RCMX9rinRKWI5XD50RsnBHNgbQI3/6bjBcPzaGJkdbzDU5fLi1OV/OIETg1zQct+nAJWA8nO5dW/pnziKcON7yJ0GgTOnMcOuIlyNt89FPHoUMeuqd804W6gehvLu/s26jnikvsJV17b9f4eL+khRcZIupbWeeLmA/9+pufv+jT8YvbdHH6kNDQ3t/eMJysdHVBQTnvMmHTgTFC533bzbdRWOOIcftURH/jsxd8G4eFxkw1/AqDudDmLeYTuIP5BtWukYEhw7YxTwsqTi/qGGBvvkE4ZpvU+CNAfSAtQjHwJ2ZdB6ELNw4IDEz54hLzBEVzc23/sNBBP5nnRoUoWV6zuKuGsCWHiPiB2WUp4ta8m85f21sR2vf721pCdIV/ffn1gTIL6lykZpcCoAkRsEMInxl3cTAMk+p945XBLRKU0Wn7DavweF5FujlZNP6sD9+SYNjmqOj87WOa+redd7xS2I85fwae0l3R4YNjJTTR3fm+T0hg/w2Fpict7OcXoZFoS+j/OjhzzFXibYle6HnjU6S5o8Togj/XrD2ex849qa6t7BkcOGAjEcBmnsYjRNimzZnEKwqrG9ouOFdZU1V6//KBleOfUwR1WXqRWR0lzEMYt924eLpBFIvg9UQ8BNO0t8W9hz++eAPEidi484ouWt9PEdx7zW0doUszF3UJklqtb3D+cmkxNMznk+3Ac3iKW5269vMxnzliFTSjEawldxIyM5Q2p47gtUWkTpwjc/Yi5wLXkrlYi44RrkqOM+MbfKq3XakbCNFc2zS+bZCXIjrhmeaNfANbj1572bAAvmzPG00Dla3aJcWGBCVO2pNPE6K7u21C2yC/iGfav5CcoAyJm3bQfN4SYt2BharPWd3d3z1o2C/MbV53cVGyt6zJ5MOGbpq/p8Uox+9jPmVxW4SQsg39FO0+ymafU+gufthWMWgz84Hf3Kbir3lJCkXsCx2fbdl53PB24WOYT4Tmw4yjs+8lBrPTEIIxW0fKVz+ELv0trZmnnzI2pu/XOXrdrZ/HtQ7wDolJiG3sF9pu2m7zk2A2P1tTooGIWbKHyGJg2m0o4pa3W315Vf9ob5/GzeOUQcqUz8+oeMcskHFObUEzh2zsECtmFnaJ6q8ZcR4ecTOPGscK76glat4BoYFmS5qL0yqAUpvxwbTkma84Ou85RfyMv2uE/PCsMhelgPb9ejZvHB0XGeDTdNAaZprCaIlpZwuITdKWkCNH3PjnRSlcE0vWKq6j41FvTowu2TezbZA8sElCQrNgn+Dn0rbc1IokY4yH6SuUg72i0Hnf9fCh3NzcKInMJ7T5C4PfTb9imqwUssVe+AVwC0K24MREZzGWLLCIXE+EQxDhaWGdp40cx8a7FKnOL+8e7hkQGd8kPGHowkkvho3ezb9+MlnYO8UtUjab5e+2GXj8g/yrIm8sWFzuHOXDnTmCo8FsVayWxngETx2mt00CwsPO7IiXIG/zcU4dR5mZfT/lW67VDUzytKrw6pmMjDNXCy1/90BTcvNsZua5O+W8M4Wuyc8+lZGZdbWgxuJ2y0IU6uASurrSm1knzloEZsePQMx2I6Urc85lnswuNJ7V+qr7l05mnsouEP6VFrumLKNyYMmysSveqYuuns489Y8pM8cuREDb2rFi5tiyoYV4t8cqmkjYQlEJ+DE1M36YUdXkXTp5WgSamCcBQvbOHJNLp/6KQ+N3t5MY00xTfOPcCfacN3cSS4ZrIWDzIYY/Z4bdsLEljtthXAaDlqetpTfBdzYhCLYy7BSD7lxsRsN0de7Fk6f/KbLWC3b8Puwh24HnyIJlZg+Rjx184rU0RyPiSSABO47M5pzassxVtEvtORR14fIDrtcNLk8BDkCgDhIwXvxceJGvg1BcFzJwu47tv20Ztfy3idv4g26wQYIdIPAvENBdWDF0wGenjL9f+i84bNgugLv+1B+1fOK1hG544iVAACAAAiAAAiBQZwhAN9SZUiFQEAABEAABEHjiBKAbnngJEAAIgAAIgAAI1BkC0A11plQIFARAAARAAASeOAHohideAgQAAiAAAiAAAnWGAHRDnSkVAgUBEAABEACBJ07AdbpBVXD10h3eb0Vri29euvGA97Wzmvyr2bmm33h7JBDakws6Js81/K70IxlAJxAAARAAARAAgYch4DLdoL/+6fNesbMyTEKh+tdXQ6WKIenMfy1kXnTeqq6+8XNPmo4bdz/UH/z+x0PhQmMQAAEQAAEQeFwCLtMNRHf+/dZezy28bPhn2JpjM2Jk7rKwcb8b/gERKfs5lfkv2Kafy9OrSnLv5Zfz/xMzm5q2orCwgtMWmvL83MJKg0Xm12xN/x9dW1GQV2L5M9aE6KqKcvNKang/Y20HlqYsP7eoirPMtLRyZqczDoEACIAACIBAAyHgOt1AtBmzYuVdVuQwN27dlUXJEQPH9FTETD9m+E95+8ZFhI3dy/znZe2l1UMTwxShSmWQPKDF6I03mbu39sT7nbq/8+XUtsE+fq3ePqUlFadXDHkmPCKuRXRoeLvJO1irjG4I6j5lRpcoha+3LKD1mztyDSqh8uzKEYlB3j4Bvp7e4R2mbLvNCgLN328lvzDfOAOiPfVhxzbTD6gJ0d3a/HpiWFhsQrOwqEHrcpjCCzlrIAMCaYIACIAACICAHQIu1A1E/eebkf591xfThM5dmRLSf0P26m5+ie+f1xGizZwVFzJ0K/vQQpv9+5bjuczEg+ba0s5+8bMztexUgtJLHjcqPUerU2v0qqMz4hv3XHmN+T+5Rb+Oa9ZoSHoJ+z+HlVJ56ze33VTR5cdmtfJq9d45HSGqozPj/dpM35erIXTZmU9TghWvrLmnJ0T922uNlWmMVGB8HZkcrRi2XUW0x2fGNhr2C/OvrTWF9/JVTH8hZ3Yg4hAIgAAIgAAINBACrtQNpGrPmEaho3ZV0eVbUkO7fHlXe2tpB58Xl9zU67IXJyv6/viA908vtRX5d25c2fJadOCInSqDbvDv9UOhoYXm6LRmAb1WnL/Kvi59NzA4etJhDfucInjkLsOTD82x6TGKodtURHN4UpQfK1fYGqr2jQvz7bexTEw36C4vSvJtMXbDxVLjEw0RZw1kQCBNEAABEAABELBDwKW6gVnEEBg9+XDF/rSoZz+4oCO6iwue9e/+XW7ONymKrqtyDaKAztv3TtdmwY2bJyYlJYR5BQzfYdANkSFjfjUuf1BtG+onC41PSja9nh+4/LzOvL6BSVB76u0WfqnpKlK1qb88cuIh01IJ3YUFbeSdlt3Ri8w3EFJ9ecPETkp5QFyveTtvaYiIMzsQcQgEQAAEQAAEGggB1+oGuvCHXgHPzP1u9jMxU44wN3Lm+UTgoNUrBwR3XHrL8Plec2Ryk4D/LGceQRBtxsxYhYBuUO9PiwgYstX6S5vcukimWJxuUO8ZExwwOL3SWEH1gTRlwKDNFYSo940P47SI5uAEZQDznML40uYf+7xnuP8ra4iIM1ND/AUBEAABEACBhkvAtbqB6HO+elke1TQ6dMQOw01fdSBNGdSkSWiy6YsWRLVrZGDIsG1l7HLERR0DhOYb6OL0IaGhvb+9YZh/oKsLCphfhhDWDXThxgGBgSlfXGKeX2huru0fFjroJ+aBh+7ywue8EmZnVBO6NOPDTgqpH6Mb1Leyzhcx6yb1Nz9/0afjF0TYGZ237+OpC3bdNT7MaLgjBpmDAAiAAAg0ZAIu1g1Ef31ZZ193xcCNRca1DFW/vh4h82674Cz35cqKv+YlKRSxL3R8tmXnccPbhY/ZoyZE8/e0GOX4fcbnFITo7m6b0DbIL+KZ9i8kJyhD4qYdtG6kO/teYjA7V0F0t34e1zrAOyQmIbaxX2i7abvvG+72+pzNI5p6eTdq1iSy9ajFU19kXZXteaNpoLJVu6TYkKDESXvymW9/CDjTnp7f2i9uluHbIA15xCB3EAABEACBhkzA1brBOba60ptZJ87eKbf/YZ6uyc8+lZGZdbWghregUsSDvur+pZOZp7ILuCcRhoY1+ZdPnr76wLT6gd2pKbl5NjPznIX/h3ImEgN2gwAIgAAIgEA9I/B06IZ6BhXpgAAIgAAIgEA9JQDdUE8Li7RAAARAAARAwAUEoBtcABUmQQAEQAAEQKCeEoBuqKeFRVogAAIgAAIg4AIC0A0ugAqTIAACIAACIFBPCUA31NPCIi0QAAEQAAEQcAEB6AYXQIVJEAABEAABEKinBKAb6mlhkRYIgAAIgAAIuIAAdIMLoMIkCIAACIAACNRTAtAN9bSwSAsEQAAEQAAEXEAAusEFUGESBEAABEAABOopAeiGelpYpAUCIAACIAACLiAA3eACqDAJAiAAAiAAAvWUAHRDPS0s0gIBEAABEAABFxCAbnABVJgEARAAARAAgXpKALqhnhYWaYEACIAACICACwhAN7gAKkyCAAiAAAiAQD0lAN1QTwuLtEAABEAABEDABQSgG1wAFSZBAARAAARAoJ4SgG6op4VFWiAAAiAAAiDgAgLQDS6ACpMgAAIgAAIgUE8JQDfU08IiLRAAARAAARBwAQHoBhdAhUkQAAEQAAEQqKcEoBvqaWGRFgiAAAiAAAi4gAB0gwugwiQIgAAIgAAI1FMC0A31tLBICwRAAARAAARcQAC6wQVQYRIEQAAEQAAE6ikB6IZ6WlikBQIgAAIgAAIuIADd4AKoMAkCIAACIAAC9ZQAdEM9LSzSAgEQAAEQAAEXEIBucAFUmAQBEAABEACBekoAuqGeFhZpgQAIgAAIgIALCEA3uAAqTIIACIAACIBAPSUA3VBPC4u0QAAEQAAEQMAFBKAbXAAVJkEABEAABECgnhL4/9xdf1YZIHzOAAAAAElFTkSuQmCC;" vertex="1" parent="1">
          <mxGeometry x="-358" y="350" width="701" height="185" as="geometry" />
        </mxCell>
        <mxCell id="urfwJ74LONXbReBFOj0j-48" value="" style="swimlane;childLayout=stackLayout;resizeParent=1;resizeParentMax=0;startSize=20;html=1;" vertex="1" parent="1">
          <mxGeometry x="-280" y="660" width="600" height="1150" as="geometry" />
        </mxCell>
        <mxCell id="urfwJ74LONXbReBFOj0j-49" value="the Sales Department" style="swimlane;startSize=20;html=1;" vertex="1" parent="urfwJ74LONXbReBFOj0j-48">
          <mxGeometry y="20" width="400" height="1130" as="geometry">
            <mxRectangle y="20" width="40" height="460" as="alternateBounds" />
          </mxGeometry>
        </mxCell>
        <mxCell id="urfwJ74LONXbReBFOj0j-76" value="" style="edgeStyle=orthogonalEdgeStyle;rounded=0;orthogonalLoop=1;jettySize=auto;html=1;" edge="1" parent="urfwJ74LONXbReBFOj0j-49" source="urfwJ74LONXbReBFOj0j-56" target="urfwJ74LONXbReBFOj0j-75">
          <mxGeometry relative="1" as="geometry" />
        </mxCell>
        <mxCell id="urfwJ74LONXbReBFOj0j-56" value="Receive Order" style="rounded=0;whiteSpace=wrap;html=1;" vertex="1" parent="urfwJ74LONXbReBFOj0j-49">
          <mxGeometry x="80" y="30" width="95" height="40" as="geometry" />
        </mxCell>
        <mxCell id="urfwJ74LONXbReBFOj0j-81" value="" style="edgeStyle=orthogonalEdgeStyle;rounded=0;orthogonalLoop=1;jettySize=auto;html=1;" edge="1" parent="urfwJ74LONXbReBFOj0j-49" source="urfwJ74LONXbReBFOj0j-75" target="urfwJ74LONXbReBFOj0j-80">
          <mxGeometry relative="1" as="geometry" />
        </mxCell>
        <mxCell id="urfwJ74LONXbReBFOj0j-82" value="no" style="edgeLabel;html=1;align=center;verticalAlign=middle;resizable=0;points=[];" vertex="1" connectable="0" parent="urfwJ74LONXbReBFOj0j-81">
          <mxGeometry x="-0.2724" y="2" relative="1" as="geometry">
            <mxPoint as="offset" />
          </mxGeometry>
        </mxCell>
        <mxCell id="urfwJ74LONXbReBFOj0j-75" value="Check Goods in Stock" style="whiteSpace=wrap;html=1;rounded=0;" vertex="1" parent="urfwJ74LONXbReBFOj0j-49">
          <mxGeometry x="80" y="96.25" width="105" height="40" as="geometry" />
        </mxCell>
        <mxCell id="urfwJ74LONXbReBFOj0j-87" value="" style="edgeStyle=orthogonalEdgeStyle;rounded=0;orthogonalLoop=1;jettySize=auto;html=1;" edge="1" parent="urfwJ74LONXbReBFOj0j-49" source="urfwJ74LONXbReBFOj0j-80" target="urfwJ74LONXbReBFOj0j-86">
          <mxGeometry relative="1" as="geometry" />
        </mxCell>
        <mxCell id="urfwJ74LONXbReBFOj0j-88" value="no" style="edgeLabel;html=1;align=center;verticalAlign=middle;resizable=0;points=[];" vertex="1" connectable="0" parent="urfwJ74LONXbReBFOj0j-87">
          <mxGeometry x="-0.225" y="2" relative="1" as="geometry">
            <mxPoint as="offset" />
          </mxGeometry>
        </mxCell>
        <mxCell id="urfwJ74LONXbReBFOj0j-80" value="checks the raw material availability" style="whiteSpace=wrap;html=1;rounded=0;" vertex="1" parent="urfwJ74LONXbReBFOj0j-49">
          <mxGeometry x="65" y="180" width="120" height="60" as="geometry" />
        </mxCell>
        <mxCell id="urfwJ74LONXbReBFOj0j-90" value="" style="edgeStyle=orthogonalEdgeStyle;rounded=0;orthogonalLoop=1;jettySize=auto;html=1;" edge="1" parent="urfwJ74LONXbReBFOj0j-49" source="urfwJ74LONXbReBFOj0j-86" target="urfwJ74LONXbReBFOj0j-89">
          <mxGeometry relative="1" as="geometry" />
        </mxCell>
        <mxCell id="urfwJ74LONXbReBFOj0j-86" value="orders raw materials from&amp;nbsp; suppliers" style="whiteSpace=wrap;html=1;rounded=0;" vertex="1" parent="urfwJ74LONXbReBFOj0j-49">
          <mxGeometry x="65" y="280" width="120" height="60" as="geometry" />
        </mxCell>
        <mxCell id="urfwJ74LONXbReBFOj0j-89" value="order raw material from one or two suppliers" style="whiteSpace=wrap;html=1;rounded=0;" vertex="1" parent="urfwJ74LONXbReBFOj0j-49">
          <mxGeometry x="65" y="370" width="120" height="60" as="geometry" />
        </mxCell>
        <mxCell id="urfwJ74LONXbReBFOj0j-99" value="" style="edgeStyle=orthogonalEdgeStyle;rounded=0;orthogonalLoop=1;jettySize=auto;html=1;" edge="1" parent="urfwJ74LONXbReBFOj0j-49" source="urfwJ74LONXbReBFOj0j-94" target="urfwJ74LONXbReBFOj0j-98">
          <mxGeometry relative="1" as="geometry" />
        </mxCell>
        <mxCell id="urfwJ74LONXbReBFOj0j-94" value="confirm the order&amp;nbsp;" style="whiteSpace=wrap;html=1;" vertex="1" parent="urfwJ74LONXbReBFOj0j-49">
          <mxGeometry x="72.5" y="460" width="120" height="60" as="geometry" />
        </mxCell>
        <mxCell id="urfwJ74LONXbReBFOj0j-101" value="" style="edgeStyle=orthogonalEdgeStyle;rounded=0;orthogonalLoop=1;jettySize=auto;html=1;" edge="1" parent="urfwJ74LONXbReBFOj0j-49" source="urfwJ74LONXbReBFOj0j-98" target="urfwJ74LONXbReBFOj0j-100">
          <mxGeometry relative="1" as="geometry" />
        </mxCell>
        <mxCell id="urfwJ74LONXbReBFOj0j-98" value="ships the good" style="whiteSpace=wrap;html=1;" vertex="1" parent="urfwJ74LONXbReBFOj0j-49">
          <mxGeometry x="72.5" y="600" width="120" height="60" as="geometry" />
        </mxCell>
        <mxCell id="urfwJ74LONXbReBFOj0j-103" value="" style="edgeStyle=orthogonalEdgeStyle;rounded=0;orthogonalLoop=1;jettySize=auto;html=1;" edge="1" parent="urfwJ74LONXbReBFOj0j-49" source="urfwJ74LONXbReBFOj0j-100" target="urfwJ74LONXbReBFOj0j-102">
          <mxGeometry relative="1" as="geometry" />
        </mxCell>
        <mxCell id="urfwJ74LONXbReBFOj0j-100" value="issues the invoice" style="whiteSpace=wrap;html=1;" vertex="1" parent="urfwJ74LONXbReBFOj0j-49">
          <mxGeometry x="72.5" y="740" width="120" height="60" as="geometry" />
        </mxCell>
        <mxCell id="urfwJ74LONXbReBFOj0j-102" value="&#xa;receives payment&#xa;&#xa;" style="whiteSpace=wrap;html=1;" vertex="1" parent="urfwJ74LONXbReBFOj0j-49">
          <mxGeometry x="72.5" y="880" width="120" height="60" as="geometry" />
        </mxCell>
        <mxCell id="urfwJ74LONXbReBFOj0j-50" value="Warehouse" style="swimlane;startSize=20;html=1;" vertex="1" parent="urfwJ74LONXbReBFOj0j-48">
          <mxGeometry x="400" y="20" width="200" height="1130" as="geometry" />
        </mxCell>
        <mxCell id="urfwJ74LONXbReBFOj0j-62" value="retrieved from the warehouse" style="rounded=0;whiteSpace=wrap;html=1;" vertex="1" parent="urfwJ74LONXbReBFOj0j-50">
          <mxGeometry x="10" y="90" width="110" height="52.5" as="geometry" />
        </mxCell>
        <mxCell id="urfwJ74LONXbReBFOj0j-85" value=" assembles the finished products" style="rounded=0;whiteSpace=wrap;html=1;" vertex="1" parent="urfwJ74LONXbReBFOj0j-50">
          <mxGeometry x="70" y="180" width="120" height="60" as="geometry" />
        </mxCell>
        <mxCell id="urfwJ74LONXbReBFOj0j-78" style="edgeStyle=orthogonalEdgeStyle;rounded=0;orthogonalLoop=1;jettySize=auto;html=1;entryX=0;entryY=0.5;entryDx=0;entryDy=0;" edge="1" parent="urfwJ74LONXbReBFOj0j-48" source="urfwJ74LONXbReBFOj0j-75" target="urfwJ74LONXbReBFOj0j-62">
          <mxGeometry relative="1" as="geometry" />
        </mxCell>
        <mxCell id="urfwJ74LONXbReBFOj0j-79" value="yes" style="edgeLabel;html=1;align=center;verticalAlign=middle;resizable=0;points=[];" vertex="1" connectable="0" parent="urfwJ74LONXbReBFOj0j-78">
          <mxGeometry x="0.2952" relative="1" as="geometry">
            <mxPoint as="offset" />
          </mxGeometry>
        </mxCell>
        <mxCell id="urfwJ74LONXbReBFOj0j-91" style="edgeStyle=orthogonalEdgeStyle;rounded=0;orthogonalLoop=1;jettySize=auto;html=1;entryX=0.167;entryY=0.983;entryDx=0;entryDy=0;entryPerimeter=0;" edge="1" parent="urfwJ74LONXbReBFOj0j-48" source="urfwJ74LONXbReBFOj0j-89" target="urfwJ74LONXbReBFOj0j-85">
          <mxGeometry relative="1" as="geometry" />
        </mxCell>
        <mxCell id="urfwJ74LONXbReBFOj0j-83" style="edgeStyle=orthogonalEdgeStyle;rounded=0;orthogonalLoop=1;jettySize=auto;html=1;entryX=0;entryY=0.5;entryDx=0;entryDy=0;" edge="1" parent="urfwJ74LONXbReBFOj0j-48" source="urfwJ74LONXbReBFOj0j-80" target="urfwJ74LONXbReBFOj0j-85">
          <mxGeometry relative="1" as="geometry">
            <mxPoint x="460" y="230" as="targetPoint" />
          </mxGeometry>
        </mxCell>
        <mxCell id="urfwJ74LONXbReBFOj0j-84" value="yes" style="edgeLabel;html=1;align=center;verticalAlign=middle;resizable=0;points=[];" vertex="1" connectable="0" parent="urfwJ74LONXbReBFOj0j-83">
          <mxGeometry x="-0.1531" relative="1" as="geometry">
            <mxPoint as="offset" />
          </mxGeometry>
        </mxCell>
        <mxCell id="urfwJ74LONXbReBFOj0j-96" style="edgeStyle=orthogonalEdgeStyle;rounded=0;orthogonalLoop=1;jettySize=auto;html=1;entryX=1;entryY=0.5;entryDx=0;entryDy=0;exitX=0.592;exitY=1;exitDx=0;exitDy=0;exitPerimeter=0;" edge="1" parent="urfwJ74LONXbReBFOj0j-48" source="urfwJ74LONXbReBFOj0j-85" target="urfwJ74LONXbReBFOj0j-94">
          <mxGeometry relative="1" as="geometry" />
        </mxCell>
        <mxCell id="urfwJ74LONXbReBFOj0j-97" style="edgeStyle=orthogonalEdgeStyle;rounded=0;orthogonalLoop=1;jettySize=auto;html=1;entryX=1;entryY=0.5;entryDx=0;entryDy=0;exitX=0.5;exitY=1;exitDx=0;exitDy=0;" edge="1" parent="urfwJ74LONXbReBFOj0j-48" source="urfwJ74LONXbReBFOj0j-62" target="urfwJ74LONXbReBFOj0j-94">
          <mxGeometry relative="1" as="geometry" />
        </mxCell>
        <mxCell id="urfwJ74LONXbReBFOj0j-104" value="order is archived" style="whiteSpace=wrap;html=1;" vertex="1" parent="1">
          <mxGeometry x="-207.5" y="1700" width="120" height="60" as="geometry" />
        </mxCell>
        <mxCell id="urfwJ74LONXbReBFOj0j-105" value="" style="edgeStyle=orthogonalEdgeStyle;rounded=0;orthogonalLoop=1;jettySize=auto;html=1;" edge="1" parent="1" source="urfwJ74LONXbReBFOj0j-102" target="urfwJ74LONXbReBFOj0j-104">
          <mxGeometry relative="1" as="geometry" />
        </mxCell>
      </root>
    </mxGraphModel>
  </diagram>
</mxfile>
